<?xml version="1.0" encoding="utf-8"?>
<!-- Generator: Adobe Illustrator 21.1.0, SVG Export Plug-In . SVG Version: 6.00 Build 0)  -->
<svg version="1.1" id="Layer_1" xmlns="http://www.w3.org/2000/svg" xmlns:xlink="http://www.w3.org/1999/xlink" x="0px" y="0px"
	 viewBox="0 0 441 126" style="enable-background:new 0 0 441 126;" xml:space="preserve">
<style type="text/css">
	
		.st0{fill:none;stroke:#FF6600;stroke-width:2;stroke-linecap:round;stroke-linejoin:round;stroke-miterlimit:10;stroke-dasharray:11.541,11.5409;}
	.st1{fill:#FF6600;}
	.st2{fill:#505264;}
	.st3{fill:#FFFFFF;}
	.st4{fill:#8A90C7;}
	.st5{fill:#999ECE;}
	.st6{clip-path:url(#SVGID_2_);}
	.st7{fill:#8A90C7;stroke:#8A90C7;stroke-miterlimit:10;}
	.st8{fill:#8A90C7;stroke:#FFFFFF;stroke-width:20;stroke-miterlimit:10;}
	.st9{opacity:0.2;fill:url(#SVGID_3_);}
	.st10{fill:#0000FF;}
	.st11{opacity:0.38;fill:#505264;}
	.st12{opacity:0.5;fill:#505264;}
	.st13{fill:#BDCCD4;}
	.st14{fill:#8A90C7;stroke:#FFFFFF;stroke-width:2;stroke-miterlimit:10;}
	.st15{fill:none;stroke:#FF6600;stroke-width:5;stroke-miterlimit:10;}
	.st16{fill:none;}
	.st17{opacity:0.25;}
	.st18{fill:#FF6600;stroke:#FF6600;stroke-miterlimit:10;}
	.st19{fill:#FFFFFF;stroke:#333333;stroke-miterlimit:10;}
	.st20{fill-rule:evenodd;clip-rule:evenodd;}
	.st21{fill-rule:evenodd;clip-rule:evenodd;fill:#8A90C7;}
	.st22{fill:#212121;}
	.st23{fill-rule:evenodd;clip-rule:evenodd;fill:#212121;}
	.st24{fill-rule:evenodd;clip-rule:evenodd;fill:#4B4B4B;}
	.st25{fill:#4B4B4B;}
	.st26{fill:#4B4B4B;stroke:#FFFFFF;stroke-width:0.25;stroke-miterlimit:10;}
	.st27{opacity:0.59;}
	.st28{fill-rule:evenodd;clip-rule:evenodd;fill:#505264;}
	.st29{fill:none;stroke:#FF6600;stroke-width:2;stroke-miterlimit:10;}
	.st30{fill:#8A90C7;stroke:#8A90C7;stroke-width:2;stroke-miterlimit:10;}
	.st31{fill:none;stroke:#505264;stroke-width:10;stroke-miterlimit:10;}
	.st32{fill:none;stroke:#8A90C7;stroke-width:2;stroke-miterlimit:10;}
	.st33{fill-rule:evenodd;clip-rule:evenodd;fill:#FF6600;stroke:#FF6600;stroke-miterlimit:10;}
	.st34{fill:none;stroke:#505264;stroke-width:2;stroke-miterlimit:10;}
	.st35{fill:none;stroke:#505264;stroke-width:2;stroke-miterlimit:10;stroke-dasharray:14,14;}
	.st36{fill:none;stroke:#505264;stroke-width:2;stroke-miterlimit:10;stroke-dasharray:10.1,10.1;}
	.st37{fill:none;stroke:#505264;stroke-width:2;stroke-miterlimit:10;stroke-dasharray:10.7222,10.7222;}
	.st38{fill:none;stroke:#8A90C7;stroke-width:6;stroke-miterlimit:10;}
	.st39{fill:none;stroke:#505264;stroke-width:5;stroke-miterlimit:10;}
	.st40{fill:none;stroke:#FF6600;stroke-miterlimit:10;}
	.st41{fill:none;stroke:#8A90C7;stroke-miterlimit:10;}
	.st42{fill:#00FFFF;}
	.st43{opacity:0.7;fill:none;stroke:#8A90C7;stroke-linecap:round;stroke-linejoin:round;stroke-miterlimit:10;}
	.st44{opacity:0.7;fill:#8A90C7;}
	.st45{fill:#F2F2F2;}
	.st46{opacity:0.2;fill:#505264;}
	.st47{opacity:0.4;fill:#505264;}
	.st48{fill:none;stroke:#F7931E;stroke-miterlimit:10;}
	.st49{fill-rule:evenodd;clip-rule:evenodd;fill:#FFFFFF;}
	.st50{fill:#0A222D;}
	.st51{fill:none;stroke:#FFFFFF;stroke-width:5;stroke-miterlimit:10;}
	.st52{fill:#B3B3B3;}
	.st53{fill:none;stroke:#8A90C7;stroke-width:2;stroke-linecap:round;stroke-linejoin:round;}
	.st54{fill:none;stroke:#8A90C7;stroke-width:2;stroke-linecap:round;stroke-linejoin:round;stroke-dasharray:11.94,11.94;}
	.st55{fill:#808080;}
	.st56{stroke:#666666;stroke-width:12;stroke-miterlimit:10;}
	.st57{fill:#525252;}
	.st58{fill:none;stroke:#505264;stroke-width:6;stroke-miterlimit:10;}
	.st59{fill:#E6E6E6;}
	.st60{opacity:0.5;fill:#8A90C7;}
	.st61{opacity:0.65;fill:#8A90C7;}
	.st62{opacity:0.4;fill:#8A90C7;}
	.st63{opacity:0.2;fill:#8A90C7;}
	.st64{opacity:0.8;fill:#505264;}
	.st65{opacity:0.39;fill:#FF6600;}
	.st66{fill:none;stroke:#FFFFFF;stroke-width:2;stroke-linecap:round;stroke-linejoin:round;stroke-miterlimit:10;}
	.st67{opacity:0.8;}
	.st68{clip-path:url(#SVGID_17_);}
	.st69{fill:none;stroke:#FFFFFF;stroke-miterlimit:10;}
	.st70{opacity:0.3;fill:#8A90C7;}
	.st71{fill:none;stroke:#FFFFFF;stroke-width:0.5;stroke-linecap:round;stroke-linejoin:round;stroke-miterlimit:10;}
	.st72{opacity:0.2;}
	.st73{clip-path:url(#SVGID_19_);}
	.st74{fill-rule:evenodd;clip-rule:evenodd;fill:#FF6600;}
	.st75{fill:#8A90C7;stroke:#8A90C7;stroke-width:0.25;stroke-miterlimit:10;}
	.st76{fill:none;stroke:#000000;stroke-width:8;stroke-linecap:round;stroke-linejoin:round;stroke-miterlimit:10;}
	.st77{fill:#9096C9;stroke:#FFFFFF;stroke-width:2;stroke-miterlimit:10;}
	.st78{fill:#9096C9;}
	.st79{fill:#C1272D;}
	.st80{opacity:0.38;fill:#FF6600;}
	.st81{fill:#A7B7EA;}
	.st82{opacity:0.3;fill:#505264;}
	.st83{fill:#F15A24;}
	.st84{opacity:0.3;clip-path:url(#SVGID_21_);fill:#505264;}
	.st85{opacity:0.3;clip-path:url(#SVGID_23_);fill:#505264;}
	.st86{opacity:0.3;}
	.st87{clip-path:url(#SVGID_25_);}
	.st88{clip-path:url(#SVGID_27_);}
	.st89{opacity:0.3;clip-path:url(#SVGID_29_);fill:#505264;}
	.st90{fill:#62667C;}
	.st91{opacity:0.3;clip-path:url(#SVGID_31_);fill:#8A90C7;}
	.st92{opacity:0.3;clip-path:url(#SVGID_33_);fill:#505264;}
	.st93{opacity:0.3;clip-path:url(#SVGID_35_);fill:#505264;}
	.st94{opacity:0.3;clip-path:url(#SVGID_37_);fill:#8A90C7;}
	.st95{opacity:0.3;clip-path:url(#SVGID_39_);fill:#505264;}
	.st96{opacity:0.3;clip-path:url(#SVGID_41_);fill:#505264;}
	.st97{opacity:0.3;clip-path:url(#SVGID_43_);fill:#505264;}
	.st98{opacity:0.3;clip-path:url(#SVGID_45_);fill:#505264;}
	.st99{opacity:0.3;clip-path:url(#SVGID_47_);fill:#505264;}
	.st100{fill:none;stroke:#8A90C7;stroke-width:5;stroke-miterlimit:10;}
	.st101{fill:#F7931E;}
	.st102{fill:#8A90C7;stroke:#FFFFFF;stroke-width:6;stroke-miterlimit:10;}
	.st103{fill:none;stroke:#8A90C7;stroke-width:4;stroke-linecap:round;stroke-linejoin:round;stroke-miterlimit:10;}
	.st104{fill:#22B573;stroke:#FFFFFF;stroke-width:12;stroke-miterlimit:10;}
	.st105{fill:#C1272D;stroke:#FFFFFF;stroke-width:12;stroke-miterlimit:10;}
</style>
<g>
	<g>
		<g>
			<path class="st90" d="M126,65.7c-2.4-1.8-5.8-2.7-10.2-2.7h-9.6v35.6h6.1V86h3.7c4.2,0,7.6-0.9,9.9-2.7c2.7-2,4-5.1,4-9.1
				C129.9,70.5,128.6,67.6,126,65.7z M123.5,74.3c0,2.5-0.6,4.3-2,5.3c-1.1,0.9-2.8,1.3-5.2,1.3h-4.1V68h4.1
				C121.2,68,123.5,70,123.5,74.3z"/>
		</g>
		<g>
			<path class="st90" d="M146.2,70.4c-1.7,0-3.2,0.5-4.5,1.6c-0.7,0.6-1.4,1.4-2,2.4l-0.4-3.4h-5.2v27.5h5.9V82.6
				c0.4-1.6,1.9-6.4,5.6-6.4c0.9,0,1.4,0.1,2.1,0.3l0.7,0.2l1.1-5.8l-0.6-0.2C148.1,70.5,147.1,70.4,146.2,70.4z"/>
		</g>
		<g>
			<path class="st90" d="M162.2,69.8c-3.8,0-7,1.4-9.2,4.1c-2.1,2.5-3.2,6.1-3.2,10.3c0,4.3,1.1,7.9,3.2,10.4c2.2,2.6,5.3,4,9.2,4
				c3.8,0,6.9-1.4,9.1-4.1c2.1-2.6,3.2-6.1,3.2-10.3c0-4.3-1.1-7.9-3.2-10.4C169.2,71.2,166,69.8,162.2,69.8z M162.1,93.6
				c-4.1,0-6.1-3.1-6.1-9.3c0-3.2,0.6-5.7,1.6-7.2c1-1.5,2.5-2.2,4.5-2.2c2,0,3.4,0.7,4.4,2.2c1.1,1.6,1.6,4,1.6,7.2
				C168.2,90.5,166.2,93.6,162.1,93.6z"/>
		</g>
		<g>
			<path class="st90" d="M191.8,92.4c-1.2,0.7-2.1,1-3.1,1c-1.6,0-2.5-0.5-2.5-3.2v-15h6l0.8-4.8h-6.7v-6.5l-5.9,0.7v5.8h-4.2v4.8
				h4.2v15.1c0,5.3,2.8,8.3,7.7,8.3c2.4,0,4.6-0.7,6.3-1.9l0.5-0.3l-2.4-4.2L191.8,92.4z"/>
		</g>
		<g>
			<path class="st90" d="M207.6,69.8c-3.8,0-7,1.4-9.2,4.1c-2.1,2.5-3.2,6.1-3.2,10.3c0,4.3,1.1,7.9,3.2,10.4c2.2,2.6,5.3,4,9.2,4
				c3.8,0,6.9-1.4,9.1-4.1c2.1-2.6,3.2-6.1,3.2-10.3c0-4.3-1.1-7.9-3.2-10.4C214.6,71.2,211.5,69.8,207.6,69.8z M207.6,93.6
				c-4.1,0-6.1-3.1-6.1-9.3c0-3.2,0.6-5.7,1.6-7.2c1-1.5,2.5-2.2,4.5-2.2c2,0,3.4,0.7,4.4,2.2c1.1,1.6,1.6,4,1.6,7.2
				C213.7,90.5,211.7,93.6,207.6,93.6z"/>
		</g>
		<g>
			<path class="st90" d="M238.7,70.4c-2.9,0-5.7,1.2-7.8,3.3l-0.3-2.7h-5.2v27.5h5.9V79.1c0.9-1.3,3-3.8,5.9-3.8
				c2.6,0,3.4,1,3.4,3.8v19.4h5.9V78.9c0-2.7-0.6-4.7-1.8-6.1C243.4,71.2,241.4,70.4,238.7,70.4z"/>
		</g>
		<g>
			<path class="st90" d="M276.4,63l-6.9,23.7L262.4,63h-7.5L252,98.6h5.8l1.4-18.2c0.2-2.5,0.3-5.6,0.4-8l7.1,22.5h5.5l6.8-22.5
				c0.1,2.2,0.2,5.2,0.5,7.9l1.5,18.2h5.9L283.9,63H276.4z"/>
		</g>
		<g>
			<path class="st90" d="M311.5,91.4V79.1c0-4.2-1.8-9.2-10.2-9.2c-2.8,0-5.9,0.6-9,1.7l-0.6,0.2l1.6,4.6l0.6-0.2
				c2.4-0.8,4.8-1.3,6.6-1.3c3.6,0,5,1.2,5,4.4v1.4h-2.7c-4.1,0-7.3,0.8-9.5,2.3c-2.3,1.6-3.5,3.9-3.5,6.8c0,5.3,3.6,8.8,9.2,8.8
				c1.7,0,3.3-0.3,4.7-1c1.1-0.5,2.1-1.2,2.9-2.1c0.9,1.8,2.6,2.8,4.9,3.1l0.5,0.1l1.5-4.3l-0.6-0.2C312,93.7,311.5,93.2,311.5,91.4
				z M305.6,85v5.6c-1.4,2.1-3.2,3.2-5.3,3.2c-2.8,0-4.1-1.3-4.1-4.2c0-1.5,0.5-2.6,1.4-3.3c1.1-0.9,3-1.3,5.5-1.3H305.6z"/>
		</g>
		<g>
			<path class="st90" d="M321.5,58.8c-1.1,0-2.1,0.4-2.8,1.1c-0.7,0.7-1.1,1.6-1.1,2.7c0,2.2,1.6,3.8,3.8,3.8c1.1,0,2.1-0.4,2.8-1.1
				c0.7-0.7,1.1-1.7,1.1-2.7C325.4,60.5,323.7,58.8,321.5,58.8z"/>
		</g>
		<g>
			<rect x="318.5" y="71" class="st90" width="5.9" height="27.5"/>
		</g>
		<g>
			<path class="st90" d="M340.2,93l-0.6,0.3c-0.4,0.2-0.9,0.3-1.4,0.3c-0.5,0-1,0-1-1.4V59.3l-5.9,0.7v31.7c0,2.3,0.6,4.1,1.7,5.3
				c1,1.1,2.5,1.7,4.3,1.7c1.3,0,2.7-0.3,4-1l0.5-0.3L340.2,93z"/>
		</g>
	</g>
	<g>
		<path class="st90" d="M116.4,47.1c0-0.8-0.3-1.5-0.9-2c-0.6-0.5-1.6-1-3-1.4c-1.8-0.4-3.2-1.1-4.2-1.9c-1-0.9-1.5-1.9-1.5-3.2
			c0-1.4,0.5-2.5,1.6-3.4c1.1-0.9,2.5-1.4,4.2-1.4c1.8,0,3.3,0.5,4.4,1.6c1.1,1,1.6,2.3,1.6,3.7l0,0.1h-2.3c0-1-0.3-1.8-1-2.5
			c-0.7-0.6-1.6-1-2.7-1c-1.1,0-2,0.3-2.5,0.8c-0.6,0.5-0.9,1.2-0.9,2.1c0,0.8,0.3,1.4,1,1.9c0.6,0.5,1.7,1,3.1,1.3
			c1.8,0.5,3.1,1.1,4,2c0.9,0.9,1.4,2,1.4,3.3c0,1.4-0.6,2.5-1.7,3.4c-1.1,0.9-2.6,1.3-4.3,1.3c-1.7,0-3.2-0.5-4.5-1.4
			c-1.3-0.9-1.9-2.2-1.9-3.8l0-0.1h2.3c0,1.1,0.4,1.9,1.2,2.5c0.8,0.6,1.8,0.9,2.8,0.9c1.1,0,2-0.3,2.7-0.8
			C116.1,48.6,116.4,47.9,116.4,47.1z"/>
		<path class="st90" d="M132.1,51.7c-1.9,0-3.3-0.6-4.4-1.8c-1-1.2-1.6-2.8-1.6-4.7v-0.5c0-1.9,0.5-3.4,1.6-4.6
			c1.1-1.2,2.4-1.8,3.9-1.8c1.7,0,3,0.5,3.9,1.6c0.9,1.1,1.3,2.5,1.3,4.3v1.2h-8.3l0,0.1c0,1.3,0.3,2.4,0.9,3.2
			c0.6,0.8,1.5,1.2,2.6,1.2c0.8,0,1.5-0.1,2.1-0.3c0.6-0.2,1.1-0.5,1.6-0.9l0.9,1.5c-0.5,0.4-1.1,0.8-1.8,1.1
			C134.1,51.6,133.1,51.7,132.1,51.7z M131.7,40.1c-0.8,0-1.5,0.3-2,1c-0.5,0.6-0.9,1.5-1,2.4l0,0.1h5.9v-0.2c0-0.9-0.2-1.7-0.7-2.3
			C133.4,40.4,132.7,40.1,131.7,40.1z"/>
		<path class="st90" d="M149.6,49.9c0.7,0,1.4-0.2,1.9-0.7c0.5-0.5,0.8-1.1,0.8-1.8h2.1l0,0.1c0,1.1-0.4,2.1-1.4,3
			c-1,0.9-2.1,1.3-3.5,1.3c-1.8,0-3.2-0.6-4.2-1.9c-1-1.2-1.5-2.8-1.5-4.6v-0.5c0-1.8,0.5-3.4,1.5-4.6c1-1.2,2.4-1.9,4.2-1.9
			c1.4,0,2.6,0.4,3.6,1.3c0.9,0.9,1.4,2,1.3,3.3l0,0.1h-2.1c0-0.8-0.3-1.5-0.8-2c-0.5-0.6-1.2-0.8-2-0.8c-1.2,0-2,0.5-2.5,1.4
			c-0.5,0.9-0.8,2-0.8,3.3v0.5c0,1.3,0.3,2.4,0.8,3.3C147.6,49.4,148.5,49.9,149.6,49.9z"/>
		<path class="st90" d="M170.5,49.6c-0.4,0.7-0.9,1.2-1.6,1.6c-0.6,0.4-1.4,0.6-2.2,0.6c-1.4,0-2.5-0.5-3.3-1.4
			c-0.8-0.9-1.2-2.3-1.2-4.2v-7.7h2.4v7.7c0,1.4,0.2,2.3,0.6,2.9c0.4,0.5,1,0.8,1.9,0.8c0.8,0,1.5-0.2,2.1-0.5
			c0.5-0.3,1-0.8,1.2-1.4v-9.4h2.4v13h-2.1L170.5,49.6z"/>
		<path class="st90" d="M187.3,40.6l-1.2-0.1c-0.6,0-1.2,0.1-1.6,0.4c-0.4,0.3-0.8,0.7-1,1.2v9.3h-2.4v-13h2.1l0.2,1.9
			c0.4-0.7,0.8-1.2,1.4-1.6c0.5-0.4,1.2-0.6,1.9-0.6c0.2,0,0.3,0,0.5,0c0.2,0,0.3,0.1,0.4,0.1L187.3,40.6z"/>
		<path class="st90" d="M199.8,51.7c-1.9,0-3.3-0.6-4.4-1.8c-1-1.2-1.6-2.8-1.6-4.7v-0.5c0-1.9,0.5-3.4,1.6-4.6
			c1.1-1.2,2.4-1.8,3.9-1.8c1.7,0,3,0.5,3.9,1.6c0.9,1.1,1.3,2.5,1.3,4.3v1.2h-8.3l0,0.1c0,1.3,0.3,2.4,0.9,3.2
			c0.6,0.8,1.5,1.2,2.6,1.2c0.8,0,1.5-0.1,2.1-0.3c0.6-0.2,1.1-0.5,1.6-0.9l0.9,1.5c-0.5,0.4-1.1,0.8-1.8,1.1
			C201.8,51.6,200.9,51.7,199.8,51.7z M199.5,40.1c-0.8,0-1.5,0.3-2,1c-0.5,0.6-0.9,1.5-1,2.4l0,0.1h5.9v-0.2c0-0.9-0.2-1.7-0.7-2.3
			C201.2,40.4,200.4,40.1,199.5,40.1z"/>
		<path class="st90" d="M211.7,45.2c0-2.1,0.4-3.8,1.3-5.1c0.9-1.3,2.1-1.9,3.8-1.9c0.8,0,1.4,0.1,2,0.4c0.6,0.3,1.1,0.7,1.5,1.2
			v-7.1h2.4v18.7h-1.8l-0.4-1.6c-0.4,0.6-0.9,1.1-1.6,1.4c-0.6,0.3-1.3,0.5-2.2,0.5c-1.6,0-2.8-0.6-3.7-1.7
			c-0.9-1.1-1.3-2.7-1.3-4.5V45.2z M214.1,45.5c0,1.3,0.3,2.4,0.8,3.2c0.5,0.8,1.4,1.2,2.5,1.2c0.7,0,1.3-0.2,1.8-0.5
			c0.5-0.3,0.9-0.8,1.2-1.3v-6.1c-0.3-0.5-0.7-1-1.2-1.3c-0.5-0.3-1.1-0.5-1.7-0.5c-1.1,0-2,0.5-2.5,1.4c-0.5,0.9-0.8,2.2-0.8,3.7
			V45.5z"/>
		<path class="st90" d="M253.3,45.5c0,1.9-0.5,3.4-1.4,4.5c-0.9,1.1-2.1,1.7-3.7,1.7c-0.9,0-1.6-0.2-2.3-0.5
			c-0.6-0.3-1.2-0.8-1.6-1.5l-0.4,1.8h-1.8V32.7h2.4V40c0.4-0.6,0.9-1,1.5-1.3c0.6-0.3,1.3-0.5,2.1-0.5c1.6,0,2.8,0.6,3.7,1.9
			c0.9,1.3,1.3,3,1.3,5.1V45.5z M250.9,45.2c0-1.5-0.3-2.7-0.8-3.6c-0.5-0.9-1.4-1.4-2.5-1.4c-0.7,0-1.3,0.2-1.8,0.5
			c-0.5,0.4-0.9,0.8-1.2,1.4v5.6c0.3,0.6,0.7,1.1,1.2,1.5c0.5,0.4,1.1,0.5,1.9,0.5c1.1,0,1.9-0.4,2.5-1.2c0.5-0.8,0.8-1.8,0.8-3.1
			V45.2z"/>
		<path class="st90" d="M264.9,46.7l0.4,1.6h0.1l3.2-9.8h2.6l-5.5,15c-0.3,0.9-0.8,1.6-1.4,2.3c-0.6,0.6-1.4,1-2.5,1
			c-0.2,0-0.4,0-0.7-0.1c-0.3,0-0.5-0.1-0.7-0.1l0.2-1.9c0,0,0.1,0,0.4,0s0.5,0,0.6,0c0.5,0,0.9-0.2,1.2-0.7
			c0.3-0.4,0.6-0.9,0.8-1.5l0.6-1.4l-4.8-12.7h2.6L264.9,46.7z"/>
	</g>
	<path class="st90" d="M430.8,50.5l-10.6-10.1l-36.9,38.7c-0.3,0.3-0.8,0.4-1.2,0.1l-19.9-16.9l-9.5,11.1l25.9,21.9l5.3,4.5l4.8-5
		L430.8,50.5z"/>
	<path class="st90" d="M401.3,9.5C401.1,9.3,401.1,9.2,401.3,9.5L401.3,9.5z"/>
	<path class="st90" d="M412.4,14c-2.4-2.4-5.7-3.9-9.2-4.2l0,0.4V9.7h-1.6l-0.2-0.2c0,0,0,0,0,0c0,0.1,0.1,0.1,0.2,0.2H61.1
		c2,0.7,4.2,1.6,6.4,2.7h335l0.5,0c2.9,0.2,5.5,1.4,7.4,3.4c1.9,1.9,3,4.5,3,7.1v22l2.7-2.9V23C416.2,19.6,414.8,16.4,412.4,14z"/>
	<path class="st90" d="M48.3,9.5c0,0-31.6-1-38.1,34v23.9c0,0,0.3,2.6,7.5,7.7S43.5,95,48.3,95S71.8,80.4,79,75.2
		c7.2-5.2,7.5-7.7,7.5-7.7V43.6C79.9,8.5,48.3,9.5,48.3,9.5z M70,56.6H48.3H26.7v-13c4.4-17.4,21.6-17.6,21.6-17.6
		S65.6,26.2,70,43.6V56.6z"/>
	<path class="st90" d="M413.5,71.2v32.4c0,5.8-5.1,10.4-11.4,10.4H88.2c-0.3,0.9-0.8,1.9-1.6,2.7h315.4c7.8,0,14.1-5.9,14.1-13.1
		V68.3L413.5,71.2z"/>
	<path class="st90" d="M48.3,100.4c0,0-4.9-0.5-8.7-3.1c-3.8-2.7-29.4-20.9-29.4-20.9v36.2c0,0,0.2,4.2,4.8,4.2s33.3,0,33.3,0
		s28.6,0,33.3,0c4.6,0,4.8-4.2,4.8-4.2V76.3c0,0-25.6,18.3-29.4,20.9C53.2,99.9,48.3,100.4,48.3,100.4z"/>
</g>
</svg>
