<svg xmlns="http://www.w3.org/2000/svg" xmlns:xlink="http://www.w3.org/1999/xlink" id="Layer_1" x="0" y="0" enable-background="new 0 0 441 126" version="1.1" viewBox="0 0 441 126" xml:space="preserve"><style type="text/css">.st90{fill:#62667c}</style><g><g><g><path d="M126,65.7c-2.4-1.8-5.8-2.7-10.2-2.7h-9.6v35.6h6.1V86h3.7c4.2,0,7.6-0.9,9.9-2.7c2.7-2,4-5.1,4-9.1 C129.9,70.5,128.6,67.6,126,65.7z M123.5,74.3c0,2.5-0.6,4.3-2,5.3c-1.1,0.9-2.8,1.3-5.2,1.3h-4.1V68h4.1 C121.2,68,123.5,70,123.5,74.3z" class="st90"/></g><g><path d="M146.2,70.4c-1.7,0-3.2,0.5-4.5,1.6c-0.7,0.6-1.4,1.4-2,2.4l-0.4-3.4h-5.2v27.5h5.9V82.6 c0.4-1.6,1.9-6.4,5.6-6.4c0.9,0,1.4,0.1,2.1,0.3l0.7,0.2l1.1-5.8l-0.6-0.2C148.1,70.5,147.1,70.4,146.2,70.4z" class="st90"/></g><g><path d="M162.2,69.8c-3.8,0-7,1.4-9.2,4.1c-2.1,2.5-3.2,6.1-3.2,10.3c0,4.3,1.1,7.9,3.2,10.4c2.2,2.6,5.3,4,9.2,4 c3.8,0,6.9-1.4,9.1-4.1c2.1-2.6,3.2-6.1,3.2-10.3c0-4.3-1.1-7.9-3.2-10.4C169.2,71.2,166,69.8,162.2,69.8z M162.1,93.6 c-4.1,0-6.1-3.1-6.1-9.3c0-3.2,0.6-5.7,1.6-7.2c1-1.5,2.5-2.2,4.5-2.2c2,0,3.4,0.7,4.4,2.2c1.1,1.6,1.6,4,1.6,7.2 C168.2,90.5,166.2,93.6,162.1,93.6z" class="st90"/></g><g><path d="M191.8,92.4c-1.2,0.7-2.1,1-3.1,1c-1.6,0-2.5-0.5-2.5-3.2v-15h6l0.8-4.8h-6.7v-6.5l-5.9,0.7v5.8h-4.2v4.8 h4.2v15.1c0,5.3,2.8,8.3,7.7,8.3c2.4,0,4.6-0.7,6.3-1.9l0.5-0.3l-2.4-4.2L191.8,92.4z" class="st90"/></g><g><path d="M207.6,69.8c-3.8,0-7,1.4-9.2,4.1c-2.1,2.5-3.2,6.1-3.2,10.3c0,4.3,1.1,7.9,3.2,10.4c2.2,2.6,5.3,4,9.2,4 c3.8,0,6.9-1.4,9.1-4.1c2.1-2.6,3.2-6.1,3.2-10.3c0-4.3-1.1-7.9-3.2-10.4C214.6,71.2,211.5,69.8,207.6,69.8z M207.6,93.6 c-4.1,0-6.1-3.1-6.1-9.3c0-3.2,0.6-5.7,1.6-7.2c1-1.5,2.5-2.2,4.5-2.2c2,0,3.4,0.7,4.4,2.2c1.1,1.6,1.6,4,1.6,7.2 C213.7,90.5,211.7,93.6,207.6,93.6z" class="st90"/></g><g><path d="M238.7,70.4c-2.9,0-5.7,1.2-7.8,3.3l-0.3-2.7h-5.2v27.5h5.9V79.1c0.9-1.3,3-3.8,5.9-3.8 c2.6,0,3.4,1,3.4,3.8v19.4h5.9V78.9c0-2.7-0.6-4.7-1.8-6.1C243.4,71.2,241.4,70.4,238.7,70.4z" class="st90"/></g><g><path d="M276.4,63l-6.9,23.7L262.4,63h-7.5L252,98.6h5.8l1.4-18.2c0.2-2.5,0.3-5.6,0.4-8l7.1,22.5h5.5l6.8-22.5 c0.1,2.2,0.2,5.2,0.5,7.9l1.5,18.2h5.9L283.9,63H276.4z" class="st90"/></g><g><path d="M311.5,91.4V79.1c0-4.2-1.8-9.2-10.2-9.2c-2.8,0-5.9,0.6-9,1.7l-0.6,0.2l1.6,4.6l0.6-0.2 c2.4-0.8,4.8-1.3,6.6-1.3c3.6,0,5,1.2,5,4.4v1.4h-2.7c-4.1,0-7.3,0.8-9.5,2.3c-2.3,1.6-3.5,3.9-3.5,6.8c0,5.3,3.6,8.8,9.2,8.8 c1.7,0,3.3-0.3,4.7-1c1.1-0.5,2.1-1.2,2.9-2.1c0.9,1.8,2.6,2.8,4.9,3.1l0.5,0.1l1.5-4.3l-0.6-0.2C312,93.7,311.5,93.2,311.5,91.4 z M305.6,85v5.6c-1.4,2.1-3.2,3.2-5.3,3.2c-2.8,0-4.1-1.3-4.1-4.2c0-1.5,0.5-2.6,1.4-3.3c1.1-0.9,3-1.3,5.5-1.3H305.6z" class="st90"/></g><g><path d="M321.5,58.8c-1.1,0-2.1,0.4-2.8,1.1c-0.7,0.7-1.1,1.6-1.1,2.7c0,2.2,1.6,3.8,3.8,3.8c1.1,0,2.1-0.4,2.8-1.1 c0.7-0.7,1.1-1.7,1.1-2.7C325.4,60.5,323.7,58.8,321.5,58.8z" class="st90"/></g><g><rect width="5.9" height="27.5" x="318.5" y="71" class="st90"/></g><g><path d="M340.2,93l-0.6,0.3c-0.4,0.2-0.9,0.3-1.4,0.3c-0.5,0-1,0-1-1.4V59.3l-5.9,0.7v31.7c0,2.3,0.6,4.1,1.7,5.3 c1,1.1,2.5,1.7,4.3,1.7c1.3,0,2.7-0.3,4-1l0.5-0.3L340.2,93z" class="st90"/></g></g><g><path d="M116.4,47.1c0-0.8-0.3-1.5-0.9-2c-0.6-0.5-1.6-1-3-1.4c-1.8-0.4-3.2-1.1-4.2-1.9c-1-0.9-1.5-1.9-1.5-3.2 c0-1.4,0.5-2.5,1.6-3.4c1.1-0.9,2.5-1.4,4.2-1.4c1.8,0,3.3,0.5,4.4,1.6c1.1,1,1.6,2.3,1.6,3.7l0,0.1h-2.3c0-1-0.3-1.8-1-2.5 c-0.7-0.6-1.6-1-2.7-1c-1.1,0-2,0.3-2.5,0.8c-0.6,0.5-0.9,1.2-0.9,2.1c0,0.8,0.3,1.4,1,1.9c0.6,0.5,1.7,1,3.1,1.3 c1.8,0.5,3.1,1.1,4,2c0.9,0.9,1.4,2,1.4,3.3c0,1.4-0.6,2.5-1.7,3.4c-1.1,0.9-2.6,1.3-4.3,1.3c-1.7,0-3.2-0.5-4.5-1.4 c-1.3-0.9-1.9-2.2-1.9-3.8l0-0.1h2.3c0,1.1,0.4,1.9,1.2,2.5c0.8,0.6,1.8,0.9,2.8,0.9c1.1,0,2-0.3,2.7-0.8 C116.1,48.6,116.4,47.9,116.4,47.1z" class="st90"/><path d="M132.1,51.7c-1.9,0-3.3-0.6-4.4-1.8c-1-1.2-1.6-2.8-1.6-4.7v-0.5c0-1.9,0.5-3.4,1.6-4.6 c1.1-1.2,2.4-1.8,3.9-1.8c1.7,0,3,0.5,3.9,1.6c0.9,1.1,1.3,2.5,1.3,4.3v1.2h-8.3l0,0.1c0,1.3,0.3,2.4,0.9,3.2 c0.6,0.8,1.5,1.2,2.6,1.2c0.8,0,1.5-0.1,2.1-0.3c0.6-0.2,1.1-0.5,1.6-0.9l0.9,1.5c-0.5,0.4-1.1,0.8-1.8,1.1 C134.1,51.6,133.1,51.7,132.1,51.7z M131.7,40.1c-0.8,0-1.5,0.3-2,1c-0.5,0.6-0.9,1.5-1,2.4l0,0.1h5.9v-0.2c0-0.9-0.2-1.7-0.7-2.3 C133.4,40.4,132.7,40.1,131.7,40.1z" class="st90"/><path d="M149.6,49.9c0.7,0,1.4-0.2,1.9-0.7c0.5-0.5,0.8-1.1,0.8-1.8h2.1l0,0.1c0,1.1-0.4,2.1-1.4,3 c-1,0.9-2.1,1.3-3.5,1.3c-1.8,0-3.2-0.6-4.2-1.9c-1-1.2-1.5-2.8-1.5-4.6v-0.5c0-1.8,0.5-3.4,1.5-4.6c1-1.2,2.4-1.9,4.2-1.9 c1.4,0,2.6,0.4,3.6,1.3c0.9,0.9,1.4,2,1.3,3.3l0,0.1h-2.1c0-0.8-0.3-1.5-0.8-2c-0.5-0.6-1.2-0.8-2-0.8c-1.2,0-2,0.5-2.5,1.4 c-0.5,0.9-0.8,2-0.8,3.3v0.5c0,1.3,0.3,2.4,0.8,3.3C147.6,49.4,148.5,49.9,149.6,49.9z" class="st90"/><path d="M170.5,49.6c-0.4,0.7-0.9,1.2-1.6,1.6c-0.6,0.4-1.4,0.6-2.2,0.6c-1.4,0-2.5-0.5-3.3-1.4 c-0.8-0.9-1.2-2.3-1.2-4.2v-7.7h2.4v7.7c0,1.4,0.2,2.3,0.6,2.9c0.4,0.5,1,0.8,1.9,0.8c0.8,0,1.5-0.2,2.1-0.5 c0.5-0.3,1-0.8,1.2-1.4v-9.4h2.4v13h-2.1L170.5,49.6z" class="st90"/><path d="M187.3,40.6l-1.2-0.1c-0.6,0-1.2,0.1-1.6,0.4c-0.4,0.3-0.8,0.7-1,1.2v9.3h-2.4v-13h2.1l0.2,1.9 c0.4-0.7,0.8-1.2,1.4-1.6c0.5-0.4,1.2-0.6,1.9-0.6c0.2,0,0.3,0,0.5,0c0.2,0,0.3,0.1,0.4,0.1L187.3,40.6z" class="st90"/><path d="M199.8,51.7c-1.9,0-3.3-0.6-4.4-1.8c-1-1.2-1.6-2.8-1.6-4.7v-0.5c0-1.9,0.5-3.4,1.6-4.6 c1.1-1.2,2.4-1.8,3.9-1.8c1.7,0,3,0.5,3.9,1.6c0.9,1.1,1.3,2.5,1.3,4.3v1.2h-8.3l0,0.1c0,1.3,0.3,2.4,0.9,3.2 c0.6,0.8,1.5,1.2,2.6,1.2c0.8,0,1.5-0.1,2.1-0.3c0.6-0.2,1.1-0.5,1.6-0.9l0.9,1.5c-0.5,0.4-1.1,0.8-1.8,1.1 C201.8,51.6,200.9,51.7,199.8,51.7z M199.5,40.1c-0.8,0-1.5,0.3-2,1c-0.5,0.6-0.9,1.5-1,2.4l0,0.1h5.9v-0.2c0-0.9-0.2-1.7-0.7-2.3 C201.2,40.4,200.4,40.1,199.5,40.1z" class="st90"/><path d="M211.7,45.2c0-2.1,0.4-3.8,1.3-5.1c0.9-1.3,2.1-1.9,3.8-1.9c0.8,0,1.4,0.1,2,0.4c0.6,0.3,1.1,0.7,1.5,1.2 v-7.1h2.4v18.7h-1.8l-0.4-1.6c-0.4,0.6-0.9,1.1-1.6,1.4c-0.6,0.3-1.3,0.5-2.2,0.5c-1.6,0-2.8-0.6-3.7-1.7 c-0.9-1.1-1.3-2.7-1.3-4.5V45.2z M214.1,45.5c0,1.3,0.3,2.4,0.8,3.2c0.5,0.8,1.4,1.2,2.5,1.2c0.7,0,1.3-0.2,1.8-0.5 c0.5-0.3,0.9-0.8,1.2-1.3v-6.1c-0.3-0.5-0.7-1-1.2-1.3c-0.5-0.3-1.1-0.5-1.7-0.5c-1.1,0-2,0.5-2.5,1.4c-0.5,0.9-0.8,2.2-0.8,3.7 V45.5z" class="st90"/><path d="M253.3,45.5c0,1.9-0.5,3.4-1.4,4.5c-0.9,1.1-2.1,1.7-3.7,1.7c-0.9,0-1.6-0.2-2.3-0.5 c-0.6-0.3-1.2-0.8-1.6-1.5l-0.4,1.8h-1.8V32.7h2.4V40c0.4-0.6,0.9-1,1.5-1.3c0.6-0.3,1.3-0.5,2.1-0.5c1.6,0,2.8,0.6,3.7,1.9 c0.9,1.3,1.3,3,1.3,5.1V45.5z M250.9,45.2c0-1.5-0.3-2.7-0.8-3.6c-0.5-0.9-1.4-1.4-2.5-1.4c-0.7,0-1.3,0.2-1.8,0.5 c-0.5,0.4-0.9,0.8-1.2,1.4v5.6c0.3,0.6,0.7,1.1,1.2,1.5c0.5,0.4,1.1,0.5,1.9,0.5c1.1,0,1.9-0.4,2.5-1.2c0.5-0.8,0.8-1.8,0.8-3.1 V45.2z" class="st90"/><path d="M264.9,46.7l0.4,1.6h0.1l3.2-9.8h2.6l-5.5,15c-0.3,0.9-0.8,1.6-1.4,2.3c-0.6,0.6-1.4,1-2.5,1 c-0.2,0-0.4,0-0.7-0.1c-0.3,0-0.5-0.1-0.7-0.1l0.2-1.9c0,0,0.1,0,0.4,0s0.5,0,0.6,0c0.5,0,0.9-0.2,1.2-0.7 c0.3-0.4,0.6-0.9,0.8-1.5l0.6-1.4l-4.8-12.7h2.6L264.9,46.7z" class="st90"/></g><path d="M430.8,50.5l-10.6-10.1l-36.9,38.7c-0.3,0.3-0.8,0.4-1.2,0.1l-19.9-16.9l-9.5,11.1l25.9,21.9l5.3,4.5l4.8-5 L430.8,50.5z" class="st90"/><path d="M401.3,9.5C401.1,9.3,401.1,9.2,401.3,9.5L401.3,9.5z" class="st90"/><path d="M412.4,14c-2.4-2.4-5.7-3.9-9.2-4.2l0,0.4V9.7h-1.6l-0.2-0.2c0,0,0,0,0,0c0,0.1,0.1,0.1,0.2,0.2H61.1 c2,0.7,4.2,1.6,6.4,2.7h335l0.5,0c2.9,0.2,5.5,1.4,7.4,3.4c1.9,1.9,3,4.5,3,7.1v22l2.7-2.9V23C416.2,19.6,414.8,16.4,412.4,14z" class="st90"/><path d="M48.3,9.5c0,0-31.6-1-38.1,34v23.9c0,0,0.3,2.6,7.5,7.7S43.5,95,48.3,95S71.8,80.4,79,75.2 c7.2-5.2,7.5-7.7,7.5-7.7V43.6C79.9,8.5,48.3,9.5,48.3,9.5z M70,56.6H48.3H26.7v-13c4.4-17.4,21.6-17.6,21.6-17.6 S65.6,26.2,70,43.6V56.6z" class="st90"/><path d="M413.5,71.2v32.4c0,5.8-5.1,10.4-11.4,10.4H88.2c-0.3,0.9-0.8,1.9-1.6,2.7h315.4c7.8,0,14.1-5.9,14.1-13.1 V68.3L413.5,71.2z" class="st90"/><path d="M48.3,100.4c0,0-4.9-0.5-8.7-3.1c-3.8-2.7-29.4-20.9-29.4-20.9v36.2c0,0,0.2,4.2,4.8,4.2s33.3,0,33.3,0 s28.6,0,33.3,0c4.6,0,4.8-4.2,4.8-4.2V76.3c0,0-25.6,18.3-29.4,20.9C53.2,99.9,48.3,100.4,48.3,100.4z" class="st90"/></g></svg>