<svg id="Ebene_1" data-name="Ebene 1" xmlns="http://www.w3.org/2000/svg" viewBox="0 0 1920.18 1080.22"><defs><style>.cls-1{fill:#fff;}.cls-2{fill:#959595;}.cls-3{fill:#949494;}.cls-4{fill:#969696;}.cls-5{fill:#989898;}.cls-6{fill:#949391;}.cls-7{fill:#969595;}.cls-8{fill:#939393;}.cls-9{fill:#979797;}.cls-10{fill:#989797;}.cls-11{fill:#9a9a9a;}.cls-12{fill:#9e9e9d;}.cls-13{fill:#c29f07;}.cls-14{fill:#d3d2d3;}</style></defs><title>start</title><path class="cls-1" d="M1921,348V528c-2.5.42-3-1.85-3.91-3.2-19.61-28.74-39.58-57.24-59.07-86.06-1.4-2.07-3.07-3.89-4.6-6.15-3.58,2.6-2.73,6.59-3.16,9.63-5.95,41.43-14,82.48-22.52,123.41q-13.65,65.39-31.38,129.85c-7,25.57-14.48,51-22,76.4q9.59-31.09,18.34-62.44,10.89-39.29,20.38-79,11.57-48.26,21.1-97c4.52-22.86,8.59-45.8,12.63-68.74,1.57-8.94,3.08-17.92,4.18-26.95.19-1.54.26-3.21,2-3.67s2.59,1.32,3.39,2.41c4.16,5.62,8,11.5,11.89,17.28,16.31,23.94,32.93,47.67,49.19,71.64A26.32,26.32,0,0,1,1921,532V952a188.25,188.25,0,0,1-11.72,16.75c-3,3.9-3.94,3.82-7-.21-16.43-21.55-32.16-43.63-48.75-65.05-2.28-2.94-1.78-4.89,1-7,8.08-6.12,16-12.43,24-18.64,12-9.27,23.84-18.63,35.77-27.93q-15.06,11.62-30,23.38c-10.19,8-20.49,15.86-30.67,23.89-2.56,2-2.27,3.49-.61,5.66,17,22.18,33.42,44.76,50.12,67.16,2,2.66,3.54,3,5.6-.1q4.16-6.21,8.7-12.16c.9-1.18,1.23-3.36,3.58-2.73v65c-2.7-.24-3.61-2.66-5-4.35-17.58-22.34-35.42-44.47-53-66.77-15.88-20.09-31.85-40.1-47.72-60.2-18-22.84-36.32-45.47-54.24-68.4-2.32-3-3.22-2.84-4.57.71-14.45,38.24-29.34,76.31-43.85,114.52-2.18,5.75-4.3,11.52-6.7,17.18-1.38,3.25-1,5.75,1.27,8.66,18.85,23.68,37.83,47.25,56.55,71,10.25,13,20.7,25.88,31,38.85q-25.21-31.88-50.56-63.64c-12.22-15.35-24.34-30.77-36.72-46-2.44-3-2.8-5.61-1.44-9.11q25.19-65.09,50.07-130.31c1.59-4.17,2.74-4.33,5.6-.73q34.7,43.78,69.48,87.5,27.57,34.79,55.28,69.48c10.79,13.51,21.44,27.12,32.34,40.54a10.26,10.26,0,0,0,2.18,2c0,19-.05,38,.06,57,0,2.48-.53,3.5-3.06,3a11.13,11.13,0,0,0-2,0q-955.1,0-1910.2.1c-3.94,0-4.92-.62-4.92-4.8Q1.07,540.89.9,5.47C.9,1.66,1.84.9,5.53.91Q89.26,1.11,173,1c-.29,3.21-3.3,2.93-5.19,3.69-18,7.27-36,14.63-54.2,21.62-3.85,1.48-4.47,3.29-3.32,7,7.41,23.57,14.85,47.14,22,70.8a8.83,8.83,0,0,0,4.3,5.18q49,29.39,97.77,59.24c3.72,2.27,5.26,1.75,7.62-1.91C269.84,123.37,297.52,80,325.55,36.9,332,27,338.23,17.06,344.64,7.19c-28.55,44-56.76,88.13-85.31,132.08q-8.84,13.61-17.5,27.33c-2.18,3.46-4,4-7.43,1.83-18.56-11.44-37.24-22.67-55.89-33.95-13.67-8.26-27.3-16.59-41-24.77-2.34-1.39-4.35-2.91-5.18-5.72-6.95-23.37-14.54-46.55-21.52-69.91-1.73-5.78-1.66-5.83,3.86-8,18.54-7.36,37-14.84,55.57-22.2,2-.79,4.12-1.37,5.78-2.86H363c1.49,2.41-.75,3.72-1.74,5.19q-26.57,39.91-52.85,80C290,114.14,271.27,141.85,253.13,170c-3,4.63-3,4.65,1.55,7.71,39.52,26.26,78.89,52.74,118.49,78.88,3.44,2.27,5,2.1,7.35-1.35,41.8-61.73,84-123.21,125.87-184.89Q522,47.38,537.65,24.54c2-2.9,1.78-4.41-1.05-6.46-4.29-3.12-8.34-6.59-12.5-9.89,4,3.4,8.2,6.64,12.34,9.91,2.75,2.18,2.68,4,.85,6.74-24.7,36.53-49.67,72.88-74.48,109.33Q435.7,174,408.56,213.81c-9.44,13.91-19,27.71-28.37,41.69-1.9,2.85-3.54,3.22-6.45,1.3-39.89-26.3-79.53-53-119.37-79.36-3.8-2.52-3-4.75-1-7.81,13.91-21.33,28.16-42.45,42.17-63.72C318.65,70.91,341.67,35.85,365,1H1891a1,1,0,0,1,.28.85c0,.3-.1.45-.17.45-16.68,13.76-32.54,28.46-48.91,42.57-20,17.27-39.85,34.78-59.8,52.15-14.93,13-29.74,26.14-44.6,39.23q-21.91,19.29-44,38.4c-8.44,7.28-16.64,14.83-25.21,22-2.29,1.9-2.32,3.36-.31,5.71,7.46,8.73,15.31,17.1,23,25.66,13.63,15.26,27.5,30.3,40.93,45.74,2.24,2.58,3.68,2.91,6.48.68q47.84-38.14,95.83-76.08,41.09-32.58,82.19-65.15c1.23-1,2.41-2.54,4.33-1.17V346c-17.27,16.6-35,32.74-52.7,48.84A6.3,6.3,0,0,0,1866,400c.08,6.33.09,12.66,0,19a9,9,0,0,0,1.85,5.54c16.51,23.34,32.49,47,48.92,70.45-14.61-21.22-29-42.57-44.1-63.46-5.1-7.06-7.65-14.06-6.66-22.58a58.13,58.13,0,0,0,0-8.49c-.08-2.54.95-4.25,2.86-6q17.05-15.36,33.72-31.14c5.06-4.82,10.64-9.08,15.4-14.22C1918.75,348.27,1919.64,347.4,1921,348Z" transform="translate(-0.88 -0.91)"/><path class="cls-1" d="M1891,1.83q0-.41,0-.83c9,0,18,.11,27-.07,2.51,0,3.08.57,3.07,3.07-.11,22.33-.07,44.67-.07,67-2.84-.29-2.39-2.91-2.86-4.52C1913,48.71,1907.55,31,1902.57,13.19a14.23,14.23,0,0,0-1.22-3.69c5.8,19.74,11.66,39.87,17.58,60,.56,1.89.85,3.87,2.07,5.51v54c-4.62,5.79-11,9.56-16.65,14.12-20.31,16.36-40.81,32.49-61.26,48.67q-34.21,27.07-68.4,54.18c-12,9.47-23.93,19-36,28.47-3.07,2.41-4.68,1.7-7-.91-10.81-12.41-21.88-24.59-32.94-36.79-9.49-10.47-18.84-21.06-28.4-31.47-5.24-5.71-4.84-6.26,1.1-11.34,12-10.27,23.81-20.76,35.69-31.16s24-21,36-31.53q18.71-16.46,37.45-32.9,17.83-15.6,35.66-31.19,18.19-15.93,36.4-31.86C1865.54,24.15,1878.2,12.88,1891,1.83Z" transform="translate(-0.88 -0.91)"/><path class="cls-2" d="M365,1c.2,2.25-1.45,3.65-2.52,5.27Q308.52,88,254.42,169.63c-2.55,3.84-2.14,5.44,1.65,7.93q58.63,38.62,117,77.67c3.48,2.33,4.84,2,7.17-1.44Q457.6,139.94,535.33,26.32c2.7-3.95,3.14-6.11-1.24-9-5-3.27-9.4-7.4-14.07-11.16l1.17-1.49q5.48,4.36,11,8.71c9.27,7.32,9.29,7.33,2.67,17q-77,112.91-153.89,225.88c-2.44,3.59-4,4-7.67,1.55q-60-40.19-120.26-79.95c-3.71-2.45-3.87-3.95-1.47-7.56q54.61-82.2,108.9-164.61C361.43,4.27,362.89,3,363,1Z" transform="translate(-0.88 -0.91)"/><path class="cls-2" d="M1891,1.83c-4.16,6.36-10.58,10.4-16.12,15.29Q1815.7,69.31,1756.21,121.2q-42.11,36.86-84.21,73.72c-6,5.27-6.25,3.44-.78,9.57,20.3,22.73,40.85,45.25,61,68.14,3.64,4.14,5.39,1.54,7.86-.42q73-57.88,146-115.77c11.61-9.2,23.29-18.3,34.95-27.44v3c-8.17,4.86-15.11,11.34-22.52,17.19q-80.15,63.36-160.09,127c-2.59,2.06-3.93,1.85-6-.52q-32.75-36.74-65.75-73.27c-2.18-2.41-2.23-3.6.25-5.76q37.32-32.47,74.47-65.15,46.8-41,93.61-82,25.56-22.39,51.13-44.77C1887.48,3.51,1888.68,1.58,1891,1.83Z" transform="translate(-0.88 -0.91)"/><path class="cls-2" d="M1921,1021c-2.64.51-3.38-1.83-4.51-3.26q-54.75-68.79-109.4-137.66-23.45-29.53-46.87-59.09a25.49,25.49,0,0,1-1.48-2.64c-5.12,13.23-9.79,25.24-14.4,37.26-12.45,32.46-24.83,64.94-37.4,97.35-1.26,3.26-.79,5.39,1.35,8.07q43.51,54.43,86.79,109.05c1,1.31,2.64,2.42,2.75,4.36-2,.75-2.29-.74-2.93-1.54q-44.69-56.05-89.37-112.1c-1.9-2.38-2.07-4.33-1-7.17q25.87-67,51.46-134.18c1.39-3.64,2.37-4.09,4.93-.85Q1817.4,889.87,1874,961q23.46,29.52,47,59Z" transform="translate(-0.88 -0.91)"/><path class="cls-2" d="M176,1c0,2.69-2.38,2.43-3.88,3C153.46,11.6,134.83,19.21,116,26.45c-4.53,1.75-5.86,3.36-4.22,8.4,7.36,22.61,14.25,45.38,21.23,68.11a9.39,9.39,0,0,0,4.43,5.64q48.55,29.26,97,58.72c3.31,2,4.69,1.69,6.78-1.56Q292.39,86.1,343.78,6.59c.86-1.34,1.51-2.89,3.39-3.78.83,2.25-.74,3.37-1.51,4.57q-46.51,72.25-93.1,144.44c-3.79,5.88-7.71,11.68-11.3,17.68-1.51,2.52-2.77,2.57-5.09,1.16q-50.58-30.74-101.26-61.32a7.49,7.49,0,0,1-3.41-4.62c-7.45-24.16-14.87-48.32-22.57-72.4-1.23-3.86-.17-5.09,3.25-6.43,19.05-7.47,38-15.16,57-22.8,1.35-.54,2.93-.69,3.83-2.08Z" transform="translate(-0.88 -0.91)"/><path class="cls-3" d="M1921,532l-51.34-74.43c-5.36-7.77-10.74-15.52-16.87-24.37-18,117.34-44.11,231.5-79.89,343.41,34.2-113.91,60.73-229.56,78.44-347.32,2.31.52,2.78,2.3,3.65,3.56q31.19,45.25,62.33,90.54c1.11,1.61,1.82,3.59,3.69,4.6Z" transform="translate(-0.88 -0.91)"/><path class="cls-4" d="M1921,955c-4.85,5.27-8.46,11.47-12.67,17.21-1.55,2.11-2.4,3.16-4.5.33q-26.11-35.32-52.47-70.46c-1.19-1.6-2.09-2.77.12-4.47q32.16-24.91,64.22-50c.32-.25.86-.22,1.81-.45-.62,2.83-2.88,3.73-4.48,5-18.6,14.57-37.19,29.16-56,43.48-3.93,3-4.62,4.81-1.33,9.11,16,20.86,31.62,42,47.17,63.2,2.7,3.69,3.85,3.06,6.18-.23,3.8-5.37,7-11.22,11.94-15.74Z" transform="translate(-0.88 -0.91)"/><path class="cls-4" d="M1921,348c-15.54,14.31-30.8,29-46.77,42.77-5.94,5.14-7.58,10.44-7.66,18a36.39,36.39,0,0,0,7.36,22.93c14.67,20.39,28.74,41.21,43,61.9,1.06,1.54,2.59,2.92,2.82,5-2.16.71-2.42-1-3.07-2q-25-36.09-50-72.2a9.11,9.11,0,0,1-1.76-5.54q.06-9.24-.14-18.48a6.34,6.34,0,0,1,2-5.34q25.91-23.83,51.72-47.77c.72-.67,1.4-1.46,2.56-1.28Z" transform="translate(-0.88 -0.91)"/><path class="cls-5" d="M1921,75c-2-.21-2.06-1.91-2.47-3.29q-9.62-32.7-19.2-65.41a12.61,12.61,0,0,1-.17-2.26c2.62.69,2.44,2.71,2.89,4.23,5.79,19.73,11.54,39.48,17.37,59.21.36,1.2.27,2.71,1.57,3.53Z" transform="translate(-0.88 -0.91)"/><path class="cls-2" d="M719.32,346.27c-.35-1.94-2-2.35-3.11-3.12Q678.65,317.54,641,292c-18.45-12.54-36.86-25.16-55.41-37.56-2.84-1.9-3.31-3.13-1.4-6.1Q629.5,178,674.47,107.44c2-3.19,3.34-2.89,6.05-1.14q98.39,63.56,196.93,126.86c4.38,2.81,4.38,4.49,1.63,8.56q-80.19,118.54-160,237.34c-2.51,3.74-4.06,3.72-7.6,1.45Q617,420.06,522.39,359.92c-3.13-2-4-3.3-1.6-6.82q28.36-41.73,56.25-83.78c2-3,3.28-2.9,6.08-1q62.5,41.78,125.18,83.28c1.49,1,3.11,3.59,5.07,1.93C715.73,351.51,717.39,348.69,719.32,346.27Z" transform="translate(-0.88 -0.91)"/><path class="cls-2" d="M1465.41,4.7c1.61-.82,2.14.63,2.82,1.36q49,52,98.08,104c2.72,2.88,2.73,4.66,0,7.67-22.7,25.29-45.2,50.76-67.78,76.16q-55.29,62.2-110.59,124.38-50,56.2-100,112.36c-9,10.08-18,20.09-26.83,30.32-2.05,2.38-3.45,2.69-6.09,1q-58.78-37.46-117.72-74.66c-3.4-2.14-2.76-3.34-.68-5.86q44.6-54.22,89-108.58Q1297.72,184.94,1369.79,97,1407.34,51.23,1445,5.51c.93-1.13,1.41-3.08,3.85-3-.24,2.45-2,3.8-3.3,5.35q-79.16,96.64-158.38,193.24Q1213.64,290.78,1140,380.34c-3,3.6-2.46,4.86,1.25,7.19q56,35.24,111.82,70.89c3.88,2.48,5.71,2.17,8.81-1.35,30.62-34.75,61.51-69.26,92.29-103.87q66.27-74.5,132.49-149Q1525,161,1563.53,118c2.75-3.06,3.17-4.67,0-8q-48.21-50.73-96-101.85C1466.66,7.24,1464.9,6.61,1465.41,4.7Z" transform="translate(-0.88 -0.91)"/><path class="cls-2" d="M946.82,639.51c-.66,1.09-1.33,2.24-2,3.36L844.05,802.55c-24,38-48,76-71.82,114.13-2.79,4.47-4.61,4.64-8.86,2Q652.89,849,542.15,779.76c-4-2.52-2.66-4.18-.87-6.91Q605.45,675.46,669.53,578c16.2-24.62,32.45-49.2,48.54-73.89,1.94-3,3.3-3.72,6.6-1.69Q834,569.63,943.49,636.64C944.71,637.38,946.34,637.71,946.82,639.51Z" transform="translate(-0.88 -0.91)"/><path class="cls-2" d="M712,491.17c-.75,1.22-1.5,2.5-2.31,3.74Q656.39,576.44,603.1,658q-34.69,53.1-69.28,106.28c-2,3-3.28,3.91-6.77,1.63q-92.62-60.5-185.47-120.65c-3.77-2.44-4.18-4-1.7-7.88q86-135,171.67-270.22c2.44-3.85,3.93-3.81,7.48-1.51q94.3,61.12,188.75,122C709.24,488.57,711.15,489.1,712,491.17Z" transform="translate(-0.88 -0.91)"/><path class="cls-2" d="M958.31,647c1.16.7,2.16,1.28,3.14,1.91q89.19,56.66,178.43,113.23c3.92,2.48,4.06,4.19,1.74,8q-85.11,138.26-169.92,276.7c-1.85,3-3.09,2.72-5.64,1.05q-92.49-60.76-185.12-121.33c-2.94-1.92-3.69-3.05-1.52-6.38q88-134.69,175.74-269.53C956,649.28,956.63,647.62,958.31,647Z" transform="translate(-0.88 -0.91)"/><path class="cls-6" d="M1117,387.48c-.89,1.41-1.4,2.27-2,3.1Q1036.88,507.24,958.84,624c-2.32,3.47-3.93,2.7-6.66,1Q851.89,564,751.54,503c-6.55-4-12.93-8.25-19.68-11.85-3.67-2-3.13-3.41-1.21-6.3q59.55-89.41,118.93-178.94c12.62-19,25.32-38,37.78-57.09,2.06-3.17,3.4-3.33,6.52-1.38Q1003,316,1112.34,384.3C1113.93,385.29,1115.43,386.42,1117,387.48Z" transform="translate(-0.88 -0.91)"/><path class="cls-2" d="M1462.38,602.07c-.64-.41-1.5-.89-2.29-1.46q-49.53-35.51-99.11-71c-3.38-2.4-2.87-3.81-.45-6.36q26.65-28.11,53.14-56.37,84.3-89.5,168.6-179,35.63-37.84,71.13-75.81c2.52-2.7,3.92-3.4,6.81-.19q32.22,35.88,64.87,71.38c2.77,3,2.68,4.65.14,7.65q-43.56,51.5-86.88,103.2-51.78,61.56-103.58,123.11-34.74,41.29-69.48,82.59C1464.55,600.71,1464,601.81,1462.38,602.07Z" transform="translate(-0.88 -0.91)"/><path class="cls-7" d="M1487.1,371.17q-24.49,25.67-49,51.34-44.41,46.41-88.81,92.83c-2.64,2.77-4.29,3.27-7.67,1-22-15.06-44.16-29.83-66.27-44.71-1.37-.92-2.7-1.91-4.38-3.1,9.82-11.16,19.48-22.14,29.16-33.12Q1358.47,369.2,1416.82,303q46.28-52.47,92.6-104.92c21.28-24.1,42.64-48.14,63.78-72.36,2.56-2.94,3.69-2.45,6,0Q1613,162.6,1647,199.18c2.53,2.71,1.46,4-.48,6q-45,46.86-90,93.8-29,30.32-58.06,60.67c-.8.83-1.72,1.55-2.58,2.33-.94.26-1.27-.31-1.45-1.08,2.29-5.34,6.74-9.09,10.64-13,13.21-13.18,25.85-26.92,38.85-40.3,16.59-17.08,33-34.31,49.53-51.49,14.65-15.25,29-30.78,43.92-45.78,8.34-8.39,8-8.22,0-16.83-15-16-30-32.13-44.72-48.43-4.46-4.94-9.4-9.45-13.54-14.69-1.81-2.29-3.42-2.45-5.61,0-12.49,13.85-24.67,28-37,41.91Q1520,191,1503.47,209.72q-17.13,19.51-34.34,39-17,19.25-34.07,38.53-16.22,18.31-32.32,36.75c-11.28,12.91-22.76,25.65-34.05,38.55q-20.72,23.67-41.6,47.21c-11.35,12.85-22.59,25.8-34.11,38.5-5.14,5.67-9.88,11.71-15.22,17.21-1.76,1.81-1.36,3.11.61,4.39,2.93,1.92,5.82,3.89,8.74,5.81,18,11.78,35.6,24.11,53.45,36.09,3.47,2.33,5.63,2.11,8.51-.87,19.37-20,38.48-40.17,57.82-60.16,13-13.4,25.92-26.82,38.63-40.47,11.69-12.55,24.14-24.37,35.47-37.27,1.39-1.58,2.73-3.47,5.25-3.4C1487,369.86,1487.5,370.27,1487.1,371.17Z" transform="translate(-0.88 -0.91)"/><path class="cls-2" d="M1734,294.64c1.43,0,1.87,1,2.51,1.72q44.67,47.88,89.37,95.74c2,2.15,2.46,3.09-.36,5.13-7.7,5.58-9.6,14.78-4.12,21.86,2.74,3.54,1.5,5.17-.79,7.64q-25,26.94-49.85,54l-175.18,190c-3.61,3.92-7.43,7.67-10.8,11.79-2.11,2.57-3.63,2.39-6.1.56q-38.15-28.24-76.43-56.32c-8.85-6.52-17.64-13.13-26.61-19.47-2.75-1.94-2.84-3.16-.67-5.73q84-99.43,167.91-199,44.29-52.54,88.52-105.12C1732.2,296.4,1733.15,295.49,1734,294.64Z" transform="translate(-0.88 -0.91)"/><path class="cls-2" d="M1128.35,395c1.71,1.06,2.84,1.74,4,2.45q83,52.4,166,104.73c3.28,2.06,3.61,3.58,1.61,6.85q-65.58,107.71-131,215.54c-5.18,8.54-10.54,17-15.46,25.67-2,3.47-3.54,3.67-6.78,1.62q-62.49-39.48-125.11-78.75c-17.62-11.08-35.2-22.2-52.9-33.16-3-1.84-3.74-3-1.5-6.33q78.6-116.29,157-232.74C1125.53,398.9,1127,397,1128.35,395Z" transform="translate(-0.88 -0.91)"/><path class="cls-2" d="M372.07,271c-1.46,2.27-2.78,4.38-4.15,6.46L258.27,443.3q-32.64,49.37-65.19,98.81c-2.18,3.33-3.5,4-7.13,1.6q-61.71-41.61-123.7-82.78c-3.33-2.21-3.49-3.68-1.31-6.92q89.24-132.3,178.24-264.77c1.88-2.8,3-3.92,6.5-1.66Q307.3,227.95,369.14,268C370.34,268.77,371.79,269.37,372.07,271Z" transform="translate(-0.88 -0.91)"/><path class="cls-2" d="M379.72,277.12c.92.55,1.93,1.12,2.91,1.75Q442.29,317.2,502,355.46c3.38,2.16,3,3.64,1.13,6.57q-64.45,100.46-128.73,201-21.8,34.07-43.52,68.2c-1.83,2.89-3,3.76-6.38,1.6q-59.87-38.47-120-76.53c-3.49-2.21-4.33-3.59-1.82-7.45Q285.43,421.3,367.91,293.53c3.07-4.75,6.12-9.52,9.22-14.26C377.72,278.35,378.11,277.08,379.72,277.12Z" transform="translate(-0.88 -0.91)"/><path class="cls-2" d="M1583,696.5c.83.49,1.7,1,2.54,1.51q75.89,49.12,151.81,98.19c3.19,2.06,2.26,3.39.46,5.7q-56.35,72.29-112.52,144.73c-7.67,9.91-12.27,21.7-18.25,32.63-8.54,15.62-16.83,31.39-25,47.19-1.58,3-2.71,3.64-5.83,1.7q-73.61-45.71-147.41-91.11c-3.62-2.23-2.26-3.77-.69-6.15q52.31-79.48,104.55-159,23.86-36.31,47.73-72.63C1581,698.23,1581.3,696.73,1583,696.5Z" transform="translate(-0.88 -0.91)"/><path class="cls-2" d="M1317.24,515.19c1.28.79,2.14,1.29,3,1.84q66.63,44.15,133.3,88.24c3.12,2.05,2.76,3.44,1,6.17q-35.33,53.29-70.45,106.73-41.51,63-83,126c-2.2,3.36-3.56,4-7.16,1.57q-64.43-43.4-129.15-86.37c-3.55-2.36-3.56-3.83-1.37-7.2q75.52-116.25,150.82-232.64C1315.17,518.07,1316.23,516.65,1317.24,515.19Z" transform="translate(-0.88 -0.91)"/><path class="cls-2" d="M526.86,782l-1.92,2.77q-59.14,85.43-118.22,170.9c-1.92,2.78-3.24,2.63-5.85.95q-91.47-59.08-183.1-117.9c-3.81-2.44-3.88-4-1.55-7.65q56.49-87.79,112.65-175.79c2.09-3.27,3.51-3.74,6.89-1.47q93.76,62.88,187.68,125.52C524.62,780.12,525.69,781.08,526.86,782Z" transform="translate(-0.88 -0.91)"/><path class="cls-2" d="M507.76,346c-1.12-.69-2.13-1.28-3.1-1.92q-57.26-37.51-114.57-75c-3.26-2.12-3.22-3.56-1.2-6.57Q467.67,145.46,546.17,28.15c2.3-3.43,3.81-2.77,6.6-1q54.72,34,109.6,67.83c3.53,2.16,3.42,3.61,1.43,6.75q-57.23,90-114.28,180.15Q530.26,312.21,511,342.58C510.13,343.89,509.65,345.67,507.76,346Z" transform="translate(-0.88 -0.91)"/><path class="cls-2" d="M667,1071.09q9-14.28,18.06-28.56,34.54-54.41,69.16-108.76c2-3.11,1.91-4.44-1.37-6.49Q648.1,862,543.6,796.38c-4-2.52-5.76-2.19-8.44,1.81q-53.46,79.64-107.36,159c-2.29,3.37-2.28,4.75,1.32,7.11q82.16,53.74,164.09,107.81c2,1.32,4.35,2.32,6.16,4.84-2.8.63-4.11-1.16-5.57-2.11q-79.57-52.23-159.07-104.55a71.74,71.74,0,0,0-7.57-4.84c-4.3-2.11-4.61-4.2-1.83-8.26,18.37-26.78,36.46-53.75,54.64-80.66q26.85-39.75,53.76-79.44c1.45-2.12,1.77-6,4.08-6.15s4.51,2.47,6.77,3.88L753,925.1c6.43,4,6.42,4,2.31,10.46q-41.89,66-83.79,132c-1,1.57-1.65,3.56-3.51,4.39Z" transform="translate(-0.88 -0.91)"/><path class="cls-2" d="M1417,928.47c-.85-.54-1.71-1-2.53-1.61q-52.17-36.5-104.38-73c-2.9-2-3.64-3.28-1.39-6.56q77.95-113.68,155.59-227.57c2.07-3,3.36-3.44,6.49-1.35Q1521,652,1571.52,685.17c3.08,2,3.83,3.37,1.55,6.83q-76.84,116.82-153.45,233.79C1419,926.81,1418.7,928.35,1417,928.47Z" transform="translate(-0.88 -0.91)"/><path class="cls-2" d="M1299.84,155.41c-1,1.34-2,2.83-3.1,4.26q-30.95,39.84-61.92,79.66-53.35,68.61-106.64,137.26c-2.06,2.66-3.3,3.05-6.26,1.19q-45.9-28.8-92.06-57.17c-4.71-2.88-2.15-4.83-.43-7.35L1190.74,76.87c5.7-8.36,5.73-8.4,13.5-1.92q46.44,38.69,92.83,77.42C1298.07,153.19,1299.44,153.68,1299.84,155.41Z" transform="translate(-0.88 -0.91)"/><path class="cls-2" d="M1113,1.67c8.64,7.21,16.9,14.08,25.13,21,15.44,13,30.75,26.07,46.39,38.78,3.5,2.85,3.35,4.52,1,7.89q-76.69,108.84-153.17,217.82c-4.69,6.68-9.46,13.3-14,20.06-1.67,2.47-2.81,3.36-5.81,1.35q-56-37.53-112.32-74.7c-3-2-2.61-3.2-.86-5.7q77.53-111,154.95-222.07c.92-1.32,1.48-3,3.47-3.77.84,2.81-1.46,4.25-2.61,5.91q-44.9,64.61-90,129.12-31.29,44.87-62.64,89.7c-2.17,3.09-2.19,4.57,1.17,6.79q54,35.63,107.76,71.63c3.1,2.08,4.39,1.82,6.52-1.21q82.6-117.81,165.46-235.44c1.92-2.72,1.94-4.11-.76-6.35q-34.23-28.39-68.19-57.1C1113.7,4.7,1112.2,4.44,1113,1.67Z" transform="translate(-0.88 -0.91)"/><path class="cls-2" d="M1019.54,1078.63c-2.29.88-3.62-.79-5.1-1.6-10.52-5.76-20.87-11.82-31.51-17.34-3.89-2-3.9-3.6-1.8-7q49.39-80.77,98.56-161.67,35.73-58.67,71.37-117.4c2.08-3.44,3.49-3.63,6.75-1.5q64.61,42.25,129.42,84.18c3,1.93,3.73,3,1.49,6.31q-73.41,106.58-146.59,213.32c-.8,1.17-1.37,2.62-3.07,3-.8-2,.66-3,1.43-4.08Q1212.41,970,1284.38,865.15c3.91-5.69,4-5.65-1.69-9.34q-61.78-40.19-123.5-80.45c-3.78-2.48-5.41-2.33-7.87,1.71Q1067.83,914.57,984,1051.84c-2.49,4.08-1.49,5.38,2.2,7.32,10.17,5.34,20.14,11.06,30.18,16.65C1017.54,1076.49,1019.11,1076.85,1019.54,1078.63Z" transform="translate(-0.88 -0.91)"/><path class="cls-2" d="M322.18,645.73c-.57.9-1.17,1.89-1.81,2.85Q262.6,736.69,204.89,824.85c-2.19,3.35-3.72,3.55-7,1.44q-61.32-39.9-122.83-79.5c-3.41-2.19-4.48-3.52-1.81-7.48q58.91-87.66,117.38-175.63c2.42-3.63,3.93-3.43,7.2-1.26Q258,602.32,318.27,642C319.72,642.94,321.73,643.43,322.18,645.73Z" transform="translate(-0.88 -0.91)"/><path class="cls-2" d="M321.63,1079.46c-.4-2.24,1-3.37,1.81-4.65q33.21-52.58,66.56-105.07c2.26-3.54,1.89-5-1.61-7.27Q298.9,905.39,209.63,848c-3.52-2.26-4.35-.47-5.91,1.89q-65.31,99-130.7,198c-5.69,8.62-11.36,17.24-17.13,25.8-.83,1.23-1.12,3.25-3.66,3.21-.13-1.9,1.24-3.05,2.07-4.31Q128.58,960,202.85,847.43c2.32-3.53,3.91-3.66,7.3-1.47q90.77,58.32,181.71,116.38c2.48,1.59,3.56,2.63,1.62,5.68q-34.63,54.34-69,108.83C323.88,1077.75,323.55,1079,321.63,1079.46Z" transform="translate(-0.88 -0.91)"/><path class="cls-2" d="M6.49,423.67c9.67,5.61,18.23,10.56,26.77,15.54,4.75,2.77,9.58,5.41,14.15,8.45,3.53,2.35,5.47,2.29,8.07-1.71q39.77-61.13,80-122Q181,254.65,226.58,185.4c2.44-3.69,2.12-5.16-1.61-7.47q-45.21-28-90.13-56.54c-3.66-2.32-6.59-2.52-10.57-.94q-55.89,22.2-111.93,44c-1.43.56-2.83,1.68-4.61,1.11-.07-2.23,1.69-2.06,2.7-2.46q58.05-22.84,116.13-45.62c2.34-.92,4.09-1.07,6.4.39q47.51,30,95.21,59.72c3.26,2,3.73,3.33,1.53,6.68Q142.89,316.13,56.4,448.18c-2.73,4.18-4.55,4.62-8.73,2-12-7.46-24.36-14.4-36.54-21.6C9.64,427.71,7.69,427.27,6.49,423.67Z" transform="translate(-0.88 -0.91)"/><path class="cls-2" d="M1036.72,6.45c1,2.3-1,3.46-1.87,4.81q-72.48,106.57-145,213.09c-1.87,2.74-3.05,3.4-6.11,1.31q-42.64-29.23-85.55-58.07c-3-2-2.43-3.36-.71-5.78q51.61-72.4,103.09-144.9C903.36,13,906.14,9,909,5.09c.62-.87,1-2.11,2.8-1.79,0,2.14-1.49,3.36-2.46,4.73Q855.06,84.41,800.67,160.66c-2.55,3.56-2,4.84,1.37,7.1q40.23,27,80.17,54.44c3.42,2.35,5,2.58,7.56-1.26q71.37-105.21,143.09-210.18C1033.92,9.22,1034.45,7.08,1036.72,6.45Z" transform="translate(-0.88 -0.91)"/><path class="cls-4" d="M1719.27,4.25c.86,1.92-.7,2.23-1.47,2.86Q1653.57,60,1589.23,112.69c-3.55,2.9-3.08,4.35-.39,7.18q29.73,31.38,59.27,62.94c7.19,7.64,7.23,7.62,15.05.73L1831.81,34.83Q1848.67,20,1865.55,5.1c1-.92,1.83-2.48,4.15-2-.46,1.94-2.09,2.83-3.31,3.91q-43.8,38.72-87.65,77.38-44.78,39.49-89.59,79c-10.37,9.14-20.8,18.21-31.09,27.44-2.16,1.94-3.26,2.24-5.5-.17q-33.36-35.85-67.08-71.37c-2.67-2.82-2.48-4.11.42-6.49q64.37-52.69,128.6-105.54C1715.92,6.09,1717.17,4.41,1719.27,4.25Z" transform="translate(-0.88 -0.91)"/><path class="cls-2" d="M3.55,850.87c-1-1.83.54-2.86,1.25-4,18.41-29.53,36.91-59,55.25-88.57,2-3.26,3.43-3.79,6.88-1.61q62.26,39.4,124.76,78.4c3.27,2,3.35,3.38,1.28,6.43q-78.15,114.8-156.16,229.69c-1.41,2.07-2.35,4.69-5.52,6.23.25-2.69,1.7-4.08,2.73-5.6q77.57-114.29,155.28-228.48c2.82-4.14,2.69-5.76-1.72-8.51q-60.21-37.49-120.09-75.51c-3.21-2-4.61-1.8-6.71,1.61C43,789.72,25,818.32,7,846.94,6.13,848.38,5.71,850.39,3.55,850.87Z" transform="translate(-0.88 -0.91)"/><path class="cls-3" d="M1727.55,832.95c.37,2.77-1,4.94-1.83,7.15q-40.65,113.68-81.34,227.36c-1.45,4.05-2.32,5.42-6.45,2.27-14.83-11.3-29.92-22.26-45-33.22-2.66-1.93-3.21-3.23-1.17-6.23Q1658,933.11,1724.1,835.79C1724.89,834.63,1725.48,833.12,1727.55,832.95Z" transform="translate(-0.88 -0.91)"/><path class="cls-2" d="M1340.33,1046.81c-.17-2.41,1.37-3.64,2.32-5.09q31.82-48.71,63.78-97.33c2.24-3.38,2.24-4.85-1.34-7.21q-50.89-33.51-101.47-67.48c-3.38-2.27-4.81-2.31-7.1,1.29q-50.69,79.32-101.68,158.46c-.84,1.3-1.17,3.21-3.28,3.47-1-1.78.51-2.8,1.23-3.91q51.75-80.72,103.53-161.42c1.64-2.56,2.78-3.3,5.69-1.35q53.34,35.68,106.89,71c2.62,1.73,2.7,2.89,1.06,5.37q-33.34,50.7-66.52,101.5C1342.76,1045.17,1342.45,1046.7,1340.33,1046.81Z" transform="translate(-0.88 -0.91)"/><path class="cls-7" d="M1720,771.94q-33-22.91-66-45.82c-18.72-13-37.37-26.13-56.14-39.07-2.87-2-3.31-3.16-.75-6q55.76-61,111.31-122.22,42-46.19,83.94-92.42c1.45-1.59,3-3,4.58-4.55a1.81,1.81,0,0,1,1.39,1.51c-1.51,4.24-5.09,7-8,10.07-11.75,12.7-23.32,25.58-34.95,38.39q-22.31,24.57-44.61,49.16-17.28,19-34.64,38-18.16,19.92-36.24,39.9c-11.31,12.43-22.58,24.89-34,37.27-1,1.1-2.14,2.1-3.14,3.22-3.5,4-3.45,4.63.83,7.64q52.11,36.64,104.41,73c4.56,3.19,9.88,5.55,13.21,10.36A1.53,1.53,0,0,1,1720,771.94Z" transform="translate(-0.88 -0.91)"/><path class="cls-2" d="M54.08,472.62c2-.73,3,.79,4.09,1.51q61.14,39.8,122.28,79.59c3.47,2.24,2.91,3.62,1,6.4Q124.34,645.74,67.42,731.51c-2.17,3.27-3.68,3.54-7,1.55C43.09,722.52,25.57,712.24,8.14,701.8c-1.24-.74-3.17-1-3.49-3.24,2.12-.52,3.32.89,4.6,1.65,16.92,10,33.86,19.95,50.64,30.17,3.41,2.08,4.91,1.46,7-1.7q55.8-84.11,111.9-168c2.4-3.59,1.22-4.8-1.71-6.7q-59.5-38.65-118.87-77.5C56.72,475.49,54.53,475,54.08,472.62Z" transform="translate(-0.88 -0.91)"/><path class="cls-8" d="M1798,463l-1-1.1,30.16-33.69,1.22.54a1536.88,1536.88,0,0,1-32,182.07,1549.06,1549.06,0,0,1-53.66,177.37L1720,771.94l1.15-1c4.3-.26,6.92,2.93,10,5.07,10.11,7.11,10,7.17,14.08-4.34q24.59-68.75,42.55-139.51A1526.25,1526.25,0,0,0,1820.68,463c1-7.59,2.15-15.17,3-22.78a5.7,5.7,0,0,0,0-3c-7.09,7.55-13.84,15.29-20.92,22.74C1801.37,461.38,1800.52,463.53,1798,463Z" transform="translate(-0.88 -0.91)"/><path class="cls-2" d="M680.29,1077.42c1.23-2.06,2.43-4.15,3.7-6.19q41.82-66.92,83.57-133.87c1.87-3,3-3.3,6-1.38q91.49,59,183.18,117.73c3.74,2.39,3.73,3.91,1.22,7-3.23,4-6,8.4-9,12.61-.87,1.23-1.85,2.38-2.77,3.57l-1.34-1c3.13-4.52,6.22-9.07,9.41-13.55,3.8-5.34,3.82-5.29-1.83-8.92Q864.19,996.7,775.95,940c-6.61-4.24-5.08-4-8.74,1.81q-41.23,65.82-82.29,131.73C683.91,1075.18,683.14,1077.07,680.29,1077.42Z" transform="translate(-0.88 -0.91)"/><path class="cls-2" d="M891.89,6.87c-.07,2.57-1.74,3.89-2.81,5.36q-51.47,71-103,141.89c-2.14,2.95-3.4,3.65-6.82,1.33q-45.69-31-91.73-61.4c-3.41-2.26-3.8-3.82-1.49-7.26,18.14-26.92,36.08-54,54.11-81,.88-1.31,1.51-2.93,3.38-3.77.74,2.4-.92,3.62-1.84,5Q715.3,46.76,688.76,86.39c-2.13,3.16-2.1,4.6,1.23,6.8q44.53,29.55,88.8,59.5c3.36,2.28,4.71,1.58,6.87-1.41q51-70.41,102.16-140.64C888.81,9.3,889.4,7.39,891.89,6.87Z" transform="translate(-0.88 -0.91)"/><path class="cls-4" d="M1428.75,3.77c-3,5.92-7.65,10.62-11.83,15.62q-53,63.49-106.06,126.9c-2.22,2.66-3.42,2.39-5.79.32q-48.41-42.18-97-84.19c-5.31-4.61-5.41-4.72-.65-9.89q22.18-24.08,44.53-48c.8-.86,1.32-2.4,3.1-2,.82,2.2-1.23,2.89-2.2,3.95Q1231,30.12,1209,53.66c-2.44,2.6-3.31,4.09,0,6.95q48.31,41.53,96.31,83.43c2.14,1.86,3.13,1.89,5-.38q56.33-67.53,112.85-134.91C1424.77,6.86,1426.1,4.7,1428.75,3.77Z" transform="translate(-0.88 -0.91)"/><path class="cls-2" d="M1541.61,1079.62c2.06-2.65,3.88-5.06,5.77-7.41,6.91-8.55,13.7-17.2,20.84-25.56,2.36-2.76,2.17-3.87-.88-5.75q-48.68-30-97.22-60.32c-15.14-9.41-30.33-18.72-45.35-28.31-3.26-2.08-4.71-1.8-6.75,1.52q-35.3,57.47-70.89,114.76c-1.21,1.95-1.83,4.55-5,5.71.24-2.59,1.69-4,2.66-5.62q36.47-59.1,73-118.19c1.73-2.82,2.92-3.09,5.69-1.36q73.33,45.77,146.78,91.32c2.28,1.42,3.73,2.44,1.43,5.21-9,10.91-17.88,22-26.82,32.94C1544.26,1079.29,1543.68,1080.23,1541.61,1079.62Z" transform="translate(-0.88 -0.91)"/><path class="cls-2" d="M340.53,1077.85c-.37-2.64,1-4,1.92-5.34,20.82-32.35,41.73-64.65,62.45-97.06,2.2-3.44,3.74-4,7.29-1.66q77.43,50.48,155,100.74c1.39.91,3.5,1.28,3.68,4-2.08-.12-3.37-1.47-4.8-2.39q-77-49.84-153.84-99.79c-3.09-2-4.37-1.81-6.4,1.37q-30.65,48-61.63,95.81C343.29,1074.9,342.62,1076.58,340.53,1077.85Z" transform="translate(-0.88 -0.91)"/><path class="cls-4" d="M1696.64,4.23c-.3,2.47-2.28,3.09-3.58,4.13Q1634.3,55.21,1575.49,102c-2.37,1.89-3.69,2.09-6-.45q-42.21-46.35-84.69-92.45c-1.27-1.39-3-2.55-3.39-5,2.47.12,3.3,2,4.41,3.17q41.76,45.4,83.36,91c2.74,3,4.27,2.85,7.16.54q57.54-46,115.23-91.77C1693,5.86,1694.25,4.14,1696.64,4.23Z" transform="translate(-0.88 -0.91)"/><path class="cls-2" d="M2.81,72.93c2.08-.91,3.63-1.67,5.24-2.29,28.22-11,56.45-21.87,84.64-32.92,3-1.19,4.44-1.35,5.6,2.37,6.34,20.32,13,40.55,19.58,60.78.87,2.66.77,4-2.27,5.13Q61.79,125.89,8.06,146c-1.16.43-2.32,1.49-4,.43,1-2.31,3.43-2.3,5.22-3q50.91-19.14,101.91-38c4.13-1.52,5.24-3,3.73-7.42-6.09-17.95-11.86-36-17.5-54.1-1.23-3.94-2.26-5.16-6.68-3.39C63.42,51.46,35.93,62,8.46,72.6,7,73.17,5.4,74.7,2.81,72.93Z" transform="translate(-0.88 -0.91)"/><path class="cls-4" d="M1744.35,286.25c2.14-.22,2.79,1.63,3.8,2.74q41.24,45.89,82.36,91.9c2.27,2.55,4.29,4,8,3.11a15.55,15.55,0,0,1,10.78.92c3.43,1.8,5.34.41,7.6-2q28.85-31.17,57.9-62.15c1.31-1.4,2.43-3.12,4.42-3.89,1.23,1.92-.44,2.58-1.19,3.39q-30.81,33.1-61.66,66.17c-1.81,2-3.1,2.75-5.81,1.18a17.07,17.07,0,0,0-13.57-1.32c-2.76.81-4.23.11-6-1.83q-36-40.21-72.07-80.33c-4.23-4.71-8.45-9.42-12.6-14.2C1745.45,288.91,1743.76,288.21,1744.35,286.25Z" transform="translate(-0.88 -0.91)"/><path class="cls-4" d="M726.47,2.94c.69,2.24-.81,3.19-1.56,4.31-16.72,25.07-33.58,50.05-50.18,75.21-2.55,3.87-4.33,3.81-8,1.47q-60-38.22-120.27-76.14c-1.29-.82-3.26-1.09-3.4-3.31,2-.83,3.09.8,4.35,1.59Q607.2,43.75,666.88,81.6c3.29,2.09,4.72,1.8,6.86-1.43q24.13-36.44,48.63-72.64C723.43,6,724,3.89,726.47,2.94Z" transform="translate(-0.88 -0.91)"/><path class="cls-2" d="M1696.86,977.61l-34.46,99.56-1.84-.64,35.56-103L1779,1073l-1.5,1.27Z" transform="translate(-0.88 -0.91)"/><path class="cls-4" d="M1919.58,829.3c-.7,2.34-2.76,3.33-4.34,4.64-24.48,20.31-49.06,40.51-73.46,60.92-2.93,2.45-4.14,1.74-6.12-.87q-32-42.16-64.25-84.2c-.66-.87-1.78-1.62-1.22-3.16,2.42-.07,3,2.16,4.05,3.53q30.87,40.23,61.52,80.63c2.49,3.29,4,3.15,6.88.74q36.06-30.09,72.31-59.95C1916.22,830.52,1917.16,828.48,1919.58,829.3Z" transform="translate(-0.88 -0.91)"/><path class="cls-4" d="M1909.21,156l-165,128.91-1.23-1.57,164.92-128.87Z" transform="translate(-0.88 -0.91)"/><path class="cls-4" d="M1766.52,802.42l152.76-123.2,1.25,1.54L1767.77,804Z" transform="translate(-0.88 -0.91)"/><path class="cls-4" d="M1776.06,773.06l140.69-113.2,1.26,1.56-140.69,113.2Z" transform="translate(-0.88 -0.91)"/><path class="cls-4" d="M2.55,715.44c5.81,3.5,10.59,6.35,15.35,9.25q16.2,9.88,32.38,19.79c1.93,1.17,3.75,2,1.92,4.89Q28.76,786.54,5.51,823.82c-.23.36-.72.55-1.3,1-1.32-2.29.6-3.49,1.41-4.79q21.49-34.56,43.18-69c1.82-2.88,1.84-4.13-1.31-6-13.61-8-27-16.38-40.5-24.69C5.54,719.45,3.53,719,2.55,715.44Z" transform="translate(-0.88 -0.91)"/><path class="cls-4" d="M118,4.36,2.88,50.12l-.74-1.85L117.27,2.52Z" transform="translate(-0.88 -0.91)"/><path class="cls-9" d="M3.2,525.48c-.06-3.07,1.44-4.31,2.42-5.76,11.63-17.25,23.17-34.58,35.07-51.64,2.67-3.83,1.91-5.29-1.75-7.45-10.46-6.18-20.7-12.73-31-19.18-1.21-.76-2.85-1.11-3.26-2.86,1.45-1.49,2.47,0,3.42.6,11.76,7.26,23.45,14.62,35.2,21.88,1.91,1.18,3.17,2,1.45,4.52C31.5,485,18.36,504.4,5.16,523.82A12.54,12.54,0,0,1,3.2,525.48Z" transform="translate(-0.88 -0.91)"/><path class="cls-9" d="M1151.43,14.71c4.94,4,9.9,8.08,14.82,12.15,8.07,6.68,16.24,13.25,24.11,20.15,2.65,2.32,3.95,1.6,6-.57q18.52-19.91,37.27-39.63c1-1.1,1.73-2.92,4-2.74.19,1.56-.95,2.38-1.77,3.25Q1216,28.44,1196.19,49.5c-1.34,1.43-2.26,3.08-4.74,1-13.19-11.18-26.56-22.16-39.85-33.23a8.06,8.06,0,0,1-1.13-1.51Z" transform="translate(-0.88 -0.91)"/><path class="cls-9" d="M1562.37,1074.2c5.47-7.92,10.36-15,15.22-22a2.16,2.16,0,0,1,3.38-.69q20.85,13.17,41.71,26.34c.19.12.16.6.27,1.1-1.68.92-2.69-.49-3.79-1.17-11.71-7.29-23.46-14.51-35-22-3.37-2.18-5.37-2.69-7.66,1.4-2.67,4.76-6.13,9.09-9.3,13.56C1566.25,1072,1565.78,1073.78,1562.37,1074.2Z" transform="translate(-0.88 -0.91)"/><path class="cls-10" d="M1854.8,409.81c.1,6.74-6.25,13-13.25,13a13.63,13.63,0,0,1-13.4-12.89c-.15-6.79,6.09-12.88,13.22-12.94S1854.7,403,1854.8,409.81Z" transform="translate(-0.88 -0.91)"/><path class="cls-11" d="M994.88,1080.29c-5.47-3.21-11.18-6.08-16.32-9.74-4.18-3-6.51-2.44-8.71,2-.94,1.89-1.91,4.09-5.21,5.69,1.91-5.38,5.15-8.7,7.49-12.5.54-.87,1.46-.45,2.2,0l21.51,12.91Z" transform="translate(-0.88 -0.91)"/><path class="cls-12" d="M1494.91,360.79,1496,362a61.6,61.6,0,0,1-8.86,9.2L1486,370C1487.23,365.25,1490.52,362.49,1494.91,360.79Z" transform="translate(-0.88 -0.91)"/><path class="cls-1" d="M879.09,237.79c-.94,1.45-1.91,3-2.93,4.5L777,389.36q-29.47,43.71-58.88,87.45c-2.05,3.07-3.44,3.4-6.6,1.38q-93-59.54-186.16-118.77c-3.79-2.41-3.88-3.85-1.46-7.41q27-39.66,53.46-79.65c2.14-3.22,3.53-3.16,6.51-1.16,41.67,27.87,83.46,55.56,125.09,83.48,3.45,2.31,5,2,7.41-1.24,6.19-8.33,6.38-8.22-1.83-13.81q-62.8-42.71-125.66-85.32c-3.39-2.29-3.76-3.7-1.5-7.2q43.56-67.62,86.71-135.5c2.52-4,4.1-4.47,8.21-1.81q96.44,62.48,193.09,124.63C876.74,235.28,878.51,235.77,879.09,237.79Z" transform="translate(-0.88 -0.91)"/><path class="cls-1" d="M721.45,503.1c1.56.88,2.6,1.41,3.59,2q107.77,66,215.58,131.93c3.17,1.93,3.56,3.21,1.52,6.44Q856.3,779.23,770.75,915.16c-2.14,3.41-3.55,3.45-6.73,1.45Q658.55,850.21,553,784c-3.79-2.38-9.64-4.31-10.61-7.6s4-7.46,6.46-11.18q84.65-128.78,169.37-257.53C719.22,506.11,720.37,504.61,721.45,503.1Z" transform="translate(-0.88 -0.91)"/><path class="cls-1" d="M530.4,765.34c-1.47-.87-2.48-1.42-3.44-2Q435.25,703.65,343.5,644.06c-3.09-2-3.46-3.26-1.43-6.44q85.22-133.75,170.11-267.72c2.59-4.09,4.23-3.56,7.53-1.42q92.88,60.14,185.92,120c3.4,2.19,3.57,3.6,1.45,6.84q-86.89,132.7-173.6,265.51C532.52,762.35,531.48,763.78,530.4,765.34Z" transform="translate(-0.88 -0.91)"/><path class="cls-1" d="M1141.12,766.72c-.66,1.09-1.34,2.23-2,3.36l-103.72,169Q1003.5,991,971.69,1042.94c-2.15,3.53-3.47,4-7.05,1.63q-90.09-59.34-180.44-118.3c-3.68-2.4-3.88-3.85-1.51-7.47Q868.46,787.52,954,656.06a23,23,0,0,0,1.89-2.93c1.6-3.55,3.49-3.31,6.55-1.34,24.09,15.48,48.29,30.79,72.46,46.14q51,32.4,102,64.82C1138.46,763.74,1140.72,764.2,1141.12,766.72Z" transform="translate(-0.88 -0.91)"/><path class="cls-13" d="M1113.8,388.55c-.56.92-1.12,1.93-1.76,2.9q-77,115-153.88,230c-2.44,3.65-4.08,2.33-6.59.81q-68.48-41.67-137-83.27c-26.46-16.08-52.87-32.25-79.44-48.16-3.66-2.19-3.77-3.55-1.49-7q65.54-98.29,130.83-196.75c7.92-11.93,15.88-23.84,23.68-35.85,1.62-2.5,2.63-3.37,5.68-1.46Q1002.3,318,1110.93,385.88C1112,386.55,1113.48,386.84,1113.8,388.55Z" transform="translate(-0.88 -0.91)"/><path class="cls-1" d="M1656.41,211.32c1.45,1.38,2.2,2,2.85,2.72,21.17,23.3,42.27,46.65,63.55,69.85,2.58,2.81,2.08,4.37-.12,7q-71,84.21-141.86,168.56-57.9,68.81-115.75,137.65c-2.32,2.76-3.67,2.06-5.94.43q-44.4-31.94-88.84-63.83c-3.18-2.29-8.48-3.78-8.74-7.42-.23-3.22,4.55-5.71,7.16-8.48Q1458.93,421.86,1549.2,326q52.05-55.31,104-110.69C1654.36,214.13,1655.28,212.76,1656.41,211.32Z" transform="translate(-0.88 -0.91)"/><path class="cls-1" d="M1494.91,360.79A61.29,61.29,0,0,0,1486,370q-26,27-52.06,53.93-33.61,35-67.12,70c-6.34,6.62-12.75,13.17-19,19.9-1.85,2-3.1,2.09-5.37.55q-32.66-22.16-65.52-44c-2.74-1.82-2.62-2.85-.55-5.18q65.27-73.71,130.38-147.57,76.7-87,153.34-174c4.52-5.12,9.22-10.09,13.55-15.37,2-2.41,3.07-2.06,5,0q26.56,28.88,53.27,57.63c4,4.28,7.86,8.62,12,12.76,2.35,2.36,2.42,4,0,6.52q-33.53,34.68-66.81,69.6Q1535.93,317.72,1494.91,360.79Z" transform="translate(-0.88 -0.91)"/><path class="cls-1" d="M1825.64,395.14a7.24,7.24,0,0,0-2.32,1c-8.19,8.53-9.14,14.57-3.36,24.51,1.51,2.6,0,3.58-1.26,5l-47.77,51.79q-93,100.85-185.9,201.77c-2.64,2.87-4.29,2.86-7.31.63q-49.19-36.4-98.61-72.49c-3.27-2.39-3.22-3.87-.69-6.86q41.68-49.16,83.12-98.53l115.9-137.54q27.21-32.28,54.37-64.6c2-2.43,3.07-2.41,5.23-.09q41.83,45,83.84,89.91C1822.25,391.15,1823.51,392.69,1825.64,395.14Z" transform="translate(-0.88 -0.91)"/><path class="cls-1" d="M1299,506.22c-.69,1.23-1.37,2.55-2.14,3.82q-52.73,86.89-105.47,173.77c-12.87,21.2-25.83,42.36-38.52,63.67-2.09,3.5-3.61,3.57-6.82,1.55q-87.24-55-174.67-109.75c-3.51-2.19-3-3.6-1.08-6.42q78.11-115.73,156-231.58c1.8-2.67,3-3.48,6.12-1.48q81.38,51.67,162.91,103.11C1296.68,503.74,1298.5,504.15,1299,506.22Z" transform="translate(-0.88 -0.91)"/><path class="cls-1" d="M369.16,271.68c-.74,1.2-1.5,2.48-2.33,3.72L249.48,453c-19,28.76-38.07,57.48-56.94,86.33-2.22,3.39-3.64,4-7.22,1.59Q125.24,500.4,64.9,460.32c-3.38-2.25-3.33-3.64-1.21-6.78Q151.82,322.85,239.73,192c1.73-2.57,2.68-4.24,6.33-1.84,39.68,26,79.51,51.84,119.28,77.76C366.77,268.87,368.85,269.31,369.16,271.68Z" transform="translate(-0.88 -0.91)"/><path class="cls-1" d="M380.34,279.94c1,.59,2,1.14,3,1.77q58.2,37.37,116.45,74.67c3.53,2.25,2.09,3.82.58,6.18q-60.21,94-120.34,188c-16.6,25.94-33.26,51.84-49.69,77.89-2.21,3.5-3.71,3.34-6.84,1.34q-58.23-37.32-116.67-74.31c-3.82-2.41-3.39-4-1.32-7.21q46.09-71,92-142.13,39.58-61.23,79.18-122.45C377.59,282.26,378.07,280.26,380.34,279.94Z" transform="translate(-0.88 -0.91)"/><path class="cls-1" d="M1736.94,799.47c-.75,1.05-1.49,2.16-2.3,3.2L1623,946.25c-5.46,7-8.78,15.28-13,23q-14.65,27-28.74,54.29c-1.86,3.61-3.18,3.44-6.27,1.53q-70.67-43.86-141.52-87.41c-4.16-2.55-4.94-4.13-2-8.57Q1506,816.35,1580,703.28c2.26-3.45,3.61-4.29,7.49-1.76q72.8,47.5,145.84,94.64C1734.63,797,1736.43,797.49,1736.94,799.47Z" transform="translate(-0.88 -0.91)"/><path class="cls-1" d="M1453.72,608.67c-.68,1.08-1.36,2.22-2.09,3.32q-37.12,56.29-74.24,112.57Q1339,782.73,1300.8,841c-2.44,3.74-4,4.33-7.94,1.7q-62.54-42.15-125.36-83.87c-3.07-2-3.81-3.38-1.56-6.86Q1240.64,637,1315,521.84c2-3.11,3.33-3.78,6.72-1.51q64,42.7,128.14,85.1C1451.24,606.32,1452.89,606.92,1453.72,608.67Z" transform="translate(-0.88 -0.91)"/><path class="cls-1" d="M523.85,782.71c-.74,1.13-1.36,2.11-2,3.07L418.59,934.87c-4,5.75-8.16,11.37-11.89,17.28-2,3.21-3.51,3.64-6.85,1.47C368.44,933.19,336.9,913,305.4,892.68Q263,865.36,220.54,838.1c-3.32-2.12-4.17-3.59-1.8-7.26q54.89-85.26,109.52-170.7c3.95-6.16,4-6.14,10-2.13L520.16,779.58C521.48,780.46,523.06,781.11,523.85,782.71Z" transform="translate(-0.88 -0.91)"/><path class="cls-1" d="M550,27.94c1,.57,2,1.14,3,1.75q53.07,32.87,106.2,65.67c3.44,2.11,4.06,3.47,1.77,7.07q-63.4,99.66-126.55,199.49c-8,12.66-16.12,25.26-24,38-1.82,3-2.93,3.83-6.32,1.6Q448.69,304.89,393,268.68c-2.94-1.92-3.74-3.09-1.53-6.38Q469,147.08,546.31,31.75C547.25,30.33,547.77,28.31,550,27.94Z" transform="translate(-0.88 -0.91)"/><path class="cls-1" d="M1572.28,689.29c-.65,1-1.27,2-1.9,3Q1494.9,807.34,1419.5,922.46c-1.88,2.88-3.08,3.4-6,1.34q-50.26-35.35-100.73-70.4c-3.29-2.28-3.3-3.69-1.16-6.82q76.68-111.87,153.09-223.93c2.23-3.27,3.64-3.46,6.83-1.32q48.61,32.46,97.38,64.66C1570.19,686.84,1572,687.24,1572.28,689.29Z" transform="translate(-0.88 -0.91)"/><path class="cls-1" d="M1296.93,156.05c-.52.69-1.12,1.48-1.73,2.26l-125.34,161.3c-14,18-28.05,36-41.93,54.07-2.11,2.75-3.45,3.35-6.69,1.32q-44-27.65-88.2-54.86c-3.22-2-3.78-3.25-1.48-6.61q81.36-118.91,162.41-238c2.22-3.27,3.58-3.65,6.68-1q46.68,39.18,93.53,78.14C1295.26,153.49,1296.92,154,1296.93,156.05Z" transform="translate(-0.88 -0.91)"/><path class="cls-1" d="M319.79,645.68c-.95,1.5-1.73,2.77-2.54,4L232.61,778.78c-9.5,14.48-19.08,28.91-28.4,43.5-1.93,3-3.18,3.68-6.42,1.57Q137.52,784.58,77,745.64c-2.82-1.82-3.47-3-1.41-6.11q58.14-86.72,116-173.63c2-3,3.36-2.95,6.18-1.08q59.33,39.34,118.79,78.47C317.65,644,318.64,644.82,319.79,645.68Z" transform="translate(-0.88 -0.91)"/><path class="cls-1" d="M1721.26,846.16q-17.22,48.39-34.45,96.78c-14.49,40.54-29.1,81-43.49,121.62-1.41,4-2.28,5.08-6.14,2.15-13.51-10.27-27.21-20.3-41-30.21-3.2-2.3-3.75-3.77-1.33-7.3q62.8-91.92,125.3-184.05C1721.1,844.86,1721.5,845.15,1721.26,846.16Z" transform="translate(-0.88 -0.91)"/><path class="cls-14" d="M1721.26,846.16l-1.1-1a6.82,6.82,0,0,1,2.56-3.46C1723.06,843.56,1722.18,844.87,1721.26,846.16Z" transform="translate(-0.88 -0.91)"/><path class="cls-1" d="M1798,463l27.95-30.15a1542.53,1542.53,0,0,1-84.11,352l-20.64-13.86c-14.81-10.47-29.57-21-44.42-31.38-24.82-17.38-49.62-34.78-74.61-51.92-4-2.76-4.52-4.34-1.09-8,17.77-19.18,35.29-38.59,52.89-57.93q71.63-78.7,143.24-157.42A8.46,8.46,0,0,0,1798,463Z" transform="translate(-0.88 -0.91)"/><path class="cls-1" d="M1841.55,420.8c-5.86.05-11.43-5.33-11.36-11a11.32,11.32,0,0,1,11-10.75c6.07-.12,11.45,4.8,11.63,10.61C1852.94,415.32,1847.46,420.74,1841.55,420.8Z" transform="translate(-0.88 -0.91)"/></svg>