<svg width="37" height="37" viewBox="0 0 37 37" fill="none" xmlns="http://www.w3.org/2000/svg">
<path d="M6.60156 36.9062H30.293C34.3945 36.9062 36.4258 34.875 36.4258 30.8516V7.00391C36.4258 2.98047 34.3945 0.949219 30.293 0.949219H6.60156C2.51953 0.949219 0.46875 2.96094 0.46875 7.00391V30.8516C0.46875 34.8945 2.51953 36.9062 6.60156 36.9062ZM28.8281 18.8789C28.8281 19.3281 28.6328 19.6797 28.2422 20.0508L21.4453 26.8672C21.1719 27.1406 20.8203 27.2969 20.3906 27.2969C19.5508 27.2969 18.9258 26.6523 18.9258 25.8125C18.9258 25.3828 19.1016 25.0117 19.375 24.7383L21.8945 22.2578L24.3164 20.2266L20.0586 20.3828H9.58984C8.71094 20.3828 8.08594 19.7578 8.08594 18.8789C8.08594 17.9805 8.71094 17.3555 9.58984 17.3555H20.0586L24.3164 17.5312L21.8945 15.5L19.375 13.0195C19.1211 12.7266 18.9258 12.3555 18.9258 11.9258C18.9258 11.0859 19.5508 10.4609 20.3906 10.4609C20.8203 10.4609 21.1719 10.5977 21.4453 10.8711L28.2422 17.707C28.6523 18.1172 28.8281 18.4297 28.8281 18.8789Z" fill="#C4C4C4"/>
</svg>
