<svg width="41" height="41" viewBox="0 0 41 41" fill="none" xmlns="http://www.w3.org/2000/svg">
<path d="M20.418 40.8203C31.3164 40.8203 40.3398 31.7773 40.3398 20.8984C40.3398 10 31.2969 0.976562 20.3984 0.976562C9.51953 0.976562 0.496094 10 0.496094 20.8984C0.496094 31.7773 9.53906 40.8203 20.418 40.8203ZM20.2422 13.7695C18.7773 13.7695 17.6055 12.5977 17.6055 11.1133C17.6055 9.62891 18.7773 8.45703 20.2422 8.45703C21.707 8.45703 22.8594 9.62891 22.8594 11.1133C22.8594 12.5977 21.707 13.7695 20.2422 13.7695ZM16.9023 32.0117C16.0625 32.0117 15.418 31.4062 15.418 30.5664C15.418 29.7852 16.0625 29.1406 16.9023 29.1406H19.3828V19.9609H17.2344C16.4141 19.9609 15.7695 19.3555 15.7695 18.5156C15.7695 17.7344 16.4141 17.0898 17.2344 17.0898H21.0234C22.0586 17.0898 22.6055 17.832 22.6055 18.9258V29.1406H25.0859C25.9258 29.1406 26.5703 29.7852 26.5703 30.5664C26.5703 31.4062 25.9258 32.0117 25.0859 32.0117H16.9023Z" fill="#C4C4C4"/>
</svg>
