<svg width="41" height="41" viewBox="0 0 41 41" fill="none" xmlns="http://www.w3.org/2000/svg">
<path d="M20.7739 40.8203C31.6724 40.8203 40.6958 31.7773 40.6958 20.8984C40.6958 10 31.6528 0.976562 20.7544 0.976562C9.87549 0.976562 0.852051 10 0.852051 20.8984C0.852051 31.7773 9.89502 40.8203 20.7739 40.8203ZM11.8677 20.918C11.8677 19.9023 12.5903 19.1992 13.606 19.1992H19.0747V13.7305C19.0747 12.7148 19.7583 11.9922 20.7544 11.9922C21.77 11.9922 22.4731 12.6953 22.4731 13.7305V19.1992H27.9614C28.9575 19.1992 29.6802 19.9023 29.6802 20.918C29.6802 21.9141 28.9575 22.5781 27.9614 22.5781H22.4731V28.0859C22.4731 29.082 21.77 29.7852 20.7544 29.7852C19.7583 29.7852 19.0747 29.082 19.0747 28.0859V22.5781H13.606C12.5903 22.5781 11.8677 21.9141 11.8677 20.918Z" fill="#C4C4C4"/>
</svg>
