<svg xmlns="http://www.w3.org/2000/svg" id="Ebene_1" data-name="Ebene 1" viewBox="0 0 841.98 594.79"><defs><style>.cls-1{fill:#fff}.cls-2{fill:#010101}.cls-3{fill:#144693}.cls-4{fill:#114794}.cls-5{fill:#0c4b99}.cls-6{fill:#0a4b95}</style></defs><title>404</title><path d="M421.42,595.18q-209.39,0-418.78,0c-1.8,0-2.21-.4-2.2-2.2Q.51,297.83.44,2.64c0-1.8.4-2.2,2.2-2.2q418.78.07,837.57,0c1.8,0,2.21.4,2.2,2.2q-.07,295.19,0,590.38c0,1.8-.4,2.21-2.2,2.21Q630.82,595.15,421.42,595.18Z" class="cls-1" transform="translate(-0.44 -0.44)"/><path d="M444,282.74c-1,13.85-5.71,26.19-15.51,36.17-10.71,10.91-24,15-39.11,13.91-13-1-24-6.25-32.37-16.32a50.7,50.7,0,0,1-11.26-27c-1.68-13.86-.13-27.24,6.58-39.7,9.62-17.86,28.07-27.39,48.24-25.36,10.32,1,19.52,4.44,27.24,11.43,9,8.11,13.84,18.39,15.68,30.22.26,1.65.35,3.33.52,5A83.27,83.27,0,0,1,444,282.74Z" class="cls-2" transform="translate(-0.44 -0.44)"/><path d="M327.3,313.61a29.19,29.19,0,0,0,.18,4.31c.38,2.05-.25,2.57-2.27,2.22-5.07-.86-10.22-.31-15.31-.75-1.79-.15-2.3.33-2.28,2.18.09,11.44,0,22.87.1,34.31,0,2.15-.54,2.71-2.65,2.6-3.83-.18-7.68-.14-11.51,0-1.66.06-2-.5-2-2,.06-11.52,0-23,.08-34.55,0-2-.35-2.7-2.58-2.69-15.43.12-30.87.08-46.31,0-1.1,0-2.89.73-3.19-.51a5.71,5.71,0,0,1,.63-5c4.31-5.85,8.47-11.81,12.7-17.72q25.1-35.06,50.22-70.11c.45-.63.72-1.43,1.59-1.69,2.08-.62,2.93.05,2.93,2.37q0,38.39,0,76.78c0,2,.48,2.68,2.48,2.44,1.74-.21,3.51,0,5.26-.3,5.3-1,6.83-2.55,7.7-7.93.2-1.22.41-2,2-2s2,.53,1.92,2c-.11,3,0,6.08,0,9.12C327.42,309,326.77,311.33,327.3,313.61Z" class="cls-2" transform="translate(-0.44 -0.44)"/><path d="M546.17,313.61a29.19,29.19,0,0,0,.18,4.31c.38,2.05-.25,2.57-2.27,2.22-5.07-.86-10.22-.31-15.31-.75-1.79-.15-2.3.33-2.28,2.18.09,11.44,0,22.87.1,34.31,0,2.15-.54,2.71-2.65,2.6-3.83-.18-7.68-.14-11.51,0-1.66.06-2-.5-2-2,.06-11.52,0-23,.08-34.55,0-2-.35-2.7-2.58-2.69-15.43.12-30.87.08-46.31,0-1.1,0-2.89.73-3.19-.51a5.71,5.71,0,0,1,.63-5c4.31-5.85,8.47-11.81,12.7-17.72q25.1-35.06,50.22-70.11c.45-.63.72-1.43,1.59-1.69,2.08-.62,2.93.05,2.93,2.37q0,38.39,0,76.78c0,2,.48,2.68,2.48,2.44,1.74-.21,3.51,0,5.26-.3,5.3-1,6.82-2.55,7.7-7.93.2-1.22.41-2,2-2s2,.53,1.92,2c-.11,3,0,6.08,0,9.12C546.29,309,545.64,311.33,546.17,313.61Z" class="cls-2" transform="translate(-0.44 -0.44)"/><path d="M444,282.74q0-5.83,0-11.66A34,34,0,0,1,444,282.74Z" class="cls-3" transform="translate(-0.44 -0.44)"/><path d="M327.3,313.61c-.87-2.26-.35-4.59-.36-6.89A29.8,29.8,0,0,1,327.3,313.61Z" class="cls-4" transform="translate(-0.44 -0.44)"/><path d="M546.17,313.61c-.87-2.26-.35-4.59-.36-6.89A29.81,29.81,0,0,1,546.17,313.61Z" class="cls-4" transform="translate(-0.44 -0.44)"/><path d="M365.23,269.26c.68-9.7,2.78-19,7.68-27.52,5.18-9,12.56-14.62,23.47-13.68,10.07.86,17.06,6.46,21.7,15.21a56.07,56.07,0,0,1,6,20.53c1.4,13,1.18,26-2.2,38.74-1.81,6.84-4.58,13.25-9.36,18.63-10.45,11.77-25.71,9.5-34.76,1.07-7-6.5-9.71-15.15-11.53-24.17a37.75,37.75,0,0,1-1-8.45c-.43-1,.08-2-.37-3V272.3C365.29,271.33,364.76,270.23,365.23,269.26Z" class="cls-1" transform="translate(-0.44 -0.44)"/><path d="M365.23,269.26a5.28,5.28,0,0,1-.37,3C364.8,271.27,364.5,270.2,365.23,269.26Z" class="cls-5" transform="translate(-0.44 -0.44)"/><path d="M364.85,286.62a5.45,5.45,0,0,1,.37,3C364.45,288.7,364.82,287.64,364.85,286.62Z" class="cls-6" transform="translate(-0.44 -0.44)"/><path d="M251.64,305.75c3-4.38,38.43-55,39.77-56,.48.65.2,1.38.2,2,0,17.2,0,34.39.06,51.59,0,1.83-.39,2.4-2.33,2.39-11.92-.1-23.83-.05-35.75-.05Z" class="cls-1" transform="translate(-0.44 -0.44)"/><path d="M470.36,305.75,510,249.61c.78.65.44,1.34.44,1.91,0,17.28,0,34.55.07,51.82,0,2.06-.58,2.46-2.52,2.45C495.64,305.7,483.25,305.75,470.36,305.75Z" class="cls-1" transform="translate(-0.44 -0.44)"/></svg>