<svg id="Ebene_1" data-name="Ebene 1" xmlns="http://www.w3.org/2000/svg" viewBox="0 0 282.25 211.78"><defs><style>.cls-1{fill:#fff;}.cls-2{fill:#919191;}</style></defs><title>1</title><path class="cls-1" d="M141.28,211.92q-70.17,0-140.35,0c-.64,0-.78-.14-.78-.78Q.18,106,.15.93C.15.3.3.15.93.15q140.35,0,280.7,0c.63,0,.78.14.78.78q0,105.11,0,210.23c0,.63-.14.78-.78.78Q211.45,211.91,141.28,211.92Z" transform="translate(-0.15 -0.15)"/><path class="cls-2" d="M141.28,177.67H71.58c-1.71,0-2.07-.36-2.07-2.1q0-69.53,0-139.06c0-1.74.36-2.1,2.07-2.1.93,0,1.86,0,2.79,0,1.1,0,1.54.45,1.57,1.53,0,.28,0,.56,0,.85q0,65.85,0,131.69c0,.23,0,.45,0,.68,0,1.7.39,2.07,2.11,2.07H209.41c.79,0,1.58,0,2.37,0a1.22,1.22,0,0,1,1.33,1.31q0,1.86,0,3.73a1.28,1.28,0,0,1-1.29,1.38,8.2,8.2,0,0,1-.85,0Z" transform="translate(-0.15 -0.15)"/><path class="cls-2" d="M183.66,89l18.77-5.72L198,102.37c-1-.91-1.87-1.75-2.78-2.58-.5-.46-1-1.19-1.53-1.23s-.92.8-1.37,1.27q-15.55,16.64-31.09,33.29c-.94,1-1.82,2.08-2.7,3.15-.3.37-.48.4-.83,0q-9.79-10-19.6-20c-.47-.48-1-1-1.41-1.47-.28-.31-.48-.38-.81,0q-8.39,9-16.8,18l-10.75,11.51q-6.53,7-13,14c-.41.44-.64.44-1.07,0-1.55-1.49-3.12-2.95-4.7-4.39-.39-.35-.46-.57-.06-1,3.73-4,7.44-8,11.16-11.94l32.94-35.28c.65-.7,1.35-1.37,2-2.11.43-.53.68-.6,1.21-.06q7.87,8.11,15.8,16.17c1.6,1.63,3.21,3.25,4.78,4.92.45.48.66.43,1.09,0q14.51-15.58,29.07-31.13c.44-.47.33-.69-.07-1.06C186.18,91.37,185,90.24,183.66,89Z" transform="translate(-0.15 -0.15)"/></svg>