<svg xmlns="http://www.w3.org/2000/svg" id="Ebene_1" data-name="Ebene 1" viewBox="0 0 282.15 211.87"><defs><style>.cls-1{fill:#fff}.cls-2{fill:#b89e25}</style></defs><title>2</title><path d="M141.23,212Q71.08,212,.93,212c-.63,0-.78-.14-.78-.78Q.18,106.09.15.93C.15.3.3.15.93.15q140.29,0,280.59,0c.63,0,.78.14.78.78q0,105.16,0,210.32c0,.63-.14.78-.78.78Q211.37,212,141.23,212Z" class="cls-1" transform="translate(-0.15 -0.15)"/><path d="M141.27,177.61H71.6c-1.79,0-2.11-.32-2.11-2.13q0-69.47,0-138.93c0-1.82.31-2.14,2.1-2.14,1,0,1.92,0,2.88,0A1.36,1.36,0,0,1,76,35.87c0,.28,0,.56,0,.85q0,66.08,0,132.16c0,.34,0,.68,0,1a1.22,1.22,0,0,0,1.16,1.24,6.67,6.67,0,0,0,1,0H210.82c.34,0,.68,0,1,0a1.16,1.16,0,0,1,1.19,1.18c0,1.33,0,2.65,0,4a1.22,1.22,0,0,1-1.15,1.25,5.53,5.53,0,0,1-.93,0Z" class="cls-2" transform="translate(-0.15 -0.15)"/><path d="M197.88,102.3c-1.28-1.2-2.54-2.33-3.75-3.51-.39-.38-.6-.37-1,0q-10.3,11.06-20.62,22.1-6.12,6.56-12.22,13.15a24,24,0,0,0-1.64,1.93c-.42.57-.67.65-1.23.07q-8.16-8.42-16.38-16.78c-1.46-1.49-2.93-3-4.37-4.49-.37-.39-.56-.37-.91,0q-20.21,21.67-40.42,43.33c-.47.5-.72.58-1.24.07-1.49-1.46-3-2.88-4.58-4.28-.46-.41-.5-.64-.05-1.11q13-13.87,26-27.77,10.05-10.77,20.09-21.54c.4-.43.6-.55,1.08-.05Q146.9,114,157.21,124.56c.52.54.75.46,1.21,0q14.45-15.52,28.95-31c.45-.48.4-.71-.06-1.11-1.24-1.1-2.44-2.25-3.73-3.46l8.17-2.49,9.94-3c.23-.07.73-.48.54.31q-2.11,9.09-4.21,18.19A3,3,0,0,1,197.88,102.3Z" class="cls-2" transform="translate(-0.15 -0.15)"/></svg>