<svg xmlns="http://www.w3.org/2000/svg" id="Ebene_1" data-name="Ebene 1" viewBox="0 0 282.15 211.87"><defs><style>.cls-1{fill:#fff}.cls-2{fill:#e69221}</style></defs><title>3</title><path d="M141.23,212Q71.08,212,.93,212c-.63,0-.78-.14-.78-.78Q.18,106.09.15.93C.15.3.3.15.93.15q140.29,0,280.59,0c.63,0,.78.14.78.78q0,105.16,0,210.32c0,.63-.14.78-.78.78Q211.37,212,141.23,212Z" class="cls-1" transform="translate(-0.15 -0.15)"/><path d="M141.27,177.61H71.6c-1.79,0-2.11-.32-2.11-2.14q0-69.47,0-138.93c0-1.82.31-2.14,2.1-2.14,1,0,1.92,0,2.88,0A1.36,1.36,0,0,1,76,35.87c0,.28,0,.56,0,.85q0,66.08,0,132.16c0,.34,0,.68,0,1a1.22,1.22,0,0,0,1.16,1.24,6.66,6.66,0,0,0,1,0H210.82c.31,0,.62,0,.93,0a1.21,1.21,0,0,1,1.28,1.27c0,1.27,0,2.54,0,3.81a1.27,1.27,0,0,1-1.24,1.34,6.85,6.85,0,0,1-.93,0Z" class="cls-2" transform="translate(-0.15 -0.15)"/><path d="M202.36,83.23l-4.43,19.13c-1.23-1.15-2.4-2.18-3.5-3.29-.59-.6-.92-.64-1.53,0q-15.8,17-31.65,33.92c-1.09,1.17-2.11,2.42-2.92,3.36-2.34-2.2-4.73-4.32-7-6.58-4.88-4.9-9.69-9.87-14.5-14.83-.48-.5-.71-.54-1.21,0q-17.08,18.34-34.19,36.64c-2,2.19-4.09,4.36-6.11,6.57-.42.46-.67.58-1.18.08q-2.26-2.22-4.64-4.33c-.52-.46-.39-.69,0-1.11q10.33-11,20.63-22.08,12.71-13.61,25.41-27.24c.47-.5.67-.4,1.09,0q10.22,10.49,20.47,21c.51.52.77.63,1.33,0q14.44-15.53,28.94-31c.42-.45.37-.67-.06-1.05-1.24-1.1-2.43-2.25-3.76-3.49Z" class="cls-2" transform="translate(-0.15 -0.15)"/></svg>