<svg xmlns="http://www.w3.org/2000/svg" id="Ebene_1" data-name="Ebene 1" viewBox="0 0 800.05 600.15"><defs><style>.cls-1{fill:#fefefe}.cls-2{fill:#dadada}.cls-3{fill:#cbcbcb}.cls-4{fill:#d6d6d6}.cls-5{fill:#cdcccc}.cls-6{fill:#abaaaa}.cls-7{fill:#d3d3d3}.cls-8{fill:#b9b9b9}.cls-9{fill:#a4a4a4}.cls-10{fill:#010101}.cls-11{fill:#0d0c0f}.cls-12{fill:#debb42}.cls-13{fill:#030304}.cls-14{fill:#040304}.cls-15{fill:#030507}.cls-16{fill:#dbb33f}.cls-17{fill:#040609}.cls-18{fill:#b67e39}.cls-19{fill:#050405}.cls-20{fill:#040405}.cls-21{fill:#040608}.cls-22{fill:#d8b140}.cls-23{fill:#dbb641}.cls-24{fill:#e0c044}.cls-25{fill:#d7ad42}.cls-26{fill:#090809}.cls-27{fill:#080a0d}.cls-28{fill:#08070a}.cls-29{fill:#090c0f}.cls-30{fill:#060607}.cls-31{fill:#060507}.cls-32{fill:#070607}.cls-33{fill:#06080b}.cls-34{fill:#030405}.cls-35{fill:#010202}.cls-36{fill:#080b0e}.cls-37{fill:#b8833c}.cls-38{fill:#ac7a36}.cls-39{fill:#a07335}.cls-40{fill:#0f0e10}.cls-41{fill:#a87837}.cls-42{fill:#b07e39}.cls-43{fill:#a47435}.cls-44{fill:#121115}.cls-45{fill:#1c1b1e}.cls-46{fill:#0f0e11}.cls-47{fill:#c78f3c}.cls-48{fill:#0e0c0f}.cls-49{fill:#d8b13e}.cls-50{fill:#121113}.cls-51{fill:#121114}.cls-52{fill:#181516}.cls-53{fill:#141417}.cls-54{fill:#1e1b1d}.cls-55{fill:#151416}.cls-56{fill:#19181c}.cls-57{fill:#161519}.cls-58{fill:#111113}.cls-59{fill:#1b181a}.cls-60{fill:#1a171a}.cls-61{fill:#1d1a1c}.cls-62{fill:#0e0e10}.cls-63{fill:#0d0d0f}.cls-64{fill:#131215}.cls-65{fill:#171619}.cls-66{fill:#07080b}.cls-67{fill:#171719}.cls-68{fill:#121214}.cls-69{fill:#101014}.cls-70{fill:#191719}.cls-71{fill:#19191c}.cls-72{fill:#201f21}.cls-73{fill:#926a35}.cls-74{fill:#201f22}.cls-75{fill:#1d1c1f}.cls-76{fill:#1f1d20}.cls-77{fill:#262528}.cls-78{fill:#47484e}.cls-79{fill:#201f23}.cls-80{fill:#1f1e20}.cls-81{fill:#2b2a2e}.cls-82{fill:#1e1d20}.cls-83{fill:#454143}.cls-84{fill:#26262a}.cls-85{fill:#3c3234}.cls-86{fill:#54555a}.cls-87{fill:#29292e}.cls-88{fill:#252427}.cls-89{fill:#212023}.cls-90{fill:#363539}.cls-91{fill:#292324}.cls-92{fill:#2f2e32}.cls-93{fill:#302f33}.cls-94{fill:#5f5b5f}.cls-95{fill:#312b2e}.cls-96{fill:#232327}.cls-97{fill:#6b6b71}.cls-98{fill:#524b4e}.cls-99{fill:#383539}.cls-100{fill:#453c3f}.cls-101{fill:#514c4f}.cls-102{fill:#59565a}.cls-103{fill:#fdfdfd}.cls-104{fill:#544c4f}.cls-105{fill:#3d3335}.cls-106{fill:#4f4749}.cls-107{fill:#6c696e}.cls-108{fill:#554c4f}.cls-109{fill:#69686c}.cls-110{fill:#3c393e}.cls-111{fill:#5f5c60}.cls-112{fill:#433f44}.cls-113{fill:#3d3235}.cls-114{fill:#3e3639}.cls-115{fill:#2e2e33}.cls-116{fill:#4d484b}.cls-117{fill:#4f4c50}.cls-118{fill:#27282d}.cls-119{fill:#67676c}.cls-120{fill:#3c3538}.cls-121{fill:#313136}.cls-122{fill:#29292f}.cls-123{fill:#232125}.cls-124{fill:#39373c}.cls-125{fill:#6e6b70}.cls-126{fill:#413d41}.cls-127{fill:#645f64}.cls-128{fill:#2a2a2f}.cls-129{fill:#353237}.cls-130{fill:#c38a3a}.cls-131{fill:#3b393d}.cls-132{fill:#fdfcfd}.cls-133{fill:#605e62}.cls-134{fill:#1c1c21}.cls-135{fill:#615f63}.cls-136{fill:#f6f6f6}.cls-137{fill:#d0d0d0}.cls-138{fill:#c8c7c7}.cls-139{fill:#292929}.cls-140{fill:#d6a540}.cls-141{fill:#dcb641}.cls-142{fill:#deba42}.cls-143{fill:#d8a940}.cls-144{fill:#d19c3c}.cls-145{fill:#d9af40}.cls-146{fill:#cb933d}.cls-147{fill:#d5a540}.cls-148{fill:#ba823b}.cls-149{fill:#cc983d}.cls-150{fill:#bd8539}.cls-151{fill:#d09d3d}.cls-152{fill:#b7803a}.cls-153{fill:#986d36}.cls-154{fill:#bc843a}.cls-155{fill:#fcfcfc}.cls-156{fill:#fbfbfb}.cls-157{fill:#fafafa}.cls-158{fill:#cc913d}.cls-159{fill:#c68d3c}.cls-160{fill:#d6ac3f}.cls-161{fill:#d7ad40}.cls-162{fill:#d7af41}.cls-163{fill:#ce953d}.cls-164{fill:#d2a940}.cls-165{fill:#b78137}.cls-166{fill:#9f823f}.cls-167{fill:#3f382f}.cls-168{fill:#2c2b29}.cls-169{fill:#d2a340}.cls-170{fill:#c18a39}</style></defs><title>blog</title><path d="M676.8,600.77H126.14a4.13,4.13,0,0,1-.81-3c0-1.34,0-2.69,0-4q0-260.21,0-520.43c.35-2.62-.75-5.38.78-7.88,1.7-1,3.56-.59,5.36-.59q124.53,0,249.07,0,145.41,0,290.81,0c1.8,0,3.66-.37,5.38.52,1.43,1.68.9,3.68.92,5.59q.36,258.52.11,517c0,3.07,0,6.14,0,9.21A4.94,4.94,0,0,1,676.8,600.77Z" class="cls-1" transform="translate(-0.58 -0.62)"/><path d="M676.78,65.71c-1,0-1.92,0-2.88,0H126.14c.17-1.31,1.22-1.23,2.13-1.36,29.24-.13,58.47,0,87.71,0q42.32,0,84.63,0c15.73,0,31.47,0,47.2,0,5-.35,10,.24,14.95.3,6.87.08,13.75-.9,20.61.35.38-.18,0-.68.11-.31,0,.13,0,.22-.2.2-10.69-1.16-21.43.11-32.16-.72-6.45-.5-13,.31-19.55.05-29.35-1.19-58.72-.18-88.07-.55a25.39,25.39,0,0,1-9-1.51c-1.74-.68-3.58-.59-5.39-.81-4.66-.56-9.38-.56-14-1.44a12.79,12.79,0,0,0-6.28.28,13.74,13.74,0,0,1-9-.46,18.48,18.48,0,0,0-6.19-1.12c-20,0-39.93,0-59.9,0-8.49,0-15.41,5-17,12.72A68.72,68.72,0,0,0,115,83.19c0,1.25,0,2.5,0,3.74q0,253.85,0,507.7c0,2.06.53,4.26-.9,6.13H.58V.62H800.64V600.77h-114a4.64,4.64,0,0,1-.91-3.25c0-1.44,0-2.88,0-4.32q0-258,0-516a22.43,22.43,0,0,0-1.24-8.77,13.62,13.62,0,0,0-8.28-7.84,30,30,0,0,0-11-1.53q-27.35.07-54.71,0a22.22,22.22,0,0,0-7.37,1,15.1,15.1,0,0,1-7.12.53,41.25,41.25,0,0,0-11.19.09c-7.22.94-14.52,1.18-21.67,2.74-2.34.51-4.79.19-7.17.17-33.68-.34-67.34.77-101,.71-11.49,0-23-.09-33.14.43,20.56-.42,42.48-.62,64.41-.49q54.76.07,109.53,0c.92,0,1.84,0,2.76,0a40.32,40.32,0,0,1,4.38,0q34.55.07,69.1,0C673.6,64.58,675.77,63.24,676.78,65.71Z" class="cls-2" transform="translate(-0.58 -0.62)"/><path d="M676.78,65.71a1.13,1.13,0,0,0-.91-.58c-1.23,0-2.45,0-3.68,0a7.91,7.91,0,0,0-3.93-.57c-13.52,0-27-.18-40.56.06-7.84.14-15.69,0-23.53.21a2.63,2.63,0,0,0-1.66.29h-4a2.12,2.12,0,0,0-2.29,0h-110c.48-1.87,2-1.08,3.1-1.11,19.19-.42,38.38-.44,57.57-.28,16.61.14,33.16-1.17,49.75-1.38,3.92,0,7.82-.47,11.75,0,3.46.43,6.76-1.16,10.26-1.11,11.33.14,22.65.08,34,0,5.26,0,10.5-.41,15.79-.07,9,.57,14.07,4.62,15.35,12.89a76.14,76.14,0,0,1,.93,11.71q0,254.43,0,508.85c0,2.06.52,4.26-.91,6.13h-4.61a4.06,4.06,0,0,1-.77-3.54,68.74,68.74,0,0,0,.4-10.92q0-247.77,0-495.54c0-5.76-.54-11.49-1.05-17.22a4.87,4.87,0,0,0-.87-2.69Z" class="cls-3" transform="translate(-0.58 -0.62)"/><path d="M683.72,600.77q0-259.77,0-519.53c0-1,0-1.92,0-2.88a3.1,3.1,0,0,0-.65-2.15,2.43,2.43,0,0,1-.49-1.62c0-.58,0-1.15,0-1.73a2.06,2.06,0,0,0-.09-.85c-.88-1.69-1.14-3.66-2.4-5.2a7.69,7.69,0,0,0-1.63-1.58,10.05,10.05,0,0,0-4.13-1.91,2.13,2.13,0,0,1-1-.42,3.38,3.38,0,0,0-2.43-.7c-1.15,0-2.3,0-3.46,0a13.5,13.5,0,0,1-3.69-.4,8,8,0,0,0-4.27,0,13.33,13.33,0,0,1-3.69.4H625.48c-2.88,0-5.76,0-8.64,0a9.81,9.81,0,0,0-3.66.57,13.06,13.06,0,0,1-7.35.26,10.53,10.53,0,0,0-1.7-.23c-1.05,0-2.11,0-3.17,0a3.33,3.33,0,0,0-1.14.08c-1.76.69-3.6.47-5.41.48-2.78,0-5.57,0-8.35,0a5.9,5.9,0,0,0-2,.13,11.73,11.73,0,0,1-4.26.44c-3.26,0-6.53,0-9.79,0a8.09,8.09,0,0,0-2.84.33,5.83,5.83,0,0,1-1.7.23c-.77,0-1.54,0-2.3,0H489.72q-1.3,0-2.59,0a1.31,1.31,0,0,0-1,.53H420.79c-.57,0-1.15,0-1.72-.06-.08,0-.16-.1-.24-.16.11-.11.22-.3.34-.3.86,0,1.73,0,2.59,0a10.4,10.4,0,0,0,3.12-.37,8.66,8.66,0,0,1,2.56-.2c5.09,0,10.17,0,15.26,0a11.21,11.21,0,0,0,4.26-.44,4.88,4.88,0,0,1,1.71-.12h51.83a10.29,10.29,0,0,0,4-.43,4.89,4.89,0,0,1,1.71-.14c1.44,0,2.88,0,4.32,0h44.35a9.61,9.61,0,0,0,3.42-.29,1.92,1.92,0,0,1,1.11.07,5.8,5.8,0,0,0,3.41.07,12.6,12.6,0,0,1,3.69-.42,2.49,2.49,0,0,0,1.62-.5,3.07,3.07,0,0,1,2.15-.65c.67,0,1.34,0,2,0a4.19,4.19,0,0,0,1.42-.12,12.34,12.34,0,0,1,4.55-.45,10.28,10.28,0,0,0,4-.43,4.68,4.68,0,0,1,1.42-.14,6,6,0,0,0,1.71-.16,9.65,9.65,0,0,1,3.69-.42h3.74a14.26,14.26,0,0,1,3.12.35,11.23,11.23,0,0,0,5.4-.06,16.1,16.1,0,0,0,3.54-1.13,3.47,3.47,0,0,1,1.39-.29c.77,0,1.54,0,2.3,0h61.63c.58,0,1.15,0,1.73,0a2.45,2.45,0,0,1,2.43,1.15,1,1,0,0,0,1.29.3,1.36,1.36,0,0,1,1.11,0,8.09,8.09,0,0,0,.79.36c2.63,1,4.47,2.94,6.24,5a7.45,7.45,0,0,1,1.7,3.6,4.4,4.4,0,0,0,.41,1.36,6.5,6.5,0,0,1,.74,3.61c0,.67,0,1.34,0,2V600.77Z" class="cls-4" transform="translate(-0.58 -0.62)"/><path d="M114,600.77q0-258.4,0-516.8c0-.86,0-1.73,0-2.59a5.83,5.83,0,0,1,.71-3.33,4.1,4.1,0,0,0,.45-2.22c0-1.15,0-2.3,0-3.45a2.63,2.63,0,0,1,.16-1.13c.84-1.61,1.05-3.51,2.29-4.93a.71.71,0,0,0,.15-.24c.85-2.83,3.24-4.17,5.49-5.59a27,27,0,0,1,6.63-2.71,4.52,4.52,0,0,1,1.13-.17c.67,0,1.34,0,2,0q30.52,0,61,0A12.74,12.74,0,0,1,200,58.79a4.64,4.64,0,0,0,1.92.55,5.82,5.82,0,0,1,1.4.26,6.08,6.08,0,0,0,4.74-.31,4.94,4.94,0,0,1,2.5-.54c1.25,0,2.5,0,3.74,0a6.65,6.65,0,0,1,2.55.35,5.53,5.53,0,0,0,1.41.22,3.84,3.84,0,0,1,.86.05c2,.76,4.17.49,6.26.53a12.44,12.44,0,0,1,3.12.37,11.5,11.5,0,0,0,3.14.2,7.57,7.57,0,0,1,4.35,1.23,3.25,3.25,0,0,0,1.9.51,7.16,7.16,0,0,1,2.55.33,5.9,5.9,0,0,0,1.69.23c.77,0,1.54,0,2.3,0H323a13.4,13.4,0,0,1,4.84.45,6,6,0,0,0,2,.12h16.12a7.72,7.72,0,0,0,2.83-.37,4,4,0,0,1,2.83,0,7.8,7.8,0,0,0,2.83.38,8.36,8.36,0,0,1,3.12.41,4.85,4.85,0,0,0,1.7.16q5.33,0,10.65,0a4.81,4.81,0,0,0,1.71-.14,11.4,11.4,0,0,1,4.84-.38,10.79,10.79,0,0,1,3.07.65,9.68,9.68,0,0,0,3.39.47c.67,0,1.34,0,2,0,.12,0,.22.2.33.31-.08.05-.16.15-.24.15-.67,0-1.34.06-2,.06H347.9a4.46,4.46,0,0,0-2.52-.28c-35.53-.43-71.05-.28-106.58-.27-4.69,0-9.37-.26-14.05-.52-3.85-1-7.91.25-11.7-1-3.32-1.12-6.63,0-10-.25-4.2-.3-8.24-1.52-12.5-1.44-16.09.34-32.18-.22-48.27,0-3.06.05-6.14-.28-9.17,0-6.72.62-11.88,3.24-13.56,9.53-.74,2.78-1.87,5.58-1.73,8.59.05,1.24,0,2.5,0,3.74q0,255.72,0,511.45c0,2.06.53,4.25-.9,6.13Z" class="cls-4" transform="translate(-0.58 -0.62)"/><path d="M127.89,65.08c-.63,0-1.33-.1-1.74.59l0,7.51-.53.07a2.26,2.26,0,0,1-.59-.83c-.34-.6-.62-.6-.84.1A25.64,25.64,0,0,0,123.08,79c-.06,1.53,0,3.07,0,4.61q0,255.51,0,511c0,2.06.52,4.25-.91,6.12h-2.88a4.32,4.32,0,0,1-.91-3c0-1.06,0-2.11,0-3.17q0-257.06-.05-514.12a41.73,41.73,0,0,1,1.15-9.05c1.16-5.26,4.61-8.42,10-9.4,11.95-1.23,23.93-.46,35.9-.64,2.66,0,5.29,1.1,8,.19a19.85,19.85,0,0,1,7,.08,61.48,61.48,0,0,0,13.12.86c5.44-.16,10.89.29,16.33.1a6.21,6.21,0,0,1,1.09.19,41.11,41.11,0,0,0,6,.52c27.17,1.62,54.37.57,81.55.91.77,0,2-.73,2.31.81H216a3,3,0,0,0-2-.28c-14.67.16-29.34-.27-44-.37-9.38-.06-18.77.13-28.15-.19A74.36,74.36,0,0,0,127.89,65.08Z" class="cls-5" transform="translate(-0.58 -0.62)"/><path d="M676.82,70.86a1.31,1.31,0,0,1,1.17.7,2.57,2.57,0,0,1,.36.78c.17,1.8.91,3.52.78,5.37-.08,1.15,0,2.3,0,3.45a7.68,7.68,0,0,0,.33,2.55,6.18,6.18,0,0,1,.22,1.7c0,.77,0,1.54,0,2.3q0,252.1,0,504.19c0,.77,0,1.54,0,2.3a3.46,3.46,0,0,1-.07,1.14c-.67,1.76-.44,3.6-.49,5.41h-2.3c0-1.82-.07-3.65-.07-5.47q0-137.52,0-275,0-117.93,0-235.87C676.74,79.89,676.79,75.37,676.82,70.86Z" class="cls-6" transform="translate(-0.58 -0.62)"/><path d="M180.29,62.21h-6.91c-12-.48-23.91-.22-35.87-.32a29.57,29.57,0,0,0-7.91.89,6.55,6.55,0,0,0-4.2,1.58,3.23,3.23,0,0,1-1.23.7,2.37,2.37,0,0,0-1.51,1.22,7.84,7.84,0,0,1-1.11,1.66,2.35,2.35,0,0,0-.61,1.55,3.58,3.58,0,0,1-.24,1.11c-.26.61-.85,1.06-.87,1.79,0,1.63-.85,3.15-.62,4.82a13,13,0,0,1,0,1.73V600.77h-2.3q0-260.43,0-520.87c0-1,0-1.92,0-2.88a2.67,2.67,0,0,1,.8-2.08,5.18,5.18,0,0,0,.56-.65,1.53,1.53,0,0,0,.21-1.37,1.5,1.5,0,0,0-.11-.27,2,2,0,0,1,0-1.92c.74-1.45,1.5-2.88,2.37-4.27a10.13,10.13,0,0,1,5.32-4.17,13.5,13.5,0,0,0,3.69-1.54,2,2,0,0,1,1.1-.26q2.59,0,5.18,0a12.19,12.19,0,0,1,1.41.2,3.14,3.14,0,0,0,1.12.1,18.32,18.32,0,0,1,6.28-.16,2.75,2.75,0,0,0,.85,0,18.28,18.28,0,0,1,4.3-.19q12.81,0,25.63,0a9.5,9.5,0,0,1,4,.44,3,3,0,0,0,1.14.12c1.44,0,2.88,0,4.32,0A2.84,2.84,0,0,0,186,61c2.82-.93,5.72-.31,8.57-.47a2.91,2.91,0,0,1,1.64.46,5.87,5.87,0,0,0,3.33.68c.67,0,1.34,0,2,0a7.18,7.18,0,0,1,2.55.33,4.64,4.64,0,0,0,3.11,0,7,7,0,0,1,4.51,0c.62.21,1.36.05,2,.25,2.63.82,5.32.46,8,.53.67,0,1.34,0,2,0a1.35,1.35,0,0,1,1,.54,74.67,74.67,0,0,1-14.4,0h0a4.19,4.19,0,0,0-2.52-.29c-8.79,0-17.57-.28-26.35-.59A2,2,0,0,1,180.29,62.21Z" class="cls-7" transform="translate(-0.58 -0.62)"/><path d="M122.11,600.77q0-260.31,0-520.61c0-.67,0-1.34,0-2,0-1.73.77-3.35.71-5.1a1.56,1.56,0,0,1,.2-.53c.32-.8.6-1.61,1-2.4a3.41,3.41,0,0,1,.69-.9.64.64,0,0,1,.5-.16.51.51,0,0,1,.33.35c0,1.25,0,2.49.06,3.74-.78,174-.12,348-.36,522,0,1.87.52,3.87-.79,5.57Z" class="cls-8" transform="translate(-0.58 -0.62)"/><path d="M124.42,600.77q0-260.05,0-520.11c0-.77,0-1.54,0-2.3a4.17,4.17,0,0,1,.18-1.41,8.62,8.62,0,0,0,.41-2.83,1.36,1.36,0,0,1,.55-1h0c.53,1,.27,2.07.27,3.11q0,260.7,0,521.4c0,1,.26,2.11-.27,3.11Z" class="cls-9" transform="translate(-0.58 -0.62)"/><path d="M125.57,600.77q0-248.12,0-496.24,0-15.69,0-31.38l.53,0c0,2.59,0,5.18,0,7.78q0,212,0,423.92,0,48,0,95.9Z" class="cls-8" transform="translate(-0.58 -0.62)"/><path d="M414.12,422.35H330.63c-1,0-1.92,0-2.88,0a.77.77,0,0,1-.72-.72c0-1.53,0-3.07,0-4.6a.47.47,0,0,1,0-.28,1.31,1.31,0,0,1,.42-.37,1.49,1.49,0,0,1,.57-.07h2.59q83.64,0,167.27,0c4.49,0,3.71-.67,3.79,3.76,0,.57,0,1.15,0,1.73,0,.17-.41.52-.61.52-1,0-1.92.06-2.87.06H414.12Z" class="cls-10" transform="translate(-0.58 -0.62)"/><path d="M401.18,343.24H330.4c-1,0-1.91,0-2.86-.1-.14,0-.31-.21-.4-.36a1.23,1.23,0,0,1-.13-.55c0-.57,0-1.15,0-1.73.06-4-.58-3.5,3.5-3.5H472.33c.86,0,1.73,0,2.59,0a.79.79,0,0,1,.78.68c0,.57.06,1.15.05,1.72-.06,4.4.64,3.8-3.78,3.81Q436.57,343.26,401.18,343.24Z" class="cls-11" transform="translate(-0.58 -0.62)"/><path d="M251.2,140c0,.66.12,1.33.12,2q0,14.71,0,29.43c0,.66-.07,1.33-.11,2-1.56,1.44-2.59.51-3.48-.81s-1.09-2.85-2.19-4.36a29.56,29.56,0,0,0-1.61,5.58,10.9,10.9,0,0,1-2.19,4.94c-1.62,1.86-1.28,3.38.35,5,.92.91,2.58,1.89,2,3.19s-2.41.48-3.67.54c-2.68.12-5.36.07-8,0-.77,0-1.78.45-2.26-.68-.09-6.07.05-12.13.1-18.18,1-2,1.57-4.09-.14-6.09,1.14-2.32,3.65-3.17,5.31-4.94.7-.74,1.7-1.2,2.23-2.55-1,.66-1.75,1.42-2.74,1.59-2.74-.66-3-1-1.1-2.89s1.19-3.92.6-5.9c-.46-1.53-1.4-.86-2.12-.06-1.28,1.41-2.5,3.46-4.67,1.66-2-1.64-.16-3.29.56-4.85,1.47-3.24,3.58-6.11,5.17-9.29.62-1.09,1.85-1.25,2.8-1.84s1.9-1.1,1.06-2.43c-2.41-1-1.78-2.59-.81-4.16s2.12-3.23,1.27-5.31a2.36,2.36,0,0,1,.07-.82c.08-.27.18-.54.29-.8l.16-.4c.27-1.27-.1-2.71,1.37-4.19,3,5.86,3.74,12.16,5.71,18a24,24,0,0,1,.82,2.68c.52,2.41,1.06,4.69,4.42,3.53C250.7,139.5,251,139.78,251.2,140Z" class="cls-12" transform="translate(-0.58 -0.62)"/><path d="M385.07,323.09H329.8c-2.85,0-2.65.17-2.65-2.63,0-1,0-1.92,0-2.88a.78.78,0,0,1,.74-.7l.86,0H439.35c3.67,0,3.21-.41,3.24,3.19,0,.77,0,1.53-.06,2.3a.82.82,0,0,1-.75.73l-.86,0H385.07Z" class="cls-13" transform="translate(-0.58 -0.62)"/><path d="M384.45,513.2h-54.4c-.86,0-1.72,0-2.57-.11-.14,0-.28-.23-.39-.37a.48.48,0,0,1-.07-.28c0-1.53,0-3.07,0-4.6a.9.9,0,0,1,1-.86l2.3,0h108.8c.86,0,1.73,0,2.59,0a.8.8,0,0,1,.71.75c0,.29,0,.57,0,.86,0,1.25,0,2.49,0,3.74,0,.54-.33.81-.93.82l-2.59,0Z" class="cls-14" transform="translate(-0.58 -0.62)"/><path d="M378.34,396.24h48.05c.86,0,1.73,0,2.59,0a.76.76,0,0,1,.74.7q0,1.87,0,3.74,0,.43,0,.86a.92.92,0,0,1-1,.85l-1.44,0H330.65c-1,0-1.92,0-2.88,0a1,1,0,0,1-.75-.76q0-2.3,0-4.6a.77.77,0,0,1,.68-.77c.86,0,1.73,0,2.59,0Z" class="cls-15" transform="translate(-0.58 -0.62)"/><path d="M378.51,488H426.3l2.59,0a.89.89,0,0,1,.86.94c0,1.53,0,3.07,0,4.6,0,.2-.34.61-.51.62-.86,0-1.73,0-2.59,0H330.46c-1,0-1.92,0-2.88,0-.15,0-.53-.44-.53-.61,0-1.63,0-3.25,0-4.88a.82.82,0,0,1,.79-.68l2.59,0Z" class="cls-14" transform="translate(-0.58 -0.62)"/><path d="M158.54,95c.24-.14.47-.37.71-.39,1-.05,1.91,0,2.87,0l75.58,0h12.07c.47,0,1,0,1.28.43-1,1-2.32.77-3.54.78-3.35,0-6.69,0-10,0-4.07.07-4.95,1.4-3.45,5.11-2.44,1.2-3.37,3.51-4.42,5.8-3,6.41-5.87,12.84-8.62,19.65,1.8-.49,3.49-1.46,4.86.33.34,1.19-.4,2-1,2.84a27.91,27.91,0,0,0-3.42,5.3c-1.63,3.85-4.86,5.17-8.56,5.9-2.7.54-3.56-.18-2.81-2.79,1.86-6.42,3.55-12.94,7.59-18.48.84-1.16,1.66-2.34,2.76-3.91-1.08.27-1.59,1-2.32,1-1.59-.51-1.8-2.59-3.45-3-2.36-4.09-4.64-8.19-4.58-13.13s.21-4.64-4.79-4.63c-.86,0-1.72,0-2.59,0-1.3,0-2.59,0-3.89,0-.84,0-1.69,0-2.53,0-1.75.08-3.5.06-5.25,0q-9.86.18-19.72,0c-3.95-.07-7.91.35-11.84-.26A2.5,2.5,0,0,1,158.54,95Z" class="cls-16" transform="translate(-0.58 -0.62)"/><path d="M370.69,441.36H330.42l-2.59,0a.81.81,0,0,1-.83-.93c0-1.44,0-2.88,0-4.31a.77.77,0,0,1,.67-.77c.67,0,1.34,0,2,0h82c.67,0,1.34,0,2,0a.93.93,0,0,1,.73.77c0,.67,0,1.34,0,2,0,3.66.33,3.26-3.2,3.26Z" class="cls-10" transform="translate(-0.58 -0.62)"/><path d="M370.64,356.46h41.14c2.74,0,2.69-.22,2.67,2.63,0,.86,0,1.73,0,2.59a1,1,0,0,1-.95.88c-.67,0-1.34,0-2,0H330c-.77,0-1.53,0-2.3-.06a.8.8,0,0,1-.71-.74c0-1.53,0-3.07,0-4.6a.48.48,0,0,1,0-.28c.12-.14.26-.36.41-.37.76-.06,1.53-.08,2.29-.08h40.85Z" class="cls-17" transform="translate(-0.58 -0.62)"/><path d="M195.42,316.84h33.67c.86,0,1.73,0,2.59,0a1,1,0,0,1,.56.58c0,1.63,0,3.25,0,4.88a.79.79,0,0,1-.74.72l-1.73,0H160.73c-2.67,0-2.73.27-2.69-2.63q0-1.44.08-2.87a.81.81,0,0,1,.76-.71c.86,0,1.72,0,2.59,0Z" class="cls-14" transform="translate(-0.58 -0.62)"/><path d="M195,474.15H160.69c-.76,0-1.53-.05-2.29-.13-.15,0-.31-.22-.39-.38a1.28,1.28,0,0,1-.09-.56c0-1.15,0-2.3,0-3.46,0-1.34.27-1.62,1.71-1.61H229c.58,0,1.15,0,1.73,0,1.56,0,1.85.32,1.81,1.82,0,1.15,0,2.3,0,3.45a.83.83,0,0,1-.69.78c-.86,0-1.72.07-2.58.07Z" class="cls-10" transform="translate(-0.58 -0.62)"/><path d="M195.27,435.27H229l2.3,0a.83.83,0,0,1,.91.85c0,1.34,0,2.69,0,4,0,1-.22,1.16-1.18,1.18-.77,0-1.54,0-2.3,0H161.32c-.86,0-1.73,0-2.59,0a.83.83,0,0,1-.79-.68q0-2.3,0-4.6a.83.83,0,0,1,.77-.71c.86,0,1.72-.05,2.59-.05Z" class="cls-10" transform="translate(-0.58 -0.62)"/><path d="M195.31,362.59H161.67c-.86,0-1.73,0-2.59,0-.69,0-1.21-.2-1.19-1.24,0-1.34,0-2.68,0-4a.8.8,0,0,1,.67-.78c.57,0,1.15-.07,1.72-.07H229.9a10.2,10.2,0,0,1,1.72.08.8.8,0,0,1,.51.57c0,1.63,0,3.26,0,4.88,0,.15-.44.51-.61.52-1,0-1.91.07-2.87.07Z" class="cls-17" transform="translate(-0.58 -0.62)"/><path d="M158.48,187.21a12.71,12.71,0,0,1-.16-1.4q0-8,0-15.9a9.88,9.88,0,0,1,.13-1.12c2.77,2.64,6.36,1.92,9.66,2.34.64.08,1.33-.26,2-.15,2.64.46,4.42.11,4.49-3.27,0-1.86,1.51-2.25,3.12-1.17,1.18,3.84,1.33,3.93,5.69,4.3,1.56.13,3.25-.37,4.64.81a9.17,9.17,0,0,1,.19,6c-2,1.29-4.47,1.08-6.67,1.42-2,.31-2.19,1-2,2.48a14.47,14.47,0,0,1,.27,3.69c-.09.92,0,2-1.28,2.26C171.88,187.3,165.17,187.84,158.48,187.21Z" class="cls-18" transform="translate(-0.58 -0.62)"/><path d="M186.05,507h25a20,20,0,0,1,2,.1c.15,0,.33.21.42.37a1.18,1.18,0,0,1,.11.56c0,1.44,0,2.88,0,4.32a.83.83,0,0,1-.91.87c-.58,0-1.15,0-1.73,0H160.6c-.67,0-1.34,0-2-.06a.62.62,0,0,1-.6-.51,24.39,24.39,0,0,1,0-5.16.59.59,0,0,1,.39-.38,8.62,8.62,0,0,1,1.43-.12h26.2Z" class="cls-19" transform="translate(-0.58 -0.62)"/><path d="M185.76,494.19H160.42a20,20,0,0,1-2-.1c-.15,0-.3-.22-.42-.37a.47.47,0,0,1-.05-.28c0-1.53,0-3.07,0-4.6a.89.89,0,0,1,.94-.87c.58,0,1.15,0,1.73,0H211c2.81,0,2.67-.11,2.66,2.65,0,.86,0,1.73,0,2.59,0,.66-.36,1-1.1,1s-1.54,0-2.3,0Z" class="cls-19" transform="translate(-0.58 -0.62)"/><path d="M185.73,337H210.5q1.15,0,2.3,0a.87.87,0,0,1,.84.94c0,.29,0,.58,0,.86-.11,5.2.88,4.38-4.35,4.39-15.93,0-31.87,0-47.8,0-.77,0-1.54,0-2.3,0-1,0-1.28-.27-1.29-1.42s0-2.5,0-3.74a1.34,1.34,0,0,1,.09-.56c.08-.16.24-.38.39-.4a13.23,13.23,0,0,1,1.72-.11h25.63Z" class="cls-20" transform="translate(-0.58 -0.62)"/><path d="M355.93,474.15H329.75c-.67,0-1.34,0-2,0a.76.76,0,0,1-.71-.73c0-1.53,0-3.07,0-4.6a.46.46,0,0,1,.06-.27,1.33,1.33,0,0,1,.4-.39,1.38,1.38,0,0,1,.56-.09h53.22c.67,0,1.34,0,2,0,1.12,0,1.51.11,1.48,1.51,0,1.25,0,2.49,0,3.74a.83.83,0,0,1-.91.86l-2.59,0Z" class="cls-10" transform="translate(-0.58 -0.62)"/><path d="M185.47,422.35H160.71c-.67,0-1.34,0-2-.05a.83.83,0,0,1-.76-.71c0-.1,0-.19,0-.29-.12-3.38-.06-4.66.31-4.78,1.49-.5,3-.23,4.55-.24q23.75,0,47.5,0c.86,0,1.72,0,2.59.05a.8.8,0,0,1,.76.71c0,.19,0,.38,0,.57,0,1.06,0,2.11,0,3.17,0,1.45-.13,1.57-1.69,1.57H185.47Z" class="cls-10" transform="translate(-0.58 -0.62)"/><path d="M181.58,396.24h20.14c.86,0,1.72,0,2.58.06a.77.77,0,0,1,.68.77q0,2.3,0,4.6a.83.83,0,0,1-.75.72c-.57,0-1.15.06-1.72.06h-42c-.57,0-1.15,0-1.72-.05-.37,0-.8-.37-.8-.68,0-1.63,0-3.25,0-4.88a.61.61,0,0,1,.59-.52c.76,0,1.53-.07,2.29-.07Z" class="cls-21" transform="translate(-0.58 -0.62)"/><path d="M233.86,101.38c-.4-.91-1.25-1.43-1.84-2.18a1,1,0,0,1-.08-1.31c.58-.76,1.14-1.54,1.76-2.25a1.69,1.69,0,0,1,1-.52A19.4,19.4,0,0,1,237,95h14.08a5.22,5.22,0,0,1,.28,2.52q0,8.42,0,16.83c0,1-.08,2.09-.12,3.13-1.31.44-1.85-.67-2.58-1.32-1.84-1.64-3.37-3.6-5.39-5.06-3-2.35-5.33-5.36-8.4-7.62C234.21,103.06,233.49,102.41,233.86,101.38Z" class="cls-22" transform="translate(-0.58 -0.62)"/><path d="M243.65,110.59c.51.42,1.06.8,1.54,1.26,1.5,1.46,3,3,4.46,4.44a4.51,4.51,0,0,0,1.56,1.23c0,.56.12,1.12.12,1.68q0,4.07,0,8.15c0,.56-.08,1.12-.12,1.68-2.22,1.42-5.32,1.61-6.4,4.61-.18-.22-.43-.42-.51-.67-.39-1.27-.8-2.55-1.09-3.85a22.1,22.1,0,0,0-1.62-5.47,1.4,1.4,0,0,1-.16-.55c-.14-2.34-1.19-4.41-1.88-6.59,0-.06-.16-.11-.25-.12a.2.2,0,0,0-.15.13c0,1-.09,1.91-.13,2.86a.93.93,0,0,1-.66.84c-1.05-1.48-.48-3.21-.77-4.81.26-2.28,1.15-3.9,3.81-3.85A3.51,3.51,0,0,0,243.65,110.59Z" class="cls-23" transform="translate(-0.58 -0.62)"/><path d="M230.41,187.19h12.91c.24,0,.4-.09.4-.31a.81.81,0,0,0-.12-.51c-1-1-2-2.1-3-3.07a3.42,3.42,0,0,1-.85-3.43.74.74,0,0,1,.28-.48,5.2,5.2,0,0,0,2.3-3.15,3,3,0,0,0,.77-2.38,3.35,3.35,0,0,1,.46-1.93,5.71,5.71,0,0,0,.7-3.31,4,4,0,0,1,.07-.86,2.42,2.42,0,0,1,.22-.52c.13-.3.65-.63.93-.54s.6.22.7.42c.55,1.21,1,2.46,1.54,3.68a14.86,14.86,0,0,0,1,2.05,1.25,1.25,0,0,0,1.68.66,3.21,3.21,0,0,1,.85-.13c0,.86.12,1.72.12,2.58,0,2.78-.07,5.56-.11,8.34-.33,1-2.51,1.9,0,2.91-.12.14-.22.37-.36.41a4.59,4.59,0,0,1-1.13.14H223.2c-.48,0-1-.08-1.43-.12a.72.72,0,0,1,.43-.85C225,186.27,227.73,185.73,230.41,187.19Z" class="cls-24" transform="translate(-0.58 -0.62)"/><path d="M230.41,187.19l-8.64,0c-3.22.68-6.51-.1-9.74.41-.67,0-1.34.12-2,.12H190.44c-.67,0-1.34-.08-2-.12,1-2.06,2.91-1,4.42-1.26,4.87,0,9.75,0,14.63,0a4.64,4.64,0,0,0,4.2-1.94,10.7,10.7,0,0,1,7.73-4.4,22.55,22.55,0,0,0,7.26-2.49c2.42-1.21,2.95-2.85,3-5.24,0-1.61-.92-3.67,1.33-4.71,0,5.61,0,11.22,0,16.83A5.2,5.2,0,0,1,230.41,187.19Z" class="cls-25" transform="translate(-0.58 -0.62)"/><path d="M262.44,494.2h-8c-.57,0-1.15,0-1.72,0a.8.8,0,0,1-.73-.73c0-1.53,0-3.06,0-4.59a1,1,0,0,1,1-.86H271c.57,0,1.15,0,1.72.08a.61.61,0,0,1,.53.59c0,1.62,0,3.25,0,4.87a.8.8,0,0,1-.79.68l-3.45,0Z" class="cls-26" transform="translate(-0.58 -0.62)"/><path d="M262.73,396.24h8.6c.47,0,.95,0,1.42.09a.61.61,0,0,1,.52.59c.06,1.24.08,2.48.08,3.72,0,1.62-.18,1.8-1.81,1.8H252.91a1,1,0,0,1-1-1.14c0-1.34,0-2.68,0-4,0-.09,0-.19,0-.28a.83.83,0,0,1,.76-.71c.57,0,1.14,0,1.72,0Z" class="cls-27" transform="translate(-0.58 -0.62)"/><path d="M262.74,507h8.91c.29,0,.57,0,.86,0a.82.82,0,0,1,.76.71q.06,2,.09,4c0,1.48-.4,1.48-1.51,1.48h-19a.91.91,0,0,1-1-.84c0-1.53,0-3.06,0-4.59a.86.86,0,0,1,.73-.75c.86,0,1.72,0,2.58-.05Z" class="cls-26" transform="translate(-0.58 -0.62)"/><path d="M262.76,337h8.91l.86,0a.8.8,0,0,1,.76.71c0,1.34.06,2.68.07,4s-.43,1.48-1.52,1.48H253.44c-.29,0-.57,0-.86-.07a.65.65,0,0,1-.58-.54,20,20,0,0,1,0-5.14.6.6,0,0,1,.39-.38,5.3,5.3,0,0,1,1.14-.11Z" class="cls-28" transform="translate(-0.58 -0.62)"/><path d="M262.72,362.6h-9.21a4.38,4.38,0,0,1-1.12-.16A.63.63,0,0,1,252,362a3.56,3.56,0,0,1-.12-1.13c.13-1.41-.38-2.86.32-4.22a11.49,11.49,0,0,1,4-.22c5.08,0,10.17,0,15.25,0a7.7,7.7,0,0,1,1.42.14.63.63,0,0,1,.37.39,2.75,2.75,0,0,1,.13.84c0,1.25,0,2.49,0,3.74a1,1,0,0,1-1.12,1h-9.5Z" class="cls-29" transform="translate(-0.58 -0.62)"/><path d="M289.7,337h8l1.72,0a.8.8,0,0,1,.77.69c0,.48.07,1,.06,1.43-.08,4.83.72,4.05-4.06,4.09s-9.38,0-14.07,0c-.67,0-1.34,0-2,0-.94,0-1.26-.3-1.27-1.15,0-1.34,0-2.68,0-4a1.3,1.3,0,0,1,.09-.56c.08-.16.24-.36.39-.39a8.66,8.66,0,0,1,1.42-.11Z" class="cls-30" transform="translate(-0.58 -0.62)"/><path d="M289.44,323.09h-8c-.57,0-1.15,0-1.72,0a.82.82,0,0,1-.78-.68c0-.57-.07-1.15-.06-1.72.07-4.4-.65-3.77,3.77-3.79,5,0,10,0,14.93,0,.67,0,1.34,0,2,0a.59.59,0,0,1,.58.52c0,1.62,0,3.25.05,4.87a.8.8,0,0,1-.7.77c-.48,0-1,0-1.43,0Z" class="cls-31" transform="translate(-0.58 -0.62)"/><path d="M289.45,507h9.19l.86,0a.84.84,0,0,1,.74.74c0,1.43.05,2.87.05,4.3,0,.93-.25,1.16-1.21,1.16H280.42a8.42,8.42,0,0,1-.86-.06.63.63,0,0,1-.59-.52,24.09,24.09,0,0,1,0-5.15.59.59,0,0,1,.4-.38,8.54,8.54,0,0,1,1.42-.12Z" class="cls-32" transform="translate(-0.58 -0.62)"/><path d="M289.39,494.19h-8.9a5,5,0,0,1-1.14-.12.58.58,0,0,1-.37-.4c0-1.62-.05-3.25-.05-4.87a.93.93,0,0,1,1-.84h18.37l1.15,0a.94.94,0,0,1,.86,1c0,1.53,0,3.06,0,4.59,0,.19-.36.62-.51.63-.48,0-1,0-1.43,0Z" class="cls-32" transform="translate(-0.58 -0.62)"/><path d="M262.08,316.84H271c.38,0,.76,0,1.15,0a.81.81,0,0,1,.75.71c0,1.53,0,3.06,0,4.59a.88.88,0,0,1-.92.88c-.48,0-1,0-1.43,0H253.61c-.48,0-1,0-1.43,0a1,1,0,0,1-.55-.59c0-1.62,0-3.24,0-4.87a.77.77,0,0,1,.73-.72l1.72,0Z" class="cls-30" transform="translate(-0.58 -0.62)"/><path d="M289.49,402.45h-8.6a6.28,6.28,0,0,1-1.42-.13.65.65,0,0,1-.52-.61c0-1.53,0-3.05,0-4.58a.87.87,0,0,1,.91-.88c.48,0,1,0,1.43,0h18.06c.62,0,.95.28,1,.8,0,1.53,0,3.05,0,4.58a1.06,1.06,0,0,1-.74.78c-.48,0-1,0-1.43,0Z" class="cls-33" transform="translate(-0.58 -0.62)"/><path d="M262.37,441.36H254c-.48,0-1,0-1.43-.07a.85.85,0,0,1-.69-.79c0-.48,0-1,0-1.43q0-1.44,0-2.87a1,1,0,0,1,.92-.91c.38,0,.77,0,1.15,0h18.09c.93,0,1.25.32,1.28,1.15,0,.38,0,.77,0,1.15,0,.86,0,1.72,0,2.58s-.34,1.19-1.22,1.2h-9.76Z" class="cls-14" transform="translate(-0.58 -0.62)"/><path d="M262.62,422.36H254a6.7,6.7,0,0,1-1.42-.1c-.24-.05-.6-.32-.61-.5q-.07-2.43,0-4.87c0-.18.37-.41.61-.51a2.3,2.3,0,0,1,.84-.1h18.37a2.29,2.29,0,0,1,.84.09c.24.1.59.34.6.52q.07,2.43,0,4.86c0,.18-.36.46-.59.52a6.74,6.74,0,0,1-1.42.09Z" class="cls-14" transform="translate(-0.58 -0.62)"/><path d="M262.41,474.15H253.5a4.52,4.52,0,0,1-1.13-.15.66.66,0,0,1-.37-.39,2.64,2.64,0,0,1-.11-.84c.1-5.49-.95-4.69,4.62-4.73,4.79,0,9.58,0,14.37,0,.57,0,1.15,0,1.72.06a1,1,0,0,1,.72.8c0,.48,0,1,0,1.44-.05,4.49.57,3.78-3.76,3.84-2.39,0-4.79,0-7.18,0Z" class="cls-34" transform="translate(-0.58 -0.62)"/><path d="M289.49,474.15h-8c-.57,0-1.15,0-1.72,0a.82.82,0,0,1-.79-.69q0-2.3,0-4.6a1,1,0,0,1,.76-.74c.28,0,.57-.06.86-.06h18.4a2.9,2.9,0,0,1,.85.1.79.79,0,0,1,.4.39,1.25,1.25,0,0,1,.1.55q0,2.15,0,4.31a.76.76,0,0,1-.71.74c-.48,0-1,0-1.44,0Z" class="cls-35" transform="translate(-0.58 -0.62)"/><path d="M289.45,422.35h-8c-.57,0-1.15,0-1.72,0a.82.82,0,0,1-.77-.71c0-1.53,0-3.06,0-4.59a.87.87,0,0,1,.51-.59,3.35,3.35,0,0,1,1.13-.14H299a3,3,0,0,1,.85.08c.16,0,.39.25.39.38q0,2.58,0,5.16c0,.13-.25.35-.41.37a10.39,10.39,0,0,1-1.43.07Z" class="cls-35" transform="translate(-0.58 -0.62)"/><path d="M289.74,362.59h-8.92c-.38,0-.76,0-1.14-.06a1,1,0,0,1-.76-.74q0-2.3,0-4.6a.81.81,0,0,1,.78-.69c.29,0,.57,0,.86,0h18.12c.29,0,.57,0,.86,0a.76.76,0,0,1,.71.74c0,1.53,0,3.06,0,4.6a.47.47,0,0,1-.06.27c-.12.15-.25.36-.4.39a8.83,8.83,0,0,1-1.43.11Z" class="cls-36" transform="translate(-0.58 -0.62)"/><path d="M289.44,441.36h-8.62a8,8,0,0,1-1.42-.14c-.15,0-.28-.23-.4-.37a.42.42,0,0,1-.08-.26c.1-6.22-1.28-5.25,4.83-5.31,4.79,0,9.58,0,14.37,0a13.76,13.76,0,0,1,1.71.1.57.57,0,0,1,.38.39q0,2.58,0,5.16c0,.13-.26.34-.42.36a10.6,10.6,0,0,1-1.43.07Z" class="cls-35" transform="translate(-0.58 -0.62)"/><path d="M159,95.11h12.1c1.58,3.11.82,6.36.58,9.57-.43.94-.94,1.22-1.53.13-.46-.85-.2-1.87-.6-3a42.35,42.35,0,0,0-9.1,6.84c-.66.64-.6,1.56-.76,2.4s.06,1.82-1.22,1.86c0-.47-.12-.94-.13-1.41q0-6.66,0-13.32c0-.47.08-.94.12-1.41C158.94,96.31,158.43,95.54,159,95.11Z" class="cls-37" transform="translate(-0.58 -0.62)"/><path d="M177.47,166.54c-.29,0-.57-.05-.86,0-1.12,0-1.46.33-1.49,1.28s0,1.72,0,2.58c0,.47.12,1-.29,1.33-.25.17-.73,0-1.11,0-.66,0-1.32.18-2,.18s-1.13-.18-1.7-.22a4,4,0,0,0-2,.31,4.35,4.35,0,0,1-2,.23,1.7,1.7,0,0,1-1.29-.5,1.75,1.75,0,0,0-2.1-.44,5.55,5.55,0,0,1-2.81.32,1,1,0,0,1-.81-.7c-.08-.47-.07-1-.19-1.41a2.53,2.53,0,0,0-.47-.7c0-.56-.12-1.12-.12-1.68q0-4.66,0-9.31c0-.56.08-1.12.13-1.68,1.51.21,1.18,1.49,1.29,2.41a41.29,41.29,0,0,1,.06,4.22c.81-1.37-1-3.71,1.74-4.22a5.18,5.18,0,0,1,.59,3.32c-.09,2,.88,2.73,2.77,2.64a54.87,54.87,0,0,0,6.83-.23c3.68,1.32,7.67.15,11.35,1.47.44.65-.05.92-.49,1.21C180.82,167.39,179.1,167.65,177.47,166.54Z" class="cls-38" transform="translate(-0.58 -0.62)"/><path d="M158.43,125a1.56,1.56,0,0,1,0-1.16c3.26-2.4,6.78-4.39,10.25-6.46,1.22-.73,2.14-.78,2.49.86.14.65.34,1.28.49,1.93-.15,2.56,1.37,5.12,0,7.67-1.7-.73-2.68,0-3.54,1.5-1.39,2.47-3.31,4.36-6.43,4.38A45.12,45.12,0,0,1,158.43,125Z" class="cls-39" transform="translate(-0.58 -0.62)"/><path d="M387.7,248.24a13.63,13.63,0,0,1,2,2.45c.66.82,1.28,1.68,1.87,2.54a10.73,10.73,0,0,0,2.68,2.93.27.27,0,0,1,.08.24c-.09.15-.21.37-.33.38-1.43,0-2.87,0-4.3.06-.66,0-.77-.18-.48-.86.11-.25.38-.49.19-.78q-1.85-2.72-3.74-5.42a1,1,0,0,0-.46-.32.87.87,0,0,0-.54,0c-.14.05-.34.23-.35.35,0,1.43,0,2.87-.08,4.3a1.87,1.87,0,0,0,1.32,2c.22.09.24.25.19.48s-.13.28-.38.27h-5.45c-.25,0-.4-.11-.34-.31s.13-.41.25-.45a2.05,2.05,0,0,0,1.58-2.35c-.05-5.27,0-10.53,0-15.8,0-.1,0-.19,0-.29a2.3,2.3,0,0,0-1.67-2.66c-.06,0-.1-.15-.14-.23s0-.3.28-.34a3.1,3.1,0,0,1,.57,0,11.76,11.76,0,0,0,3.14-.27.48.48,0,0,1,.61.41c0,.86.07,1.72.08,2.58,0,3.54,0,7.09,0,10.63a.53.53,0,0,0,.61.41,3.71,3.71,0,0,0,.53-.21c.42-.24.82-.49,1.23-.74C387.59,246.88,387.17,248,387.7,248.24Z" class="cls-40" transform="translate(-0.58 -0.62)"/><path d="M171.07,119.81a1.49,1.49,0,0,1-.57-1.25,6.46,6.46,0,0,0-.21-1.1s-.17-.1-.23-.07a4.23,4.23,0,0,0-2,1.52,1.78,1.78,0,0,1-1.7.88,2.93,2.93,0,0,0-2.3,1,19,19,0,0,1-1.73,1.48,6,6,0,0,1-3.89,1.6,10.38,10.38,0,0,1,0-3.46c-.6-4.49,1.46-7.18,5.59-8.72,1.39-.52,2.46-1.81,3.72-2.68,2.38-1.62,3-1.37,3.54,1.48.08.38.18.75.27,1.12a5.73,5.73,0,0,1,.19.93,16.35,16.35,0,0,1,.11,2.44C171.67,116.58,172.36,118.36,171.07,119.81Z" class="cls-41" transform="translate(-0.58 -0.62)"/><path d="M171.07,111.75a1.38,1.38,0,0,1-.54-1c-.06-.66-.13-1.31-.21-2,0-.23-.51-.4-.71-.26-.85.59-1.71,1.17-2.54,1.8-1.06.8-2.08,1.63-3.12,2.45-.15.12-.28.31-.45.35-1.15.21-2,1.13-3.07,1.43-.45.12-1,.07-1.22.58a4.37,4.37,0,0,0-.22,1.38c0,.95,0,1.9,0,2.85a1.35,1.35,0,0,1-.51,1,44.25,44.25,0,0,1,0-7.49,1.36,1.36,0,0,0,.51-1c0-.86,0-1.72.06-2.58a1.37,1.37,0,0,1,.61-1.24,23.33,23.33,0,0,0,2.88-2.36,24.25,24.25,0,0,1,3-2.19,30.15,30.15,0,0,0,3.24-2.34,5.11,5.11,0,0,1,1-.5c.3-.13.67,0,.68.31,0,1.15.06,2.29.11,3.44a1.34,1.34,0,0,0,.54,1A5.68,5.68,0,0,1,171.07,111.75Z" class="cls-42" transform="translate(-0.58 -0.62)"/><path d="M161.27,158.39a1.55,1.55,0,0,0-.55,1.25c0,1.33,0,2.65,0,4a2.78,2.78,0,0,1-.19,1.1.87.87,0,0,1-.66.41.84.84,0,0,1-.65-.42,4.51,4.51,0,0,1-.2-1.38c0-2,0-4,0-6a1.55,1.55,0,0,0-.54-1.26c0-.57-.12-1.13-.12-1.7q0-8.82,0-17.64c0-.47.08-.94.13-1.41a2.92,2.92,0,0,1,3-.45,1.68,1.68,0,0,1,.79.71,4.63,4.63,0,0,1,.44,2.79c-1.06,6.34-.3,12.74-.82,19.1A2,2,0,0,1,161.27,158.39Z" class="cls-43" transform="translate(-0.58 -0.62)"/><path d="M238.82,241.81c.15-.11.29-.29.46-.32a5.9,5.9,0,0,1,4.18.48c.56.31.77.11.78-.63,0-1.25,0-2.49,0-3.74a2.32,2.32,0,0,0-1.7-2.64c-.06,0-.09-.15-.13-.24s0-.3.28-.34a3.33,3.33,0,0,1,.57,0,11.76,11.76,0,0,0,3.14-.27.48.48,0,0,1,.61.41c0,.76.08,1.53.08,2.29q0,7.33,0,14.66c0,.77,0,1.53,0,2.3a2,2,0,0,0,1.41,2.22c.32.1.54.5.81.76-2.15,1.08-4.33.2-6.5.1l-1.47.16a.91.91,0,0,1-.14-.8c3.48-3.23,2.23-7.37,2-11.22-.12-2-2.22-1.69-3.6-2.14A1.48,1.48,0,0,1,238.82,241.81Z" class="cls-44" transform="translate(-0.58 -0.62)"/><path d="M351.5,236.14a2.72,2.72,0,0,0-1.55-1.19c-.06,0-.09-.13-.11-.2-.07-.26,0-.35.3-.36.86,0,1.72,0,2.57-.12,1.81-.15,1.83-.16,1.83,1.71q0,7.6,0,15.19c0,.76,0,1.53,0,2.29a2.46,2.46,0,0,0,1.67,2.67c.1,0,.12.32.16.5s-.12.12-.19.12c-1.33.06-2.66.12-4,.14-.11,0-.23-.26-.35-.4-.17-.8-.8-1.39-1-2.18a72,72,0,0,0,0-11.08A13.38,13.38,0,0,0,351.5,236.14Z" class="cls-45" transform="translate(-0.58 -0.62)"/><path d="M285.72,236.24H292a.4.4,0,0,1,.21.34c0,.14,0,.22-.05.22a2.7,2.7,0,0,1-.47.46,4.19,4.19,0,0,0-.44.49c0,.11-.09.21-.13.31a5.4,5.4,0,0,0-.08,1.12c0,2.41.3,4.83-.22,7.22a7.53,7.53,0,0,1-.5.8c0,2.3,0,4.6,0,6.9A1.62,1.62,0,0,0,291.7,256a.68.68,0,0,1,.6.49.38.38,0,0,1,0,.28.35.35,0,0,1-.25.08l-6.32,0c-.27,0-.4-.07-.31-.33a.78.78,0,0,1,.3-.4c.25-.14.54-.19.8-.31a1.3,1.3,0,0,0,.82-1.08,12.54,12.54,0,0,0,.08-1.43q0-6.75,0-13.51a3.6,3.6,0,0,0-.54-2.47c-.34-.3-.84-.22-1.18-.52h0A.35.35,0,0,1,285.72,236.24Z" class="cls-46" transform="translate(-0.58 -0.62)"/><path d="M192.95,187.18l-3.55,0a1.39,1.39,0,0,0-1,.42c-.76,0-1.53.11-2.3.11H160.8a17.73,17.73,0,0,1-2-.12c-.12,0-.21-.28-.31-.43l20.65,0c1.59-1.24,3.46-.81,5.23-.83s2.52-.78,2.57-2.58c.05-1.95-.51-4,.85-5.79q0-3.17,0-6.34l.46-.12a1.5,1.5,0,0,1,.61.71c.22,2.67.42,5.28,3.81,6.07,1,.23,1,1.51,1,2.46s0,2.08.08,3.12A4.53,4.53,0,0,1,192.95,187.18Z" class="cls-47" transform="translate(-0.58 -0.62)"/><path d="M165.28,255.7a3.6,3.6,0,0,0,.51-1.62c0-.76,0-1.53,0-2.29q0-5.73,0-11.45a20,20,0,0,0-.09-2,1.38,1.38,0,0,0-.77-1.13,5.13,5.13,0,0,0-.78-.35c-.23-.07-.31-.17-.32-.37s.07-.31.33-.31l6,0a1.13,1.13,0,0,1,.46.19c.2.1,0,.31-.49.57-.26.13-.52.23-.78.36a1,1,0,0,0-.59.91c0,.57-.06,1.14-.06,1.71q0,6.59,0,13.17a9.49,9.49,0,0,0,.09,1.71,3.65,3.65,0,0,0,.52,1C167.81,257,166.64,256.93,165.28,255.7Z" class="cls-48" transform="translate(-0.58 -0.62)"/><path d="M244.8,133.63c0-.38,0-.75,0-1.13a2.4,2.4,0,0,1,1.55-2.18c.84-.41,1.74-.7,2.61-1.07a6.06,6.06,0,0,1,2.23-.24c0,2.72.1,5.43.12,8.15,0,.93-.08,1.87-.13,2.8a16.74,16.74,0,0,0-1.68.26c-.74.19-1.45.49-2.19.65a.84.84,0,0,1-.67-.39,4.36,4.36,0,0,1-.49-1.34,34.58,34.58,0,0,0-1.26-4.39A5.1,5.1,0,0,1,244.8,133.63Z" class="cls-49" transform="translate(-0.58 -0.62)"/><path d="M436.6,235.64c-.16-.39-.55-.49-.87-.67a.29.29,0,0,1-.14-.18c0-.24.07-.37.29-.39l3.68-.31a.56.56,0,0,1,.54.5c0,.76.06,1.52.06,2.28,0,5.24,0,10.48,0,15.71a8,8,0,0,0,.54,3.06c-.9,1.79-2.11,1.14-3.14.26a3.41,3.41,0,0,1-1-1.93,63.34,63.34,0,0,1-.08-9.85,18.67,18.67,0,0,0,.7-7.31A2.27,2.27,0,0,0,436.6,235.64Z" class="cls-50" transform="translate(-0.58 -0.62)"/><path d="M467,241.74c0-1.22.09-2.44.14-3.66a.76.76,0,0,1,.68-.75,16.1,16.1,0,0,1,1.68-.13c.12,0,.32.21.35.34a6.79,6.79,0,0,1,.1,1.11c0,1,.07,2.07.11,3.1a.55.55,0,0,1,0,.85c0,3.71,0,7.43-.05,11.14a5.41,5.41,0,0,0,.16,1.12,1.46,1.46,0,0,0,1.25,1,10.7,10.7,0,0,0,1.4-.19c.59-.14.79.1.66.67a3.76,3.76,0,0,1-4.48.42,2.88,2.88,0,0,1-1.32-1.44,5.64,5.64,0,0,1-.53-2.48c0-1.9,0-3.79,0-5.69,0-1.52,0-3-.06-4.55A.6.6,0,0,1,467,241.74Z" class="cls-51" transform="translate(-0.58 -0.62)"/><path d="M206.77,242.48c-.13.24-.37.48-.37.73,0,3.44,0,6.88,0,10.32a5,5,0,0,0,0,.57c.18,1.55,1,2,2.63,1.61.18,0,.36-.13.54-.19a.59.59,0,0,1,.13.89c-.29.61-.92.65-1.45.8a3.83,3.83,0,0,1-3-.54,2.85,2.85,0,0,1-1.32-1.81,12.44,12.44,0,0,1-.37-3.13c0-2.3,0-4.6,0-6.91a6,6,0,0,0-.21-2.28q-.48-.33,0-.7c.08-.66.19-1.31.24-2s.06-1.32.1-2a.63.63,0,0,1,.57-.55,11.46,11.46,0,0,1,1.7-.18c.12,0,.35.23.36.36,0,1.23,0,2.46,0,3.69a1.12,1.12,0,0,0,.58.68h0q.26.22.15.42T206.77,242.48Z" class="cls-52" transform="translate(-0.58 -0.62)"/><path d="M437.2,254c.16.34.34.67.47,1s.22,1,.73,1.12c.82.17,1.7.36,2.29-.55.44.17.88.34,1.31.52.07,0,.17.18.15.22s-.2.39-.31.4c-1.24.07-2.48.11-3.73.15a.79.79,0,0,1-.83-.62c-.1-.29-.31-.44-.61-.25s-.45.36-.69.5a5.53,5.53,0,0,1-7.88-2.75,8.54,8.54,0,0,1-.71-3.06,13.1,13.1,0,0,1,.53-5.1A6.63,6.63,0,0,1,431,242a3.42,3.42,0,0,1,.83-.2c.51-.24.8,0,1,.45a3.65,3.65,0,0,1-.75,2.38,10.42,10.42,0,0,0-.51,8c.81,2.66,1.94,3.1,4.35,1.73C436.32,254.15,436.68,253.79,437.2,254Z" class="cls-53" transform="translate(-0.58 -0.62)"/><path d="M495.9,244.18a8.61,8.61,0,0,0-.88,3.58c0,2.1,0,4.2,0,6.3a1.78,1.78,0,0,0,1.32,1.95c.08,0,.14.13.19.21a.77.77,0,0,1,.08.24c.05.26-.05.36-.31.36l-5.71,0c-.25,0-.33-.12-.24-.38a.89.89,0,0,1,.09-.24.44.44,0,0,1,.23-.17,1.71,1.71,0,0,0,1.46-1.82c0-.67,0-1.33,0-2,0-1.91,0-3.82,0-5.72,0-.76-.07-1.52-.13-2.28a1.88,1.88,0,0,0-1.1-1.55,6.12,6.12,0,0,1-.66-.48c.06-.06.12-.14.19-.17a1.51,1.51,0,0,1,.53-.16,17.53,17.53,0,0,0,3.41-.27c.11,0,.27.2.4.31C494.81,242.81,495.86,243.26,495.9,244.18Z" class="cls-54" transform="translate(-0.58 -0.62)"/><path d="M270.75,244.81a11.88,11.88,0,0,0-.59,4.52c0,1.44,0,2.88,0,4.31s.4,1.79,1.77,2.21a5.82,5.82,0,0,1,.78.32.25.25,0,0,1,.11.21c-.05.15-.15.4-.24.4-2.3,0-4.59,0-6.89,0-.07,0-.2-.09-.2-.13s0-.41.14-.5a2.88,2.88,0,0,1,.75-.38,1.23,1.23,0,0,0,.83-1.07,10.37,10.37,0,0,0,.06-1.15q0-4,0-8.06c0-.29,0-.58,0-.86a2,2,0,0,0-1.28-2,1.88,1.88,0,0,1-.46-.29.31.31,0,0,1-.11-.25.31.31,0,0,1,.24-.14c1.33-.13,2.65-.26,4-.36a.53.53,0,0,1,.39.34c.07.57.08,1.14.12,1.71A1.62,1.62,0,0,1,270.75,244.81Z" class="cls-55" transform="translate(-0.58 -0.62)"/><path d="M458.53,256.4a7.81,7.81,0,0,0,1-.63,2.67,2.67,0,0,0,.12-3.64,8.72,8.72,0,0,0-1.29-1.13c-.78-.56-1.61-1-2.39-1.6a14.16,14.16,0,0,1-1.78-1.44,3.78,3.78,0,0,1-1.1-3.15,3.19,3.19,0,0,1,2-2.91c.65-.29,1.25-.48,1.18.62a2.05,2.05,0,0,0-.71,1.52,2,2,0,0,0,.68,1.81c.67.54,1.36,1,2.06,1.55.93.67,1.9,1.29,2.82,2a5.39,5.39,0,0,1,1.5,1.71,3.93,3.93,0,0,1-1,5.14,2.65,2.65,0,0,1-1.83.73C459.11,257.19,458.53,257.45,458.53,256.4Z" class="cls-50" transform="translate(-0.58 -0.62)"/><path d="M415.83,243.57a7.12,7.12,0,0,0-1.26,4.33c0,2.11,0,4.21,0,6.32,0,.82.18,1.53,1.14,1.74.16,0,.29.22.41.36a.37.37,0,0,1,0,.28c0,.06-.09.16-.14.16-.67,0-1.33.07-2,.07-1.34,0-2.68,0-4,0-.06,0-.14-.08-.17-.15a.32.32,0,0,1,.13-.49,5.31,5.31,0,0,1,.77-.36,1.38,1.38,0,0,0,.88-1,4.23,4.23,0,0,0,.12-1.14c0-2.78,0-5.55,0-8.33,0-.19,0-.38,0-.57a2.21,2.21,0,0,0-1.55-2.18c-.21-.07-.39-.15-.34-.38a.48.48,0,0,1,.34-.29c.67,0,1.34,0,2-.08s1.13-.18,1.7-.23a.58.58,0,0,1,.63.47,5.35,5.35,0,0,0,.24,1.1c.14.29.46.19.69,0C415.76,243.1,415.9,243.24,415.83,243.57Z" class="cls-56" transform="translate(-0.58 -0.62)"/><path d="M448.7,248.43q0,2.87,0,5.73a1.54,1.54,0,0,0,1.19,1.72,1,1,0,0,1,.49.27,1,1,0,0,1,.15.49s-.12.14-.18.14l-6.28,0s-.08-.14-.09-.22a.46.46,0,0,1,0-.26.4.4,0,0,1,.21-.19,2.05,2.05,0,0,0,1.63-2.31c-.07-2.86,0-5.73,0-8.6a2.42,2.42,0,0,0-1.64-2.69c-.13,0-.18-.29-.27-.44a.89.89,0,0,1,.26-.12l4-.35c.24,0,.38.06.41.3a10.42,10.42,0,0,1,.13,1.13c0,1.82,0,3.63,0,5.45Z" class="cls-57" transform="translate(-0.58 -0.62)"/><path d="M334.68,256.39c.24-.15.48-.29.71-.46a2.61,2.61,0,0,0,.12-4,12.33,12.33,0,0,0-1.78-1.4c-.93-.65-1.9-1.24-2.81-1.91a4.53,4.53,0,0,1-1.64-2.26,3.67,3.67,0,0,1,0-2.49,2.83,2.83,0,0,1,1.87-2c.6-.3,1.17-.51,1.15.53a2.3,2.3,0,0,0-.7,1.22,2,2,0,0,0,.55,2.11,25,25,0,0,0,2.28,1.72c1,.73,2,1.41,3,2.16a4.82,4.82,0,0,1,1.46,2.08,3.89,3.89,0,0,1-1.19,4.39,3.58,3.58,0,0,1-2.35.9C334.77,257.23,334.59,257,334.68,256.39Z" class="cls-51" transform="translate(-0.58 -0.62)"/><path d="M222.9,255.74c-2.1,2-4.5,1.9-6.93.86a6,6,0,0,1-3.38-4.39,11.51,11.51,0,0,1,.07-5.7c.56-2.08,1.56-3.92,3.84-4.64a1.54,1.54,0,0,1,1.09-.16.74.74,0,0,1,.38.61,2,2,0,0,1-.26.72,10.54,10.54,0,0,0-1.82,4.16,3.7,3.7,0,0,0-.37.68c0,.85-.11,1.7-.14,2.56a5.9,5.9,0,0,0,.81,3c.94,1.73,2.78,3.19,5.52,1.88.17-.08.35-.14.53-.21C222.84,254.93,223,255.19,222.9,255.74Z" class="cls-58" transform="translate(-0.58 -0.62)"/><path d="M185,248.29c0,1.62,0,3.25,0,4.87a7.91,7.91,0,0,0,.09,1.42,1.44,1.44,0,0,0,1,1.25,3.22,3.22,0,0,1,.74.39c.05,0,.07.15.08.23,0,.26-.06.36-.3.36l-6,0c-.07,0-.2-.08-.2-.11a1.85,1.85,0,0,1,.1-.52.33.33,0,0,1,.22-.17c1.05-.18,1.38-.91,1.38-1.86,0-3.15,0-6.3,0-9.45a2,2,0,0,0-1.49-2.17c-.12,0-.18-.29-.26-.44a1.21,1.21,0,0,1,.25-.13,3.35,3.35,0,0,1,.55-.1l3.13-.26c.26,0,.61.2.62.43,0,.76.08,1.52.08,2.29C185,245.61,185,247,185,248.29Z" class="cls-59" transform="translate(-0.58 -0.62)"/><path d="M362.94,248.2c0,1.62,0,3.24,0,4.87a10.45,10.45,0,0,0,.06,1.43,1.5,1.5,0,0,0,1,1.3c.26.1.52.23.77.35a.31.31,0,0,1,.15.48c0,.07-.1.17-.15.17l-6.28,0s0-.15-.05-.24,0-.24,0-.27a3.76,3.76,0,0,1,.73-.42,1.21,1.21,0,0,0,.87-1,4.55,4.55,0,0,0,.06-.57c0-3.15,0-6.3,0-9.44a2.11,2.11,0,0,0-1.39-2.25c-.14-.05-.23-.27-.32-.42s.09-.14.15-.15c.37-.06.74-.11,1.11-.15.95-.09,1.89-.18,2.84-.23.11,0,.33.21.34.34a14.44,14.44,0,0,1,.12,1.7C363,245.15,362.94,246.68,362.94,248.2Z" class="cls-60" transform="translate(-0.58 -0.62)"/><path d="M421.65,241.91a2.62,2.62,0,0,1,1.67,2.13,15,15,0,0,1,.19,2.56c0,1.91,0,3.82,0,5.72,0,.67,0,1.34,0,2a1.59,1.59,0,0,0,1.36,1.6.43.43,0,0,1,.25.13,1.4,1.4,0,0,1,.26.44c.08.25-.05.33-.32.33l-5.71,0c-.27,0-.37-.1-.29-.34,0-.08,0-.21.08-.25a5.41,5.41,0,0,1,.73-.44,1,1,0,0,0,.63-.87c.06-.57.13-1.14.13-1.71q0-3.43,0-6.87c0-.67-.07-1.33-.12-2a2,2,0,0,0-1.79-1.91c-.41-.19-.72-.43-.55-1a4.59,4.59,0,0,1,2.27,0C420.83,241.69,421.33,241.58,421.65,241.91Z" class="cls-61" transform="translate(-0.58 -0.62)"/><path d="M195.27,256.34a2.87,2.87,0,0,0,1.33-2.1,2.71,2.71,0,0,0-.81-2.35,20.63,20.63,0,0,0-1.81-1.4c-.7-.5-1.45-.93-2.14-1.44a11.63,11.63,0,0,1-1.5-1.33,3.94,3.94,0,0,1,.54-5.61,3,3,0,0,1,.8-.27c.67-.2.84.11.73.71-.09.17-.2.33-.27.5a2.16,2.16,0,0,0,.44,2.82,15.63,15.63,0,0,0,1.58,1.2c.7.48,1.44.92,2.13,1.41a16.79,16.79,0,0,1,1.57,1.22,4.49,4.49,0,0,1,1.4,4.63,2.16,2.16,0,0,1-.34.77,3.62,3.62,0,0,1-3,1.84C195.29,257.2,195.17,256.89,195.27,256.34Z" class="cls-62" transform="translate(-0.58 -0.62)"/><path d="M370.38,242.52a3,3,0,0,0-.63,1.55,2,2,0,0,0,.54,1.56,21.25,21.25,0,0,0,1.75,1.43c.69.5,1.45.89,2.14,1.4a18.92,18.92,0,0,1,2,1.63,4.24,4.24,0,0,1,1.08,4.19,2.33,2.33,0,0,1-.34.77,3.62,3.62,0,0,1-3,1.91c-.57.2-1.19.52-1.2-.53a3.74,3.74,0,0,0,.77-.37,2.77,2.77,0,0,0,.34-4,11.86,11.86,0,0,0-1.52-1.29c-.61-.45-1.28-.82-1.91-1.25a17.35,17.35,0,0,1-1.6-1.2,4.1,4.1,0,0,1-1.18-4.67,2.4,2.4,0,0,1,2-1.8C370.35,241.57,370.5,241.91,370.38,242.52Z" class="cls-63" transform="translate(-0.58 -0.62)"/><path d="M254,248.28a11.55,11.55,0,0,0,.49,4.2,6.92,6.92,0,0,0,1.12,2,3.48,3.48,0,0,0,3,1.36l1.13-.06c.65-.34,1.16-.41,1.16.57-2.72,2.11-7.85.83-9.23-3a8.19,8.19,0,0,1-.59-2.48,11.92,11.92,0,0,1,.64-5.33,5.68,5.68,0,0,1,3.41-3.59,1.26,1.26,0,0,1,1.07-.18.77.77,0,0,1,.37.62,2.22,2.22,0,0,1-.23.73,18,18,0,0,0-1.78,4.2A4.83,4.83,0,0,1,254,248.28Z" class="cls-64" transform="translate(-0.58 -0.62)"/><path d="M501.9,241.83a1.71,1.71,0,0,1,1.37.93,4.09,4.09,0,0,1,.73,2.15c0,1.15,0,2.3,0,3.45,0,1.82,0,3.64,0,5.46,0,1.07.29,1.87,1.44,2.15a1.19,1.19,0,0,1,.47.32s0,.17,0,.26a.36.36,0,0,1-.1.22.5.5,0,0,1-.28.07l-5.74,0c-.07,0-.2-.08-.2-.12a.74.74,0,0,1,.59-.81,1.33,1.33,0,0,0,.9-1.32c0-.1,0-.19,0-.29q0-4.6,0-9.19c0-.1,0-.19,0-.29a2.29,2.29,0,0,0-1.73-2.35.6.6,0,0,1,0-1h1.14A5.78,5.78,0,0,0,501.9,241.83Z" class="cls-65" transform="translate(-0.58 -0.62)"/><path d="M320.22,237.81c.11-.15.19-.39.32-.42a11.77,11.77,0,0,1,1.39-.22.71.71,0,0,1,.81.58c0,1.13-.05,2.25-.08,3.38a2.68,2.68,0,0,1,0,2.16c0,1.14.11,2.27.12,3.41,0,2.09,0,4.19,0,6.28a8,8,0,0,0,.3,2,3.44,3.44,0,0,0,.62.92c.41.61,1.83-.49,1.71,1a3.54,3.54,0,0,1-3.72-.18,2.79,2.79,0,0,1-1.42-2,9.32,9.32,0,0,1-.12-3.89A76.39,76.39,0,0,1,320.22,237.81Z" class="cls-66" transform="translate(-0.58 -0.62)"/><path d="M349.6,256.83a5,5,0,0,1-4.45-.07,4.88,4.88,0,0,1-2.7-2.85,11.28,11.28,0,0,1-.16-8.42,5.36,5.36,0,0,1,3.74-3.67c.59-.21,1.14-.28,1.45.44-1.44,2.83-2.52,5.7-1.9,9,.41,2.16,1.32,3.76,3.44,4.53C349.41,256,349.72,256.32,349.6,256.83Z" class="cls-67" transform="translate(-0.58 -0.62)"/><path d="M484.41,256.88c-1.7.86-3.34.35-4.92-.33a5.56,5.56,0,0,1-3-3.29,10.69,10.69,0,0,1,.19-8,6.42,6.42,0,0,1,2.74-3.17,3.15,3.15,0,0,1,.81-.22c.47-.24.75,0,1,.39.19,1.31-.81,2.1-1.33,3.1a2.12,2.12,0,0,0-.39,1.23,6.32,6.32,0,0,1,.07.64,1.09,1.09,0,0,1-.23.59h0c-.55.26-.4.84-.59,1.27.12.74.24,1.48.35,2.22a5.26,5.26,0,0,0,3.59,4.59C483.1,256.46,484.54,255.37,484.41,256.88Z" class="cls-68" transform="translate(-0.58 -0.62)"/><path d="M241.35,256.33l0,.64c-.07.06-.14.16-.23.17a5.25,5.25,0,0,1-5.66-2.41,7,7,0,0,1-1.06-2.94,18,18,0,0,1,0-4.58,6.79,6.79,0,0,1,3.31-5.1,4.21,4.21,0,0,1,1.09-.3l.8.66c.2,1.89-1.44,3.19-1.54,5.05C237.88,251,238.11,254.19,241.35,256.33Z" class="cls-69" transform="translate(-0.58 -0.62)"/><path d="M311.58,247.6a8.63,8.63,0,0,0,.11-3.87,2.48,2.48,0,0,0-.67-1.2c-.71-.93-2.31.46-2.79-1.07a9.23,9.23,0,0,1,3.36,0c.26.09.45.32.75.31a2.78,2.78,0,0,1,2.13,2.41,19.2,19.2,0,0,1,.21,3.13c0,2.09,0,4.19,0,6.28,0,.47,0,.95.09,1.42s.46.74,1,.72c.19,0,.38-.13.55-.09a1,1,0,0,1,.41.32s-.06.18-.13.24a3.52,3.52,0,0,1-.92.63,4.36,4.36,0,0,1-2.26.07,1.51,1.51,0,0,1-1.36-1.58,1.78,1.78,0,0,1-.8-1.54C311.63,251.74,311.15,249.65,311.58,247.6Z" class="cls-70" transform="translate(-0.58 -0.62)"/><path d="M403.12,247.58a7.45,7.45,0,0,0,.15-3.84,2.42,2.42,0,0,0-.67-1.19c-.71-.93-2.31.46-2.79-1.07a9.26,9.26,0,0,1,3.36,0c.26.09.45.32.75.31a2.81,2.81,0,0,1,2.14,2.41,16,16,0,0,1,.21,2.84c0,2.09,0,4.19,0,6.28,0,.57,0,1.14.09,1.71s.46.74,1,.72c.19,0,.38-.12.55-.09a1,1,0,0,1,.41.32s-.06.18-.13.24a3.54,3.54,0,0,1-.92.63,4.33,4.33,0,0,1-2.26.07,1.52,1.52,0,0,1-1.36-1.58,1.76,1.76,0,0,1-.8-1.54C403.2,251.72,402.77,249.64,403.12,247.58Z" class="cls-70" transform="translate(-0.58 -0.62)"/><path d="M295.69,246.63a6.25,6.25,0,0,0,.89.64,4.43,4.43,0,0,1,2.29,3c.25.9.43,1.82.66,2.73.14.54.27,1.09.45,1.62.35,1.11.45,1.16,1.88,1.09.52-.29.59,0,.51.42a2.63,2.63,0,0,1-2.2,1.12,2.78,2.78,0,0,1-1.89-.52,2.62,2.62,0,0,1-.93-1.05,12.92,12.92,0,0,1-.7-2.16c-.31-1.2-.56-2.41-.85-3.61a5.28,5.28,0,0,0-1.51-2.68.69.69,0,0,1-.07-.77,1.36,1.36,0,0,1,.78-.29A1.06,1.06,0,0,1,295.69,246.63Z" class="cls-71" transform="translate(-0.58 -0.62)"/><path d="M295.69,246.63l-.72-.1a.89.89,0,0,1-.33-.71c2.49-2.89,1.83-5.82.12-8.77.33-.68.85-.64,1.42-.38a4.37,4.37,0,0,1,3.07,1.85,5,5,0,0,1-.09,5.84A5.35,5.35,0,0,1,295.69,246.63Z" class="cls-64" transform="translate(-0.58 -0.62)"/><path d="M311.65,254.13l.49,1.2a1.71,1.71,0,0,0-1.26.55,5.34,5.34,0,0,1-4.57,1,3.24,3.24,0,0,1-2.53-3.84,3.56,3.56,0,0,1,1.1-2c.51-.43,1-.82,1.58-1.22a6.62,6.62,0,0,1,.7-.41.38.38,0,0,0,.45-.15,1.26,1.26,0,0,1,.79-.13.77.77,0,0,1,.48,1,2.55,2.55,0,0,1-.27.5c-.76,1.07-2,2.11-.9,3.53s2.41,0,3.61-.29Z" class="cls-72" transform="translate(-0.58 -0.62)"/><path d="M161.28,135.36h-2.84a2.64,2.64,0,0,1-.11-.55c0-3.27-.18-6.54.11-9.81a3.68,3.68,0,0,1,.56.63,49.3,49.3,0,0,1,2.77,6.86,4.53,4.53,0,0,1,.1,1.13C162.5,134.48,161.94,134.94,161.28,135.36Z" class="cls-73" transform="translate(-0.58 -0.62)"/><path d="M403.21,254.31a1.37,1.37,0,0,1,.51,1,1.73,1.73,0,0,0-1.27.56,5.18,5.18,0,0,1-4,1.09,3.13,3.13,0,0,1-2.76-1.77,3.27,3.27,0,0,1,.3-3.53,4.17,4.17,0,0,1,2.53-1.76c.48-.28.74,0,1,.39a1.94,1.94,0,0,1,0,.82c-.22,1.12-1.18,2.32.08,3.34s2.19-.53,3.32-.65C403.19,253.83,403.3,254,403.21,254.31Z" class="cls-74" transform="translate(-0.58 -0.62)"/><path d="M256.35,241.45a7.41,7.41,0,0,1,2.83,0c.26.1.45.36.77.31a3.53,3.53,0,0,1,2.36,1.92,6,6,0,0,1,.86,3.55.72.72,0,0,1-.57.54,5.72,5.72,0,0,1-2.27-.07,4.72,4.72,0,0,1-.47-.62,21.92,21.92,0,0,0-1.39-3.85,2,2,0,0,0-.74-.62c-.31-.09-.63-.18-.93-.3a2.29,2.29,0,0,1-.51-.42l0,0q-.29-.18-.18-.34C256.21,241.5,256.28,241.45,256.35,241.45Z" class="cls-75" transform="translate(-0.58 -0.62)"/><path d="M221.32,241.82a3.64,3.64,0,0,1,2.66,2.75c.79,3,1.26,3.55-2.52,3.2a1.58,1.58,0,0,1-.28-.08l-.24-.29c0-.12,0-.25,0-.37a3.79,3.79,0,0,0-.13-2.44c-.3-.5-.66-1-1-1.43a2.08,2.08,0,0,0-.71-.59c-.29-.09-.59-.16-.88-.27a2.06,2.06,0,0,1-.47-.4l0,0q-.29-.18-.18-.35c.07-.11.14-.16.2-.16a7,7,0,0,1,2.83.07C220.85,241.57,221,241.79,221.32,241.82Z" class="cls-76" transform="translate(-0.58 -0.62)"/><path d="M485,241.9c1.76.54,2.41,2,2.81,3.57a8.79,8.79,0,0,1,.12,1.68.69.69,0,0,1-.73.67c-.75,0-1.5-.07-2.24-.11a3.47,3.47,0,0,1-.49-.72c-.18-1.59-1-3-.93-4.68A.9.9,0,0,1,485,241.9Z" class="cls-64" transform="translate(-0.58 -0.62)"/><path d="M447.14,238.41a2,2,0,0,1-2-1.69,1.92,1.92,0,1,1,3.8-.45A2,2,0,0,1,447.14,238.41Z" class="cls-77" transform="translate(-0.58 -0.62)"/><path d="M165.28,255.7c.2.18.4.5.62.52a23.15,23.15,0,0,0,2.78,0c.23,0,.44-.3.66-.47l5.23.09c1.28.42,2.75-.86,3.94.44a3.08,3.08,0,0,1-.22.49c0,.06-.18.07-.27.07H164a.3.3,0,0,1-.33-.36.76.76,0,0,1,.21-.47,1.19,1.19,0,0,1,.52-.21C164.72,255.78,165,255.75,165.28,255.7Z" class="cls-78" transform="translate(-0.58 -0.62)"/><path d="M183.46,234.45a2.09,2.09,0,0,1,2,2,2.15,2.15,0,0,1-1.84,1.9,2.09,2.09,0,0,1-2.11-1.91A2.07,2.07,0,0,1,183.46,234.45Z" class="cls-74" transform="translate(-0.58 -0.62)"/><path d="M361.41,238.41a2.08,2.08,0,0,1-2-2,2,2,0,0,1,1.77-1.92,2.08,2.08,0,0,1,2.17,1.84A2.15,2.15,0,0,1,361.41,238.41Z" class="cls-79" transform="translate(-0.58 -0.62)"/><path d="M307.52,242.39c-.27.12-.49.35-.39.63.16.43.47.81.63,1.24a1.7,1.7,0,0,1-.93,2.1,1.66,1.66,0,0,1-2.27-1,2.17,2.17,0,0,1,.35-2.12,3.08,3.08,0,0,1,2.09-1.3C307.61,241.62,307.64,241.93,307.52,242.39Z" class="cls-80" transform="translate(-0.58 -0.62)"/><path d="M399.11,242.39c-.27.12-.49.35-.39.63.16.43.47.81.63,1.24a1.69,1.69,0,0,1-.93,2.1,1.67,1.67,0,0,1-2.27-1,2.16,2.16,0,0,1,.36-2.12,3.09,3.09,0,0,1,2.09-1.3C399.19,241.62,399.23,241.93,399.11,242.39Z" class="cls-80" transform="translate(-0.58 -0.62)"/><path d="M387.7,248.24c-.58-.14-.66-.8-1.1-1.08.74-.85,1.49-1.7,2.22-2.56a5.89,5.89,0,0,0,.46-.71.84.84,0,0,0-.26-1c-.39-.22-.8-.4-1.19-.62-.19-.11-.17-.22,0-.28s.15-.11.23-.11h4.82c.07,0,.21.08.2.12s0,.42-.1.45a8.69,8.69,0,0,0-3.14,2.39c-.63.71-1.28,1.4-1.94,2.07C387.5,247.32,387.67,247.78,387.7,248.24Z" class="cls-81" transform="translate(-0.58 -0.62)"/><path d="M275.95,241.9A1.88,1.88,0,0,1,277,244a1.75,1.75,0,0,1-2.74,1.29,1.42,1.42,0,0,1-.66-1.17c-.05-.61.37-1,.49-1.58s-.8-.52-.47-1.1a2.5,2.5,0,0,1,1.69.08A2.09,2.09,0,0,1,275.95,241.9Z" class="cls-82" transform="translate(-0.58 -0.62)"/><path d="M455,256.36a1.42,1.42,0,0,0-1.26.4.52.52,0,0,1-.84-.33c0-1.6.08-3.19.15-4.79,0-.13.21-.28.34-.38s.49.06.57.39.07.37.12.55a9.43,9.43,0,0,1,.3,1.09,5.42,5.42,0,0,0,1.24,2.5C455.7,256.31,455.61,256.64,455,256.36Z" class="cls-83" transform="translate(-0.58 -0.62)"/><path d="M331.12,256.37a1.34,1.34,0,0,0-1.27.3c-.44.37-.9.07-.89-.52,0-1.51.08-3,.14-4.53,0-.12.22-.3.36-.32a.58.58,0,0,1,.47.17,1.41,1.41,0,0,1,.16.53c.14.55.31,1.09.42,1.64a4.68,4.68,0,0,0,1.22,2.2C331.8,256.34,331.75,256.69,331.12,256.37Z" class="cls-84" transform="translate(-0.58 -0.62)"/><path d="M432.61,242.56l-.79-.74a1.22,1.22,0,0,1,1-.46c1,0,2.05,0,3.08.05,1.13.35.94-.51,1-1.12.18-1.38-.41-2.82.36-4.15a1.34,1.34,0,0,1,.5,1c0,1.58,0,3.15,0,4.73a4.34,4.34,0,0,1-.62,1.83A8.37,8.37,0,0,1,432.61,242.56Z" class="cls-85" transform="translate(-0.58 -0.62)"/><path d="M347.3,242.44c-.24-.56-.82-.46-1.26-.63a1.21,1.21,0,0,1,1-.48c1,0,2.09,0,3.14,0a.9.9,0,0,0,1.25,0,24.18,24.18,0,0,0,.08-5.21,1.22,1.22,0,0,1,.5,1c0,1.59,0,3.18,0,4.77a2,2,0,0,1-.77,1.44l-.24-.19a4.08,4.08,0,0,1-1,.21C349.07,243.18,348,243.33,347.3,242.44Z" class="cls-86" transform="translate(-0.58 -0.62)"/><path d="M320.22,237.81c0,3.2.11,6.4.12,9.61,0,1.13-.11,2.25-.17,3.38a4.55,4.55,0,0,1-.2-2c0-1.79,0-3.59,0-5.39,0-.55-.3-.81-.87-.89l-1.38-.2c-.07,0-.18-.12-.17-.15a.57.57,0,0,1,.16-.23c.06-.06.14-.15.21-.15,2.2-.09,2.07-.29,2.08-2.4A2.65,2.65,0,0,1,320.22,237.81Z" class="cls-87" transform="translate(-0.58 -0.62)"/><path d="M336.43,242.35c.62.15,1.09,0,1.28-.67,0-.08.33-.16.48-.12s.34.21.34.33c0,1.12,0,2.24,0,3.37a2.28,2.28,0,0,1-.14.82c-.05.13-.28.19-.44.25a.28.28,0,0,1-.25-.09c-.29-.78-.55-1.57-.83-2.36a.94.94,0,0,0-.54-.77l0,0A.49.49,0,0,1,336.43,242.35Z" class="cls-88" transform="translate(-0.58 -0.62)"/><path d="M460.83,242.47c.44-.06.55-.44.77-.74a.58.58,0,0,1,.47-.2c.14,0,.37.22.37.34,0,1.42-.06,2.84-.11,4.26,0,0-.14.13-.21.13s-.46,0-.5-.07c-.5-1-1-2-1.43-3.06C460,242.57,460.21,242.3,460.83,242.47Z" class="cls-89" transform="translate(-0.58 -0.62)"/><path d="M375,242.48c.53-.07.71-.57,1.05-.88.19-.17.33-.2.48,0s.16.13.16.2q0,2.12-.06,4.25a.29.29,0,0,1-.39.29c-.17,0-.44-.1-.48-.21a14.4,14.4,0,0,0-1.37-3.1C374.32,242.5,374.4,242.2,375,242.48Z" class="cls-90" transform="translate(-0.58 -0.62)"/><path d="M178.51,256.3l-2.72,0a1.64,1.64,0,0,1-1.23-.48,3.2,3.2,0,0,0,2.54-2.23c.14-.43.26-.87.39-1.31,1.45.27.32,1.67,1,2.28Z" class="cls-91" transform="translate(-0.58 -0.62)"/><path d="M197,242.48a1.44,1.44,0,0,0,.9-.61c.14-.18.28-.55.62-.29a.65.65,0,0,1,.23.45c0,1.31-.06,2.63-.09,3.94,0,.25-.11.38-.34.33a1.6,1.6,0,0,1-.47-.21.38.38,0,0,1-.14-.23,9,9,0,0,0-1.61-3.25A.56.56,0,0,1,197,242.48Z" class="cls-92" transform="translate(-0.58 -0.62)"/><path d="M190.16,256.51c-.13.11-.27.31-.38.3s-.36-.22-.36-.34a23.84,23.84,0,0,1,.15-5.09s.16-.06.24-.07.23,0,.26,0a1.93,1.93,0,0,1,.41.73,16.11,16.11,0,0,0,.81,3C191.73,256.18,190.23,255.79,190.16,256.51Z" class="cls-93" transform="translate(-0.58 -0.62)"/><path d="M403.12,247.58a3.73,3.73,0,0,1,.73,2.37c0,.94,0,1.88,0,2.82a2.42,2.42,0,0,1-.61,1.54l-.11-.14.1-.15a2.32,2.32,0,0,1-.67-2.08c.11-1.65-.83-1.89-2.14-1.74a1.22,1.22,0,0,1-.78-.87A2,2,0,0,1,400,249C401.06,248.49,402.09,248,403.12,247.58Z" class="cls-94" transform="translate(-0.58 -0.62)"/><path d="M308.73,249.84l-.6-.45a.3.3,0,0,1,.22-.48c1.24,0,2.15-.89,3.24-1.31a4,4,0,0,1,.67,2.14c0,1,0,2.09,0,3.14a1.63,1.63,0,0,1-.58,1.25V254a1.65,1.65,0,0,1-.65-1.48C311.19,250.81,310.25,250.1,308.73,249.84Z" class="cls-95" transform="translate(-0.58 -0.62)"/><path d="M368.13,256.45c-.12.12-.23.34-.36.35s-.4-.17-.41-.28a21,21,0,0,1,.15-5.1c.07-.38-.13.06.23-.08.08,0,.26,0,.27,0a6,6,0,0,1,.49,1.33,11,11,0,0,0,.75,2.44C369.67,256.22,368.26,255.79,368.13,256.45Z" class="cls-96" transform="translate(-0.58 -0.62)"/><path d="M212,187.63a2,2,0,0,1,1.58-.43l8.16,0q0,.21,0,.41A77.67,77.67,0,0,1,212,187.63Z" class="cls-12" transform="translate(-0.58 -0.62)"/><path d="M460.83,242.47l-.64.66a4.23,4.23,0,0,0-4-.62c-.16-.66-.76-.46-1.18-.62.22-.16.41-.42.65-.47C457.53,241.05,459.33,241,460.83,242.47Z" class="cls-97" transform="translate(-0.58 -0.62)"/><path d="M368.13,256.45a4.79,4.79,0,0,1,.4-.63c.22-.25.48-.47.72-.71.22.16.44.32.64.5a2.67,2.67,0,0,0,1.73.71,10.1,10.1,0,0,1,1.08.11l1.2.53a2.72,2.72,0,0,1-2.38.37,6.77,6.77,0,0,1-2.34-.8C368.92,256.36,368.49,256.46,368.13,256.45Z" class="cls-98" transform="translate(-0.58 -0.62)"/><path d="M484.41,256.88a1,1,0,0,0-.83-.55,1.25,1.25,0,0,1-.89-.48c.28,0,.57-.09.85-.09a4.18,4.18,0,0,0,3-1.47l.78-.8a.9.9,0,0,1,.47.51,4.54,4.54,0,0,1-3.1,2.89A.79.79,0,0,1,484.41,256.88Z" class="cls-99" transform="translate(-0.58 -0.62)"/><path d="M190.16,256.51a1.32,1.32,0,0,1,.61-.84,3.51,3.51,0,0,0,.52-.61,2.12,2.12,0,0,1,.44.32,2.84,2.84,0,0,0,2.45,1c.36,0,.73,0,1.09,0l.65.61a2.41,2.41,0,0,1-2.1.37,6.14,6.14,0,0,1-2.6-.89C190.88,256.21,190.51,256.43,190.16,256.51Z" class="cls-100" transform="translate(-0.58 -0.62)"/><path d="M273.63,241.43l.6.52c.24.21.24.21-.12.58a2.26,2.26,0,0,0-2.05.8c-.45.48-.86,1-1.3,1.49a1,1,0,0,1-.59-1.2c.72-.15,1-.85,1.48-1.24S272.78,241.35,273.63,241.43Z" class="cls-101" transform="translate(-0.58 -0.62)"/><path d="M251.17,187.21c-.76,0-1.52-.07-2.28-.14-.07,0-.21-.37-.16-.44a7.09,7.09,0,0,1,2.48-2.33A6.35,6.35,0,0,1,251.17,187.21Z" class="cls-12" transform="translate(-0.58 -0.62)"/><path d="M260.91,256.29c-.21-.54-.76-.4-1.16-.57a8.31,8.31,0,0,0,2.62-2.45c.17-.25.6-.28.7-.08s.2.38.15.51A3.94,3.94,0,0,1,260.91,256.29Z" class="cls-102" transform="translate(-0.58 -0.62)"/><path d="M375,242.48l-.59.53a2.09,2.09,0,0,1-.25-.13,3.59,3.59,0,0,0-3.79-.36l-.74-.69c.14-.12.26-.32.41-.35C371.85,241.13,373.57,241.11,375,242.48Z" class="cls-100" transform="translate(-0.58 -0.62)"/><path d="M242.84,256.8c.25-.26.5-.54.77-.78s.48-.13.6.2.23.73.68.72c1.48-.06,3-.15,4.45-.23-.16.35-.39.67-.79.69-1.29,0-2.6.11-3.89,0A7.38,7.38,0,0,1,242.84,256.8Z" class="cls-103" transform="translate(-0.58 -0.62)"/><path d="M197,242.48l-.89.13a1.8,1.8,0,0,1-.27,0,4.1,4.1,0,0,0-3.46,0l-.73-.71c.06-.07.12-.17.19-.2A4.76,4.76,0,0,1,197,242.48Z" class="cls-100" transform="translate(-0.58 -0.62)"/><path d="M437.26,236.15c0,1.71,0,3.42,0,5.13,0,.68-.45.8-1.18.34a1.25,1.25,0,0,1-.2-.2,1.28,1.28,0,0,0,.65-.9c.06-.57.07-1.15.08-1.72,0-1.05,0-2.11,0-3.16C437,235.64,437.1,235.91,437.26,236.15Z" class="cls-103" transform="translate(-0.58 -0.62)"/><path d="M455,256.36l.64-.58c.89.63,1.94.48,2.93.62.28.41.79.34,1.17.53a2.53,2.53,0,0,1-2.17.43A3.57,3.57,0,0,1,455,256.36Z" class="cls-104" transform="translate(-0.58 -0.62)"/><path d="M260.26,246.94l.08.78a28.85,28.85,0,0,1-4.73.16,2.64,2.64,0,0,0-1.59.4l.07-1.32A6.63,6.63,0,0,1,260.26,246.94Z" class="cls-105" transform="translate(-0.58 -0.62)"/><path d="M485,241.9c-.45.13-1,.07-1.22.66a3.47,3.47,0,0,1-2.85-.08l-.71-.65c.14-.12.27-.31.43-.35a8.23,8.23,0,0,1,3.66,0A2.39,2.39,0,0,1,485,241.9Z" class="cls-106" transform="translate(-0.58 -0.62)"/><path d="M473.49,256.35a1,1,0,0,0-.66-.67c.42-.82.83-1.64,1.28-2.44a.64.64,0,0,1,.44-.21.51.51,0,0,1,.48.56A5.21,5.21,0,0,1,474,256.1,1.53,1.53,0,0,1,473.49,256.35Z" class="cls-107" transform="translate(-0.58 -0.62)"/><path d="M331.12,256.37l.62-.53a6.78,6.78,0,0,0,2.94.54l.71.63c-.15.1-.29.26-.45.29a5.08,5.08,0,0,1-3.66-.71C331.21,256.56,331.17,256.45,331.12,256.37Z" class="cls-108" transform="translate(-0.58 -0.62)"/><path d="M495.9,244.18c-.21-.24-.49-.12-.74-.17s-.37-.18-.37-.28c0-.62,0-1.24,0-1.86a2.8,2.8,0,0,1,.32.42c.38.76.38.77.84.4a2.28,2.28,0,0,1,1.14-.69c.28.14.64.19.69.6Z" class="cls-109" transform="translate(-0.58 -0.62)"/><path d="M325.42,256.86a1.07,1.07,0,0,0-.87-.48,1,1,0,0,1-.84-.54c.27,0,.55,0,.82,0a2,2,0,0,0,1.77-1.07l.38-.73c1,0,.78.57.51,1.15C326.85,256,326.43,256.76,325.42,256.86Z" class="cls-110" transform="translate(-0.58 -0.62)"/><path d="M222.9,255.74l-.66-.64c.51-.66,1-1.32,1.54-2,.07-.08.37-.07.49,0s.27.34.23.46A3.13,3.13,0,0,1,222.9,255.74Z" class="cls-111" transform="translate(-0.58 -0.62)"/><path d="M349.6,256.83l-.64-.57a2,2,0,0,1,2.26-1.7,1.44,1.44,0,0,1,.63,1.93c-.63-.53-.62-.52-1.08-.22S350.13,256.93,349.6,256.83Z" class="cls-112" transform="translate(-0.58 -0.62)"/><path d="M178.49,254.6a1.72,1.72,0,0,1-.48-1.31,1.23,1.23,0,0,0-.51-1,1.81,1.81,0,0,1,.17-1.35.8.8,0,0,1,.45-.25.28.28,0,0,1,.39.26,2,2,0,0,1,.06.27C178.55,252.37,178.52,253.49,178.49,254.6Z" class="cls-78" transform="translate(-0.58 -0.62)"/><path d="M221.2,247.13q0,.29,0,.57c-.66.06-1.31.16-2,.17-1.23,0-2.46,0-3.69,0l-.06-.85A5.07,5.07,0,0,1,221.2,247.13Z" class="cls-113" transform="translate(-0.58 -0.62)"/><path d="M485,247l0,.66a23.64,23.64,0,0,1-5.67.07l-.09-.67A5.08,5.08,0,0,1,485,247Z" class="cls-114" transform="translate(-0.58 -0.62)"/><path d="M322.65,243.28v-2.16a2,2,0,0,0,1.2.65,10.17,10.17,0,0,1,2.8.15c.08,0,.21.16.2.18s-.16.35-.26.35c-.94.05-1.88.08-2.82.1A1.38,1.38,0,0,0,322.65,243.28Z" class="cls-115" transform="translate(-0.58 -0.62)"/><path d="M418.21,241.46l.55,1a6.43,6.43,0,0,0-2.93,1.15l-.4-.44A3.32,3.32,0,0,1,418.21,241.46Z" class="cls-116" transform="translate(-0.58 -0.62)"/><path d="M296.18,236.66c-.43.18-1,.07-1.25.64-1.16.86-2.08.44-2.89-.55a1.74,1.74,0,0,1,0-.52,8.89,8.89,0,0,1,3.48,0A2.3,2.3,0,0,1,296.18,236.66Z" class="cls-117" transform="translate(-0.58 -0.62)"/><path d="M332.32,242.44c-.25-.46-.75-.4-1.15-.53a1.25,1.25,0,0,1,.93-.53q1.38,0,2.76,0c.15,0,.29.2.44.3s.22.32.15.46-.14.21-.2.21A4.74,4.74,0,0,0,332.32,242.44Z" class="cls-98" transform="translate(-0.58 -0.62)"/><path d="M294.91,246l.05.57-.63.05q-.27.27-.56.51l-3.43.11.06-.86C291.86,245.64,293.32,245,294.91,246Z" class="cls-118" transform="translate(-0.58 -0.62)"/><path d="M307.52,242.39l-.51-.47a1.06,1.06,0,0,1,1.21-.45,3.39,3.39,0,0,0,1.66.32,1.45,1.45,0,0,1,1.14.75A9.81,9.81,0,0,0,307.52,242.39Z" class="cls-119" transform="translate(-0.58 -0.62)"/><path d="M399.11,242.39l-.51-.47a1.06,1.06,0,0,1,1.21-.45,3.37,3.37,0,0,0,1.66.32,1.46,1.46,0,0,1,1.14.75A9.84,9.84,0,0,0,399.11,242.39Z" class="cls-119" transform="translate(-0.58 -0.62)"/><path d="M497.81,242.6l-.69-.6a2.88,2.88,0,0,1,2.28-.58v1Z" class="cls-120" transform="translate(-0.58 -0.62)"/><path d="M206.77,242.48l0-.61a10,10,0,0,1,3.41,0c.08,0,.22.15.2.18s-.15.35-.23.35C209.06,242.47,207.92,242.47,206.77,242.48Z" class="cls-121" transform="translate(-0.58 -0.62)"/><path d="M470.06,242.6l0-.85c1.15,0,2.3,0,3.45.1.15,0,.28.22.42.34-.15.11-.29.28-.46.31a4.53,4.53,0,0,1-.86,0Z" class="cls-122" transform="translate(-0.58 -0.62)"/><path d="M209.7,256.4l-.13-.89.74-1.46c.55-.09.83.06.6.67A2,2,0,0,1,209.7,256.4Z" class="cls-123" transform="translate(-0.58 -0.62)"/><path d="M467,241.74l0,.87c-.75,0-1.51-.09-2.26-.16-.09,0-.18-.22-.22-.36s.12-.18.19-.19C465.54,241.84,466.29,241.79,467,241.74Z" class="cls-124" transform="translate(-0.58 -0.62)"/><path d="M327.2,255.21c-.1-.41,0-.91-.51-1.15a2.22,2.22,0,0,1,.12-.55c.13-.25.29-.5.63-.48s.4.29.4.64A2,2,0,0,1,327.2,255.21Z" class="cls-125" transform="translate(-0.58 -0.62)"/><path d="M399.61,249.33l.7.6c-.18.56-.5.88-1.13.66l-.7-.67A1.23,1.23,0,0,1,399.61,249.33Z" class="cls-126" transform="translate(-0.58 -0.62)"/><path d="M210.92,254.73l-.6-.67a.93.93,0,0,1,.4-.94.42.42,0,0,1,.65.17A1.24,1.24,0,0,1,210.92,254.73Z" class="cls-127" transform="translate(-0.58 -0.62)"/><path d="M203.29,241.83l0,.7c-.65,0-1.3,0-2-.07-.08,0-.17-.23-.21-.37s.11-.19.18-.19C202,241.86,202.64,241.84,203.29,241.83Z" class="cls-128" transform="translate(-0.58 -0.62)"/><path d="M302.36,256.17l-.51-.42c.19-.19.37-.4.58-.57s.36-.08.46.14a.3.3,0,0,1,0,.26C302.74,255.79,302.54,256,302.36,256.17Z" class="cls-129" transform="translate(-0.58 -0.62)"/><path d="M159,95.11c0,.6.09,1.25-.54,1.65a2.35,2.35,0,0,1,.1-1.77Z" class="cls-130" transform="translate(-0.58 -0.62)"/><path d="M335.24,242.38l.05-.67c.43.11.93.11,1.13.64l-.08.78Z" class="cls-131" transform="translate(-0.58 -0.62)"/><path d="M501.9,241.83a1.2,1.2,0,0,1-1.35-.4A1.15,1.15,0,0,1,501.9,241.83Z" class="cls-120" transform="translate(-0.58 -0.62)"/><path d="M421.65,241.91a1.06,1.06,0,0,1-1.17-.46A1,1,0,0,1,421.65,241.91Z" class="cls-116" transform="translate(-0.58 -0.62)"/><path d="M285.68,236.76a.81.81,0,0,1,1.18.52A1.45,1.45,0,0,1,285.68,236.76Z" class="cls-117" transform="translate(-0.58 -0.62)"/><path d="M351.42,241.35c-.19.6-.25.66-.62.48a4.11,4.11,0,0,1-.63-.46Z" class="cls-132" transform="translate(-0.58 -0.62)"/><path d="M478.75,249c-.1-.88-.1-.88.59-1.27Z" class="cls-114" transform="translate(-0.58 -0.62)"/><path d="M217.76,241.43a4,4,0,0,0,0,.51l-1.24-.08A1,1,0,0,1,217.76,241.43Z" class="cls-133" transform="translate(-0.58 -0.62)"/><path d="M487.79,254l-.47-.51c.3-.38.39-.42.5-.2A.57.57,0,0,1,487.79,254Z" class="cls-134" transform="translate(-0.58 -0.62)"/><path d="M256.35,241.45q0,.25,0,.49l-1.2,0A1.06,1.06,0,0,1,256.35,241.45Z" class="cls-135" transform="translate(-0.58 -0.62)"/><path d="M312.34,241.79a.55.55,0,0,1-.75-.31A.54.54,0,0,1,312.34,241.79Z" class="cls-119" transform="translate(-0.58 -0.62)"/><path d="M336.33,243.1a.79.79,0,0,1,.54.77A.87.87,0,0,1,336.33,243.1Z" class="cls-131" transform="translate(-0.58 -0.62)"/><path d="M206.85,241.88a.58.58,0,0,1-.58-.68Z" class="cls-121" transform="translate(-0.58 -0.62)"/><path d="M285.72,236.24a1.9,1.9,0,0,1,0,.52c-.26,0-.55-.06-.53-.3S285.47,236.17,285.72,236.24Z" class="cls-117" transform="translate(-0.58 -0.62)"/><path d="M293.77,247.09l.56-.51-.05.68A.52.52,0,0,1,293.77,247.09Z" class="cls-64" transform="translate(-0.58 -0.62)"/><path d="M221.32,241.82a.54.54,0,0,1-.73-.33A.56.56,0,0,1,221.32,241.82Z" class="cls-133" transform="translate(-0.58 -0.62)"/><path d="M308.34,248.91a2.43,2.43,0,0,1-.22.48,4,4,0,0,1-.53-.08A.81.81,0,0,1,308.34,248.91Z" class="cls-136" transform="translate(-0.58 -0.62)"/><path d="M260,241.77a.6.6,0,0,1-.77-.31A.57.57,0,0,1,260,241.77Z" class="cls-135" transform="translate(-0.58 -0.62)"/><path d="M403.92,241.79a.55.55,0,0,1-.75-.31A.54.54,0,0,1,403.92,241.79Z" class="cls-119" transform="translate(-0.58 -0.62)"/><path d="M275.95,241.9a.5.5,0,0,1-.63-.39C275.67,241.41,275.84,241.61,275.95,241.9Z" class="cls-101" transform="translate(-0.58 -0.62)"/><path d="M307.14,249.46a.62.62,0,0,1-.7.41A.72.72,0,0,1,307.14,249.46Z" class="cls-136" transform="translate(-0.58 -0.62)"/><path d="M210.24,63.36h18.14a8,8,0,0,1,2.83.34,5.69,5.69,0,0,0,1.69.22c.76,0,1.53,0,2.3,0h87.08a17.21,17.21,0,0,1,5.69.47,7.39,7.39,0,0,0,2.28.1h14.66c.67,0,1.34,0,2,0a1.33,1.33,0,0,1,1,.53H300.67a1.33,1.33,0,0,0-1-.53q-1.29,0-2.59,0H229a16.57,16.57,0,0,1-5.69-.47,6.27,6.27,0,0,0-2-.09h-8.63a10.54,10.54,0,0,1-1.71-.11C210.69,63.78,210.47,63.52,210.24,63.36Z" class="cls-137" transform="translate(-0.58 -0.62)"/><path d="M127.89,65.08c.23-.17.44-.44.69-.48a15.94,15.94,0,0,0,2.81-.55,8,8,0,0,1,2-.11,7.59,7.59,0,0,0,2-.13c2.45-.82,4.95-.3,7.42-.42a1.38,1.38,0,0,1,.57.07c1.94.79,4,.39,6,.46a2.68,2.68,0,0,0,1.13-.14,8.23,8.23,0,0,1,3.4-.42h5.18a9.64,9.64,0,0,1,3.12.36,7.41,7.41,0,0,0,2.27.2c3.45,0,6.91,0,10.36,0h15.25a11.37,11.37,0,0,1,4,.42,7,7,0,0,0,2.28.15h16.4c.77,0,1.53,0,2.3,0a1.34,1.34,0,0,1,1,.53Z" class="cls-138" transform="translate(-0.58 -0.62)"/><path d="M602.51,65.08a1.53,1.53,0,0,1,1.26-.56c1.72,0,3.45,0,5.17,0a13.41,13.41,0,0,0,4.54-.44,4,4,0,0,1,2.82.15,7.41,7.41,0,0,0,3.12.28c1.81,0,3.65.28,5.43-.26a8.6,8.6,0,0,1,2.55-.3h40c.77,0,1.53,0,2.3,0a3.19,3.19,0,0,1,2.53,1.14Z" class="cls-138" transform="translate(-0.58 -0.62)"/><path d="M596.17,65.08c1-.77,1.29-.77,2.29,0Z" class="cls-138" transform="translate(-0.58 -0.62)"/><path d="M129.6,62.78c.06-.07.12-.18.19-.21a11.41,11.41,0,0,1,3.83-.94c.48,0,1,0,1.43,0h34.69c.48,0,1,0,1.43,0a4.25,4.25,0,0,1,2.19.58,1.28,1.28,0,0,1-1,.54c-1.8,0-3.62.27-5.38-.41a4.9,4.9,0,0,0-1.7-.12H135.25a4.67,4.67,0,0,0-1.7.14A10.57,10.57,0,0,1,129.6,62.78Z" class="cls-137" transform="translate(-0.58 -0.62)"/><path d="M180.29,62.21H194.1a10.79,10.79,0,0,1,4,.42,5.85,5.85,0,0,0,2,.14h8.06a7,7,0,0,1,1.42.1c.25.05.47.31.7.47H187.8a11.8,11.8,0,0,1-4-.41,9.9,9.9,0,0,0-2.57-.19A1.36,1.36,0,0,1,180.29,62.21Z" class="cls-137" transform="translate(-0.58 -0.62)"/><path d="M183.17,166h-2l-3.72,0a9.78,9.78,0,0,1-5-1,3.09,3.09,0,0,0-.83-.2c-4.15-1.29-6.51-5.55-5.84-10.19.49-3.36,4.6-7.69,8.67-6.54a5,5,0,0,1,4.08,4.49c.24,2.33-1,3.92-3,5a20.48,20.48,0,0,1-2.42.81c-.88.3-2,.42-2.11,1.6s.85,1.8,1.77,2.32a10.55,10.55,0,0,0,1.84.74c.25.07.49.16.74.24a6.12,6.12,0,0,0,2.3.24,11.34,11.34,0,0,0,8.94-2.94,26.28,26.28,0,0,0,5.33-6.34c.93-1.87,2.16-3.57,3.23-5.76-2.46.84-4.28,2.29-6.3,3.33-.64.39-1.28.77-1.94,1.12a13.33,13.33,0,0,0-1.28.75,4.6,4.6,0,0,1-.67.4c-1,.37-2,.32-2.43-.74s.41-1.56,1.06-2.1a14.64,14.64,0,0,1,1.62-1.15,26.24,26.24,0,0,0,3.08-1.86c2.49-1.23,4.8-2.78,7.41-3.79,1.79-.69,2.8-2.2,3.68-3.86a110.92,110.92,0,0,1,6.68-11.4,10.42,10.42,0,0,1,1.13-1.35c.23-.18.47-.34.68-.53a2.63,2.63,0,0,0,.28-.36.34.34,0,0,0-.38.3,2.11,2.11,0,0,1-.88.44,1.31,1.31,0,0,1-.65-.19l-.21-.27-.06-.34a1.8,1.8,0,0,1,.28-.61l.21-.26a6.59,6.59,0,0,1,.46-.48l.24-.23a5.48,5.48,0,0,1,.49-.43c.17-.14.35-.26.53-.39a3.91,3.91,0,0,0,1.13-1.24,16.13,16.13,0,0,1,4-3.81c1.38-1.1,2.39-2.7,4.3-3.05.69-.5,1.38-1,2.08-1.5.23-.16.49-.29.74-.43a.86.86,0,0,1,1,.34,1.2,1.2,0,0,1,.05.8,2.26,2.26,0,0,1-.52.68,37.44,37.44,0,0,0-7,11.45,120.15,120.15,0,0,0-3.75,11.73,2.91,2.91,0,0,0,0,.57.57.57,0,0,0,.59.48,45.36,45.36,0,0,0,6.88-1.95,2,2,0,0,0,1.08-.9c.23-.42.47-.83.72-1.24a86.3,86.3,0,0,1,5.42-8.09,13.87,13.87,0,0,0,.88-1.46c0-.1,0-.21,0-.31a2.2,2.2,0,0,1,.3-.54l.2-.24c.13-.16.27-.31.4-.46l.2-.24a9.5,9.5,0,0,0,.7-1.05,4.67,4.67,0,0,1,.38-.56c.14-.19.29-.37.45-.54l.24-.27c.16-.19.34-.37.52-.55,2.64-2.56,5.11-5.35,8.64-6.77a.87.87,0,0,1,.65.8,13,13,0,0,1-.2,4.16l0,0a1.09,1.09,0,0,1-.58.67v0c-.73,2.63-2.81,4.47-4,6.86a43,43,0,0,0-2.44,5.24c2.52-.77,4.31-2.24,6.47-2.82.21.17.54.32.59.53a5.22,5.22,0,0,1,.11,1.4,1.25,1.25,0,0,1-.72,1.14c-.93.47-1.87.92-2.8,1.4-.41.21-.8.48-1.21.72a5.48,5.48,0,0,1-1.46,1.12c-.22.13-.44.25-.67.36a7.07,7.07,0,0,1-.71.32c-2.58.82-3.46,3.18-4.42,5.26a100.72,100.72,0,0,0-4.36,9.84,63.51,63.51,0,0,0-2.59,7.89c-.68,2.78.45,3.8,3.21,2.9a25.46,25.46,0,0,0,6.05-3.21c2-1.21,3.71-3,6.06-3.76,1-.69,2-1.39,3-2.06.19-.13.36,0,.45.2a1.44,1.44,0,0,1-.08,1.36,5.66,5.66,0,0,1-.94,1.06,54.39,54.39,0,0,1-5.25,4.39,6.19,6.19,0,0,0-1.78,1.39,14.54,14.54,0,0,1-12.18,4.48c-4.8-.48-8.12-5.56-7.41-10.62a42.55,42.55,0,0,1,2.44-9.13,31.19,31.19,0,0,0,1.49-4.54c-3.06.14-5.1,1-6.48,3.88-2.9,6-6.47,11.53-12.27,15.23a33.73,33.73,0,0,1-9.56,4.25C185.36,166.23,184.25,166.8,183.17,166Z" class="cls-139" transform="translate(-0.58 -0.62)"/><path d="M195.78,161.08c.44-.36.87-.74,1.32-1.08a27.24,27.24,0,0,0,7-7.54,83.22,83.22,0,0,0,4.49-8.34,2.32,2.32,0,0,1,1.65-1.43c1.77-.42,3.51-.92,5.27-1.37.21-.06.54.35.47.57s-.21.73-.35,1.08c-1,2.57-2,5.16-2.83,7.82a46.89,46.89,0,0,0-1.2,5.31,8.63,8.63,0,0,0,1.88,7.27,7.43,7.43,0,0,0,7.38,2.85,21.18,21.18,0,0,0,6.48-2.24c1-.53,2-1,3.05-1.56.66.77,1.32,1.54,2,2.32a1.1,1.1,0,0,1-.25,1.67,8.07,8.07,0,0,0-.66.51,5,5,0,0,0-.47.68,1.52,1.52,0,0,0-.57,1.25c0,1.24,0,2.49,0,3.73,0,.48,0,1,0,1.43a4.17,4.17,0,0,1-1,3.16,1.15,1.15,0,0,1-1.46.46.66.66,0,0,0-.9.45,1.29,1.29,0,0,1-1.21,1,1.63,1.63,0,0,0-.56.1c-.94.4-1.72,1.15-2.89,1.1s-2,.52-3.07.6-2,.58-3.08.58a1.22,1.22,0,0,0-.77.33c-1.24,1.19-2.44,2.42-3.66,3.63a.51.51,0,0,0-.16.24c-.26,1.58-1.43,1.51-2.61,1.51-5.35,0-10.7,0-16.06,0q0-1.72,0-3.43c.74-4-.36-8,.53-12,.42-2.43.57-4.89.89-7.34A5.26,5.26,0,0,1,195.78,161.08Z" class="cls-140" transform="translate(-0.58 -0.62)"/><path d="M232.11,136a2.8,2.8,0,0,1,1.74-.67,4.79,4.79,0,0,1-1.25,2.84,22.83,22.83,0,0,0-1.8,2.87c-.64.94-1.07,2-1.62,3a15.77,15.77,0,0,1-1.16,2,5.74,5.74,0,0,0-.7,1.86.87.87,0,0,0,.34,1,7.09,7.09,0,0,0,1.28.62,1,1,0,0,0,.8-.12,6.64,6.64,0,0,0,1.76-1.86,6.8,6.8,0,0,1,1.06-1.32,2.24,2.24,0,0,1,1-.44,1,1,0,0,1,1.32.77,14,14,0,0,1,.69,3.92,1,1,0,0,0,.11.56c.59,1.08,0,1.81-.72,2.48l-1.73,1.5a.55.55,0,0,0,.3.88,12.32,12.32,0,0,0,1.4.19,24,24,0,0,1-5.56,4.12c-3.53,0-4.75-2.85-6.37-5.21.83-4.12,1.73-8.23,4.3-11.71,1.6-2.17,2.43-4.8,4.12-6.91l0,0A2.72,2.72,0,0,0,232.11,136Z" class="cls-141" transform="translate(-0.58 -0.62)"/><path d="M237.87,130.17a21.47,21.47,0,0,1-5.09,3.17c-1.7.9-2.19,1-2.32.6-.28-.85.29-1.47.59-2.13a52.83,52.83,0,0,1,5.77-9.91,10.39,10.39,0,0,1,1-1,7.46,7.46,0,0,0,.41.74c1,1.47.51,2.82-.29,4.15-1.16.82-1.15,2.32-2,3.35-.15.19.05.56.27.72A2.64,2.64,0,0,0,237.87,130.17Z" class="cls-23" transform="translate(-0.58 -0.62)"/><path d="M237.81,120.92a.74.74,0,0,1,.58-.67A.75.75,0,0,1,237.81,120.92Z" class="cls-23" transform="translate(-0.58 -0.62)"/><path d="M171.07,111.75q0-3.17,0-6.34,0-5.16,0-10.31c3.64,0,7.29-.05,10.93-.05,3.07,0,6.14,0,9.21.06,3.14,5.59,5.38,11.37,4.1,18a8.28,8.28,0,0,1-1.81,3.54,5.64,5.64,0,0,0-1.41,3.08c-.75,2-2.48,2.87-4.12,3.87l-.61.32-.28.17-.51.38-.24.2-.46.42-.22.21c-.14.15-.29.29-.44.44l-.22.23c-.14.16-.3.32-.45.47l-.24.24a4.81,4.81,0,0,1-.52.48l-.31.2a1.11,1.11,0,0,1-.72.08l-.31-.22a1.85,1.85,0,0,1-.15-2.14c1-1.52.43-2.65-.68-3.73a4,4,0,0,1-.32-1.24,59.41,59.41,0,0,0-.27-6c-.52-3.28-1.07-3.61-4.06-2.27a9,9,0,0,1-3.77,1.22,2.9,2.9,0,0,1-2.1-.72Q171.08,112,171.07,111.75Z" class="cls-130" transform="translate(-0.58 -0.62)"/><path d="M237.9,115.27a.83.83,0,0,1-.15.24,83.1,83.1,0,0,0-8.12,7.1.91.91,0,0,1-.25.13,1,1,0,0,0-.65.65l.06-.05a.8.8,0,0,0-.61.65l.06-.06c-.68.35-.82,1.13-1.32,1.62l0,0c-.17.21-.38.39-.53.62l0,0a1.52,1.52,0,0,0-.57.65h0a5.84,5.84,0,0,1-1.1-.32,2.16,2.16,0,0,0-2.18.12c-.59.32-1.2.6-1.81.88s-.93.24-1,0a1.21,1.21,0,0,1,.19-1.07,4.21,4.21,0,0,1,.42-.75,3.73,3.73,0,0,0,.91-2.06c.08-.87,1.13-1.24,1.14-2.26a4.24,4.24,0,0,1,.66-2.17,33.27,33.27,0,0,0,1.47-3.09c.57-1.09,1.41-2.06,1.44-3.37,1-1.32,1.31-3,2.11-4.37.61-1.08,1.14-2.22,1.68-3.34a5.18,5.18,0,0,0,.66-1.89c.07-1,.93-1.39,1.5-2,.09-.1.37-.07.55,0,.47.09.93.22,1.39.33a7.61,7.61,0,0,0,2.57,2.67,14.67,14.67,0,0,1,2.41,2c1.23,1.22,2.44,2.45,3.67,3.66a11.41,11.41,0,0,0,1.13.87,4.36,4.36,0,0,1,0,.57c-.15.79-.43,1.09-1,1.12-1,0-1.91.06-2.86.11a.93.93,0,0,0-.87.94,1.31,1.31,0,0,1-.6,1.46C238.08,114.91,238,115.11,237.9,115.27Z" class="cls-142" transform="translate(-0.58 -0.62)"/><path d="M198.69,95.11h4.06c1,1.63,2.06,3.21,3.15,4.75,1.34,1.9,2.3,3.71,1,6-.65,1.2.33,1.47,1.17,1.73a6,6,0,0,1,3.4,3.3c.62,1.18.77,2.4-.78,3.14-4,.23-8,.68-11.92-.28-1.46-1.77-1-3.84-.66-5.77a18.12,18.12,0,0,0,0-8.22C197.73,98.24,197.54,96.55,198.69,95.11Z" class="cls-143" transform="translate(-0.58 -0.62)"/><path d="M198.69,95.11a8.53,8.53,0,0,1,0,.86,17.17,17.17,0,0,0,1,6.76,2.49,2.49,0,0,1,.06,1.69c-.28.73-.27,1.52-.49,2.22a19.79,19.79,0,0,0-.51,6c0,.29,0,.57,0,.86,3.49.66,7,.13,10.51.3,2.59.12,3,.89,2,3.37-1.27.57-2.41,0-3.53-.49a1.94,1.94,0,0,0-2.79,1c-.94,1.75-1.85,3.52-2.8,5.27-.5.59-.48,1.87-1.8,1.39-.78-1.18-.59-2.64-1.12-3.89-.74-2.28-1.6-4.52-2.5-6.74a12.24,12.24,0,0,1-1.09-6.71c.45-2.7-.64-5.29-.5-8,.07-1.44,0-2.91,1.35-3.91Z" class="cls-144" transform="translate(-0.58 -0.62)"/><path d="M211.39,113.47q0-.57,0-1.15a2.13,2.13,0,0,0-.48-1.32c-.47-.6-.94-1.21-1.38-1.83a1.83,1.83,0,0,0-1.41-.87,7.65,7.65,0,0,1-2.44-.76c-.11,0-.2-.33-.17-.47a3.93,3.93,0,0,1,.8-1.51,2.73,2.73,0,0,0,.45-1,4.84,4.84,0,0,0,.17-2c-.12-.49-.71-.86-1.08-1.31s-.59-.59-.64-.93a3.45,3.45,0,0,0-1.33-2.16,3.33,3.33,0,0,1-1.12-3.09l6.32,0a7.07,7.07,0,0,1,.85.09,1,1,0,0,1,.78.74c0,.67.1,1.33.11,2,0,1.05,0,2.11,0,3.16a4.06,4.06,0,0,0,.1,1.42,8.48,8.48,0,0,1,.47,3.39,2.32,2.32,0,0,0,.8,1.78c.49.46,1,.89,1.52,1.3a1.33,1.33,0,0,1,.51,1.26,5.72,5.72,0,0,1-.3,1.1,1.11,1.11,0,0,0,.4,1.27l1.09.91A3,3,0,0,1,211.39,113.47Z" class="cls-145" transform="translate(-0.58 -0.62)"/><path d="M196.41,95.12c-.81,2.21-.54,4.52-.54,6.8a1.72,1.72,0,0,0,.62,1.24,1.1,1.1,0,0,1,.2,1.55,4.23,4.23,0,0,0-.59,4.06,8.39,8.39,0,0,1,.33,1.67,15.89,15.89,0,0,0,.78,2.74c1,.91.82,2.3,1.37,3.39a24.33,24.33,0,0,1,1.29,3.48,1.62,1.62,0,0,1,0,.28c-2.63-.8-5.34-.22-8-.48l-.28,0c-.28-.06-.62-.21-.51-.5a11.82,11.82,0,0,0,.83-1.81,2.52,2.52,0,0,1,.6-1c.3-.37.68-.68,1-1a4.53,4.53,0,0,0,1.19-3.15q0-1.29,0-2.59a4.71,4.71,0,0,1,.19-1.69,3.4,3.4,0,0,0-.15-2.76,11.46,11.46,0,0,0-1.43-3.41,1.45,1.45,0,0,1-.29-.79,8.09,8.09,0,0,0-.8-2.43,9.7,9.7,0,0,1-1-3.56Z" class="cls-146" transform="translate(-0.58 -0.62)"/><path d="M211.39,113.47h4l1.23.62a1.3,1.3,0,0,1,.82,1.77c0,.12.13.31.21.47a22.88,22.88,0,0,1-4,3.4c-1-1.06-3-1-3.44-2.8a2.47,2.47,0,0,0,.79-.29,1.14,1.14,0,0,0,.31-1,1.54,1.54,0,0,0-1.15-1.45,14.63,14.63,0,0,0-1.7-.1h-7.68a6.84,6.84,0,0,1-1.41-.11c-.25-.05-.46-.3-.69-.46Z" class="cls-147" transform="translate(-0.58 -0.62)"/><path d="M187.78,178c0,2.36,0,4.73,0,7.09a5.37,5.37,0,0,1-.16,1.4.94.94,0,0,1-.56.56,5.35,5.35,0,0,1-1.4.16c-2.17,0-4.35,0-6.53,0,0-1,0-2.09,0-3.14a7.07,7.07,0,0,0-.28-2,7.88,7.88,0,0,1-.26-2.82,1.14,1.14,0,0,1,1.22-1.26,3,3,0,0,1,1.89.49c.54.35.65.32.88-.18a1.42,1.42,0,0,1,1.29-.91A11.37,11.37,0,0,1,187.78,178Z" class="cls-148" transform="translate(-0.58 -0.62)"/><path d="M188.35,171.65h-4a11.13,11.13,0,0,1-3.35-.38,14,14,0,0,0-2.8-.29.91.91,0,0,1-.72-.76c0-1.22,0-2.45,0-3.67l5.12-.06c.84,2.23,1.91,4.15,4.76,4.06A.92.92,0,0,1,188.35,171.65Z" class="cls-149" transform="translate(-0.58 -0.62)"/><path d="M174.53,148.59c-.57,0-1.15,0-1.72,0a5.16,5.16,0,0,0-3.41,1.29,7.78,7.78,0,0,0-3,6.22,8.4,8.4,0,0,0,2.63,6.42c.81.79,1.75,1.47,2.62,2.2a1.29,1.29,0,0,1-1,.54q-4.16,0-8.31,0a1.09,1.09,0,0,1-1.05-1.14c0-1.91,0-3.82-.05-5.73q0-.29,0-.57c.75-4.14,0-8.34.53-12.51.25-2.18,1.36-3.43,3.15-3.3a17.08,17.08,0,0,0,6.7-.75,1.42,1.42,0,0,1,1.08.28,2.91,2.91,0,0,1,.79,2.13,10.87,10.87,0,0,1,0,1.29C173.14,146.37,174.44,147.32,174.53,148.59Z" class="cls-150" transform="translate(-0.58 -0.62)"/><path d="M188.35,171.65a1.31,1.31,0,0,0-1-.54c-.57,0-1.14,0-1.7,0a4.07,4.07,0,0,1-1.89-.55,1.9,1.9,0,0,1-1.2-1.77c0-.76,0-1.51,0-2.27l.58-.53a31.57,31.57,0,0,0,7.3-2.2c1.11-.52,2.2-1.09,3.29-1.64l2-1a10.08,10.08,0,0,0-.48,1.93,19.06,19.06,0,0,1-.5,4.24,13,13,0,0,0-.12,3.14,1.53,1.53,0,0,1-.57,1.25c-1.92,1.62-3.84,1.18-5.76,0Z" class="cls-151" transform="translate(-0.58 -0.62)"/><path d="M172.8,141.7a3.65,3.65,0,0,0-1.68.28l-1.28.63c-1.76.84-1.77,1.12-3.71.08a1.56,1.56,0,0,0-1.62,0c-.5.28-1,.53-1.51.82a1.06,1.06,0,0,0-.52,1,3,3,0,0,0,.08.85,1.36,1.36,0,0,1-.18,1.34,2.77,2.77,0,0,0-.52,1.89q0,3.58,0,7.16a7.06,7.06,0,0,1-.1,1.42c-.05.25-.3.47-.46.7q0-6.27,0-12.54a9.13,9.13,0,0,1,.38-3.37,5,5,0,0,0,.18-1.69c0-1.62,0-3.23,0-4.85a2.39,2.39,0,0,1,.76-.54c1.58-.43,3.2-.17,4.8-.25.92,0,1.94.22,2.52-.83.78-1.88-.39-4.14,1.13-5.87.17-.23.43-.44.48-.69a2.79,2.79,0,0,0,0-1.41,13.12,13.12,0,0,1-.5-4.82c0-.38,0-.77,0-1.15q0-2.59,0-5.19c2,.38.72,2.46,1.7,3.44,1.45-.51,2.52-2.38,4.34-1.37,1.1.61.86,1.72.6,2.81a4.24,4.24,0,0,1,1.07-1.38c.69-.5,1.39-1.14,2.31-.8s.51,1.29.61,2c0,.37,0,.76.3,1.05v1.15c1.66,3.85.48,6.17-3.49,6.59a2.52,2.52,0,0,0-2.62,2.69c-.23,3-.78,6-1.24,9.06a2.75,2.75,0,0,1-.59,1.29,2,2,0,0,1-.8.49Z" class="cls-152" transform="translate(-0.58 -0.62)"/><path d="M171.08,127.88q0,3.45,0,6.91c-2.84.78-5.8-.23-8.64.56l-.56,0-.59,0a4,4,0,0,0,.58-1.73,2,2,0,0,0,1.31-.48,6.76,6.76,0,0,1,1.81-1.36c1.08-.46,2-1,2.22-2.36,0-.33.39-.64.65-.91a4.77,4.77,0,0,0,1-1.69c.21-.58.7-.76,1.41-.57a1,1,0,0,1,.61.51A4.72,4.72,0,0,1,171.08,127.88Z" class="cls-153" transform="translate(-0.58 -0.62)"/><path d="M182,120.38a1.35,1.35,0,0,1-.55-1c0-.47-.12-.94-.2-1.4,0-.23-.51-.39-.72-.25a6,6,0,0,0-2.34,2,7.29,7.29,0,0,1-.88,1.12.32.32,0,0,1-.27.06.26.26,0,0,1-.13-.2,6.06,6.06,0,0,1,.05-1.13c.09-.46.3-.9.39-1.37A1.11,1.11,0,0,0,176,117a2.25,2.25,0,0,0-.79.29c-.32.21-.57.51-.87.74-.72.53-1.06,1.66-2.26,1.46-.71-.83-.29-1.82-.39-2.73-.05-.47,0-1-.1-1.42-.05-.25-.31-.46-.47-.69q0-1.16,0-2.31c.66,0,1.33,0,2,0a3.81,3.81,0,0,0,2.64-.81,9.93,9.93,0,0,1,3.68-1.44,3.74,3.74,0,0,1,1.13,0,.94.94,0,0,1,.79.7c.06,1.33.52,2.6.63,3.9C182.12,116.58,182,118.49,182,120.38Z" class="cls-154" transform="translate(-0.58 -0.62)"/><path d="M241.35,256.33a4.13,4.13,0,0,1-3.76-3.69,16.22,16.22,0,0,1,.05-6.78,7.08,7.08,0,0,1,2-3.39,5.81,5.81,0,0,1,2.81,0,3,3,0,0,1,1.82,2.34c0,2.58,0,5.15,0,7.73a3.53,3.53,0,0,1-2.13,3.42C241.84,256,241.6,256.19,241.35,256.33Z" class="cls-103" transform="translate(-0.58 -0.62)"/><path d="M351.22,254.56a15.67,15.67,0,0,1-2.26,1.7c-2.54,0-3.6-1.84-4-3.77a16.61,16.61,0,0,1,0-6.26,5.46,5.46,0,0,1,2.31-3.79,5.65,5.65,0,0,1,3.54.5.36.36,0,0,1,.43.32l0,0a6.58,6.58,0,0,1,.5,2.49q-.08,2.56,0,5.13A11.62,11.62,0,0,1,351.22,254.56Z" class="cls-132" transform="translate(-0.58 -0.62)"/><path d="M294.91,246a19.46,19.46,0,0,1-4.5.38l-.08-8.4a3.09,3.09,0,0,0,.45-.66l.07,0c.27-.1.45-.34.74-.41a.43.43,0,0,0,.45-.06l2.89.55a4.41,4.41,0,0,1,2,3.21,6.65,6.65,0,0,1-.5,3.85C296.17,245.09,295.41,245.41,294.91,246Z" class="cls-155" transform="translate(-0.58 -0.62)"/><path d="M290.78,237.27l-.45.66A.5.5,0,0,1,290.78,237.27Z" class="cls-117" transform="translate(-0.58 -0.62)"/><path d="M291.58,236.81a.72.72,0,0,1-.74.41A.52.52,0,0,1,291.58,236.81Z" class="cls-117" transform="translate(-0.58 -0.62)"/><path d="M188.36,171.65a7.55,7.55,0,0,1,3,.33,1.64,1.64,0,0,0,1.08-.07c.54-.13,1.09-.17,1.64-.25,0,1.05,0,2.11,0,3.16a4,4,0,0,1-.11,1.42,11.22,11.22,0,0,0-.45,4.25c0,.77,0,1.53,0,2.3a1.34,1.34,0,0,1-.54,1c0-1,0-1.92,0-2.88,0-1.83.12-2.09-1.93-2.48a6.63,6.63,0,0,1-1.87-.71,1.73,1.73,0,0,1-.67-.88,3.33,3.33,0,0,1-.12-1.13C188.35,174.33,188.36,173,188.36,171.65Z" class="cls-149" transform="translate(-0.58 -0.62)"/><path d="M432.61,242.56c.27,0,.55-.08.82-.14a3.13,3.13,0,0,1,3.3.91,3,3,0,0,0,.44.33,85.7,85.7,0,0,1,0,10.38c-.3.37-.57.75-.89,1.1a3,3,0,0,1-4.83-.53,5.29,5.29,0,0,1-.59-1.29,14.66,14.66,0,0,1,0-7.89A7.3,7.3,0,0,1,432.61,242.56Z" class="cls-103" transform="translate(-0.58 -0.62)"/><path d="M221.2,247.13l-5.73-.1a4.68,4.68,0,0,1,3-5l.88,0a1.5,1.5,0,0,1,.75.45l1.18,1.75a3.81,3.81,0,0,1,0,2.89Z" class="cls-156" transform="translate(-0.58 -0.62)"/><path d="M218.41,242a.41.41,0,1,1-.7-.08Z" class="cls-133" transform="translate(-0.58 -0.62)"/><path d="M260.26,246.94a26.25,26.25,0,0,1-6.16,0c.14-.62.28-1.24.43-1.86a4.58,4.58,0,0,1,1.76-2.68A1.57,1.57,0,0,1,257,242l.9,0a4.78,4.78,0,0,1,.72.4,3.58,3.58,0,0,1,1.22,2.1C260,245.31,260.13,246.13,260.26,246.94Z" class="cls-157" transform="translate(-0.58 -0.62)"/><path d="M257,242a.63.63,0,0,1-.75.39,3.74,3.74,0,0,1,0-.5Z" class="cls-135" transform="translate(-0.58 -0.62)"/><path d="M485,247l-5.73.06h0a1.61,1.61,0,0,1-.06-1.73,8.67,8.67,0,0,1,1.79-2.89,3.42,3.42,0,0,1,2.85.08A6.05,6.05,0,0,1,485,247Z" class="cls-156" transform="translate(-0.58 -0.62)"/><path d="M479.17,245.37l.06,1.73C478.46,246.44,478.45,246.31,479.17,245.37Z" class="cls-114" transform="translate(-0.58 -0.62)"/><path d="M308.73,249.84l2.35-1a.59.59,0,0,1,.66.36,17.78,17.78,0,0,1-.1,4.84,6.51,6.51,0,0,1-1.78,1.39,2.28,2.28,0,0,1-3.34-1.89,3.22,3.22,0,0,1,.92-2.6A16.56,16.56,0,0,1,308.73,249.84Z" class="cls-136" transform="translate(-0.58 -0.62)"/><path d="M399.18,250.59l1.13-.66,2-.91c.51-.23,1,0,1,.53,0,1.49-.06,3-.09,4.46a6.12,6.12,0,0,1-1.79,1.41,2.27,2.27,0,0,1-3.31-2,2.87,2.87,0,0,1,.33-1.66C398.67,251.4,398.93,251,399.18,250.59Z" class="cls-156" transform="translate(-0.58 -0.62)"/><path d="M258.65,242.41a.66.66,0,0,1-.72-.4A.51.51,0,0,1,258.65,242.41Z" class="cls-135" transform="translate(-0.58 -0.62)"/><path d="M221.21,247.12a3.21,3.21,0,0,0,.09-1.57c0-.44-.05-.88-.08-1.32a2.22,2.22,0,0,1,.39,2.54C221.56,246.91,221.35,247,221.21,247.12Z" class="cls-113" transform="translate(-0.58 -0.62)"/><path d="M220,242.48a.71.71,0,0,1-.75-.45A.6.6,0,0,1,220,242.48Z" class="cls-133" transform="translate(-0.58 -0.62)"/><path d="M351.28,243.26a.51.51,0,0,1-.43-.32C351.24,242.71,351.22,243,351.28,243.26Z" class="cls-45" transform="translate(-0.58 -0.62)"/><path d="M173.38,141.12l.58-.57c2.29-2.16,5.31-3,8-4.45,2.1-1.14,4.28-2.15,6.45-3.15,1.92-.65,2-1.84,1.17-3.49-.68-1.3-1.63-2.53-1.55-4.13.91-2.33,3-3.41,5-4.49.94-.51,2.07-.76,2.89.22s.18,1.8-.34,2.62-.94,1.44-1.34,2.2c-2.08,4-1.85,5,1.7,7.63a14.9,14.9,0,0,1-4.26,8.72c-1.09,1.08-1.92,1.94-1.77,3.56.11,1.22-.87,2.05-1.47,3a7.78,7.78,0,0,1-2.87,1.76,3.13,3.13,0,0,1-1.36-3c.09-2.07-.94-2.36-2.68-2.18-1.53.16-3,.45-4.57.53s-2.9.3-4.12-.75V144c.55-.67.18-1.46.3-2.19A1.09,1.09,0,0,1,173.38,141.12Z" class="cls-158" transform="translate(-0.58 -0.62)"/><path d="M172.81,145.15H176a7.87,7.87,0,0,0,2.83-.35,5.53,5.53,0,0,1,1.69-.22c1,0,1.92,0,2.87,0,.44,0,1-.43,1.31.11a1.89,1.89,0,0,1,.2,1.09,13.69,13.69,0,0,0,.65,4.8c-.75.57-1.52,1.12-2.24,1.73a1.29,1.29,0,0,0-.36.74c-.06.36.64,1,1,.85.54-.17,1.06-.39,1.58-.59,1.39,2.32,1.45,5,1.88,7.52a10.75,10.75,0,0,1-6.81,3.34,19.73,19.73,0,0,1-3.15,0c-.7-.57-1.64,0-2.36-.49v0a7.08,7.08,0,0,1-1.4-4.43,1.89,1.89,0,0,1,1.45-2,18.76,18.76,0,0,0,1.56-1.22,4.12,4.12,0,0,0-.41-6.43,17.11,17.11,0,0,0-1.72-1,4.36,4.36,0,0,0-.88-.57,1.17,1.17,0,0,1-.83-1.24C172.81,146.23,172.81,145.69,172.81,145.15Z" class="cls-159" transform="translate(-0.58 -0.62)"/><path d="M188.4,148.8a3.86,3.86,0,0,1,.64-2.15,1.86,1.86,0,0,0,.13-1.63,3.26,3.26,0,0,1-.21-1.1,1.45,1.45,0,0,1,.79-1.4,1.84,1.84,0,0,1,.53-.2,2.77,2.77,0,0,0,2-1.53c.83-1.6,1.59-3.23,2.38-4.85.05-.93.81-1.47,1.22-2.21,1-1.19,2.59-1.38,3.85-2.13l.93-.42c.19-.1.38-.18.57-.26l.55-.26c.17-.1.35-.18.52-.27l.5-.26.47-.3c.14-.12.29-.23.45-.34a2.68,2.68,0,0,1,.48-.3l.49-.3.49-.35a3,3,0,0,1,.53-.33l.31-.08a1.46,1.46,0,0,1,.64.12c.25.22.5.45.19.8-2.54,4.17-5,8.39-7.28,12.7-.27.51-.57,1-.86,1.49a3,3,0,0,1-1.48,1.3,61.33,61.33,0,0,0-8,4A5.23,5.23,0,0,1,188.4,148.8Z" class="cls-160" transform="translate(-0.58 -0.62)"/><path d="M210.24,116.93a3.35,3.35,0,0,0,.64.51c.59.27,1.22.46,1.81.73a1.64,1.64,0,0,1,1,1.56l-1.63,1.57-2.46,2.35c-.33.69-1.16.81-1.61,1.38l0,0a4.38,4.38,0,0,0-.6.52h0a2.77,2.77,0,0,1-.63.55l0,0a1.06,1.06,0,0,1-.66.56v0a1.18,1.18,0,0,1-.52.77c-.17.15-.35.28-.53.42a3.44,3.44,0,0,1-.61.39,2.52,2.52,0,0,1-.75.15,2.25,2.25,0,0,1-1.18-.36c-1.87-1.49-1.55-3.36-.9-5.28a1.94,1.94,0,0,1,.1-.56q.83-1.64,1.71-3.26c.54-1,1.11-2,1.67-3a1.08,1.08,0,0,1,1.47-.46Z" class="cls-161" transform="translate(-0.58 -0.62)"/><path d="M223.49,154.95a10.72,10.72,0,0,0,.83,1.1c1.1,1.14,2.24,2.24,3.35,3.36a2.72,2.72,0,0,0,1.74.79,20,20,0,0,1-7,3.77,4.93,4.93,0,0,1-2.28.12,2,2,0,0,1-1.61-2.08,17.51,17.51,0,0,1,.56-2.81c.72-2.28,1.52-4.53,2.29-6.79a1.75,1.75,0,0,1,.35-.44C222.77,152.69,222.77,154,223.49,154.95Z" class="cls-147" transform="translate(-0.58 -0.62)"/><path d="M223.49,154.95a2.9,2.9,0,0,1-1.77-3,8.13,8.13,0,0,1,.94-2.7c1.56-3.61,3.24-7.16,5.11-10.62.74-1.37.77-1.42,2.3-2a10.8,10.8,0,0,1,1.39-.31,2.43,2.43,0,0,1-.25,1.38,39.28,39.28,0,0,1-3.48,6.25,37,37,0,0,0-2.82,5.3.74.74,0,0,0-.09.55c.62,1.26-.22,2.19-.68,3.2A4.5,4.5,0,0,0,223.49,154.95Z" class="cls-162" transform="translate(-0.58 -0.62)"/><path d="M187.37,160.8c-.2-.2-.5-.36-.58-.6a8.53,8.53,0,0,1-.75-2.73,2.7,2.7,0,0,0-.19-1.11,7.08,7.08,0,0,1-.36-3.08l.06,0c.25-.38.82-.27,1.06-.67a3.56,3.56,0,0,1,1.72-1.11,4.73,4.73,0,0,1,3.17,2.65c.22.58.74-.16,1,.28a14.18,14.18,0,0,1-2.65,4A8.21,8.21,0,0,1,187.37,160.8Z" class="cls-163" transform="translate(-0.58 -0.62)"/><path d="M192.46,154.39c-.51.13-1,.42-1.4-.31a2.74,2.74,0,0,0-1-.88,4.23,4.23,0,0,1-1.71-1.74,28.65,28.65,0,0,1,7.16-3.94c.12,0,.33.11.49.2s0,.17,0,.24a4.44,4.44,0,0,1-.29.8A33.49,33.49,0,0,1,192.46,154.39Z" class="cls-164" transform="translate(-0.58 -0.62)"/><path d="M175.1,157.23a3.92,3.92,0,0,1-.33.44c-.25.26-.59.45-.42.92a1.33,1.33,0,0,1,.11.81,2.66,2.66,0,0,0,.31,2.38,3.06,3.06,0,0,1,.28,1.89,6.6,6.6,0,0,1-3.82-1.62,3,3,0,0,1-.72-.86c-.77-1.21-.73-2.47,1-3.15A25,25,0,0,1,175.1,157.23Z" class="cls-165" transform="translate(-0.58 -0.62)"/><path d="M206.8,129l-.65-.64L206,128l.16-.36a6.35,6.35,0,0,1,.7-.33l1.07-.65q.3-.35.51.05a.82.82,0,0,0,0,.4,2.13,2.13,0,0,1-.51.73Z" class="cls-166" transform="translate(-0.58 -0.62)"/><path d="M208,125a2.9,2.9,0,0,1,1.61-1.37A1.53,1.53,0,0,1,208,125Z" class="cls-167" transform="translate(-0.58 -0.62)"/><path d="M226.93,125.54a1.51,1.51,0,0,1,1.32-1.62A2.75,2.75,0,0,1,226.93,125.54Z" class="cls-16" transform="translate(-0.58 -0.62)"/><path d="M175,163.65l1.13-.06a1.38,1.38,0,0,1,1.23.55c-.47,0-.93,0-1.4,0A1.24,1.24,0,0,1,175,163.65Z" class="cls-165" transform="translate(-0.58 -0.62)"/><path d="M208.45,126.75a1.77,1.77,0,0,1-.51-.05,4,4,0,0,1,.45-.63c.09-.09.29-.06.44-.08,0,.15.09.34,0,.45S208.59,126.65,208.45,126.75Z" class="cls-167" transform="translate(-0.58 -0.62)"/><path d="M205.09,127.31a1.22,1.22,0,0,1,1-.71l.11.7-.23.24A.78.78,0,0,1,205.09,127.31Z" class="cls-167" transform="translate(-0.58 -0.62)"/><path d="M186.6,152.58a1.07,1.07,0,0,1-1.06.67A1.23,1.23,0,0,1,186.6,152.58Z" class="cls-159" transform="translate(-0.58 -0.62)"/><path d="M206.87,127.34a.86.86,0,0,1-.65.54.35.35,0,0,1-.15-.39q.07-.2.14-.2h0Z" class="cls-167" transform="translate(-0.58 -0.62)"/><path d="M225.83,126.8a.84.84,0,0,1,.57-.65A.73.73,0,0,1,225.83,126.8Z" class="cls-16" transform="translate(-0.58 -0.62)"/><path d="M206.09,126.64a.75.75,0,0,1,.66-.56A.72.72,0,0,1,206.09,126.64Z" class="cls-167" transform="translate(-0.58 -0.62)"/><path d="M226.38,126.18l.53-.62A.69.69,0,0,1,226.38,126.18Z" class="cls-16" transform="translate(-0.58 -0.62)"/><path d="M206.72,126.11a.73.73,0,0,1,.63-.55A.81.81,0,0,1,206.72,126.11Z" class="cls-167" transform="translate(-0.58 -0.62)"/><path d="M207.35,125.56a.63.63,0,0,1,.6-.52Z" class="cls-167" transform="translate(-0.58 -0.62)"/><path d="M228.18,124a.71.71,0,0,1,.61-.65A.74.74,0,0,1,228.18,124Z" class="cls-16" transform="translate(-0.58 -0.62)"/><path d="M228.73,123.38a.79.79,0,0,1,.65-.65A.84.84,0,0,1,228.73,123.38Z" class="cls-16" transform="translate(-0.58 -0.62)"/><path d="M232.11,136a.68.68,0,0,1-.67.39A.58.58,0,0,1,232.11,136Z" class="cls-162" transform="translate(-0.58 -0.62)"/><path d="M207.94,127.87l.51-.73A.84.84,0,0,1,207.94,127.87Z" class="cls-167" transform="translate(-0.58 -0.62)"/><path d="M206.21,127.3v.59h0c-.22.18-.37.41-.57.61l0,0c-.23.14-.4.36-.63.51l0,0c-.26.37-.85.24-1.06.69l0,0a2,2,0,0,0-.66.51h0c-.29.35-.86.22-1.1.65l0,0q-.32.21-.63.45a.37.37,0,0,1-.38.17,1.43,1.43,0,0,0-.78.45,12,12,0,0,1-4.62,1.86,4.39,4.39,0,0,1-2.38-.9,3.64,3.64,0,0,1-1.33-3.83,16.36,16.36,0,0,1,2.29-4.92c.26-.4.58-.76.85-1.16a2.58,2.58,0,0,0,.42-.74,1.81,1.81,0,0,0,0-.84c-.06-.26-.64-.5-1-.42a6.35,6.35,0,0,0-1.36.41,14,14,0,0,0-3.26,2.33,7,7,0,0,0-1.75,1.87c-.74,2-2.58,3-3.84,4.6a16.16,16.16,0,0,1-2.55,2.3,1.53,1.53,0,0,1-2.09-.12,1.48,1.48,0,0,1-.09-2.08,6.4,6.4,0,0,1,3.46-2.84l0,0a1.45,1.45,0,0,1,.61-.61l0,0a1.53,1.53,0,0,1,.61-.61l0,0a1.52,1.52,0,0,1,.61-.61l0,0a1.43,1.43,0,0,1,.62-.6l0,0a1.29,1.29,0,0,1,.62-.61l0,0a1.17,1.17,0,0,1,.62-.61l0,0a1,1,0,0,1,.73-.6l4.48-3.49c1-.27,2-.52,3-.81a4.88,4.88,0,0,1,4.29.84l.71.46a6.43,6.43,0,0,1,.51,4.08c-.07,1.91-1.22,3.34-2.15,4.87-.38.64-.64,1.22.52,1.19l.59-.16.56-.23c.17-.09.36-.17.54-.24s.53-.23.78-.37a4.48,4.48,0,0,1,.5-.27l.49-.27.47-.32a2,2,0,0,1,.48-.31,1.32,1.32,0,0,1,.55-.13.75.75,0,0,0,.71-.38l0,0a2.38,2.38,0,0,0,.66-.51h1.14Z" class="cls-168" transform="translate(-0.58 -0.62)"/><path d="M183.23,127.39a17.65,17.65,0,0,1-2.44,2.75,8.86,8.86,0,0,0-.86,1.11c-.16.26,0,.54.18.77s.78.49,1,.33.6-.46.88-.7a13.54,13.54,0,0,1,2.31-2.08c1.5.43,2.66,1.48,4,2.22.66.37,1.31.93.64,1.84a5.11,5.11,0,0,0-1.34.43c-1.92,1.27-4.12,1.93-6.13,3s-4.08,2.07-6.14,3.06a8.76,8.76,0,0,1-1.35.41,9.62,9.62,0,0,1,.45-4,3.29,3.29,0,0,0,.12-1.14,4.66,4.66,0,0,1,.07-1.43c.68-1.66.44-3.41.55-5.12a1.63,1.63,0,0,1,1.72-1.57c1.15,0,2.3,0,3.45,0a7.94,7.94,0,0,0,.85-.1,1,1,0,0,0,.74-.77c0-1.15.07-2.3.1-3.45,0-.48,0-1,0-1.44a1.6,1.6,0,0,1,1.56,1,2,2,0,0,1-.2,1.89,5.39,5.39,0,0,0-.61.94A1.6,1.6,0,0,0,183.23,127.39Z" class="cls-154" transform="translate(-0.58 -0.62)"/><path d="M183.81,126.76a.76.76,0,0,1-.61.61A.79.79,0,0,1,183.81,126.76Z" class="cls-154" transform="translate(-0.58 -0.62)"/><path d="M184.39,126.18a.76.76,0,0,1-.61.61A.8.8,0,0,1,184.39,126.18Z" class="cls-154" transform="translate(-0.58 -0.62)"/><path d="M185,125.61a.76.76,0,0,1-.61.61A.79.79,0,0,1,185,125.61Z" class="cls-154" transform="translate(-0.58 -0.62)"/><path d="M185.55,125a.77.77,0,0,1-.62.6A.78.78,0,0,1,185.55,125Z" class="cls-154" transform="translate(-0.58 -0.62)"/><path d="M186.13,124.46a.75.75,0,0,1-.62.6A.77.77,0,0,1,186.13,124.46Z" class="cls-154" transform="translate(-0.58 -0.62)"/><path d="M186.71,123.89a.76.76,0,0,1-.62.61A.76.76,0,0,1,186.71,123.89Z" class="cls-154" transform="translate(-0.58 -0.62)"/><path d="M187.4,123.33a1,1,0,0,1-.73.6A.79.79,0,0,1,187.4,123.33Z" class="cls-154" transform="translate(-0.58 -0.62)"/><path d="M199.67,130.68a.4.4,0,0,0-.39.14c-1.69.47-2.43,0-1.68-1.78l2.05-3.42c.24-.4.5-.8.74-1.2a1.14,1.14,0,0,0,.62-.84,1.26,1.26,0,0,1,.58-.88c0,.73,0,1.47,0,2.2a3.38,3.38,0,0,0,1.93,3.1.43.43,0,0,1-.16.5l0,0c-.24.13-.41.37-.67.47l0,0c-.25.43-.83.3-1.12.65h0c-.29.34-.84.21-1.1.61l0,0A2,2,0,0,1,199.67,130.68Z" class="cls-169" transform="translate(-0.58 -0.62)"/><path d="M173.38,141.7c0,.37,0,.74,0,1.11a1.34,1.34,0,0,1-.57,1.19q0-1.15,0-2.31h0A.38.38,0,0,1,173.38,141.7Z" class="cls-159" transform="translate(-0.58 -0.62)"/><path d="M162.43,135.35a1.53,1.53,0,0,1,1.25-.56h7.39a1.48,1.48,0,0,1-1.24.57h-7.4Z" class="cls-39" transform="translate(-0.58 -0.62)"/><path d="M173.38,141.7h-.58l.58-.57Z" class="cls-150" transform="translate(-0.58 -0.62)"/><path d="M188.93,133.63a1.3,1.3,0,0,0-.66-1.15L186,131.32a3.76,3.76,0,0,1-1.74-1.76,20.81,20.81,0,0,1,4-4c.91,1.85,1.83,3.69,2.74,5.55a1,1,0,0,1-.31,1.26C190.16,132.78,189.54,133.2,188.93,133.63Z" class="cls-170" transform="translate(-0.58 -0.62)"/><path d="M203.95,129.69A1,1,0,0,1,205,129,1.22,1.22,0,0,1,203.95,129.69Z" class="cls-167" transform="translate(-0.58 -0.62)"/><path d="M202.21,130.82a1,1,0,0,1,1.1-.65A1.23,1.23,0,0,1,202.21,130.82Z" class="cls-167" transform="translate(-0.58 -0.62)"/><path d="M200.45,131.86a.85.85,0,0,1,.78-.45A.84.84,0,0,1,200.45,131.86Z" class="cls-167" transform="translate(-0.58 -0.62)"/><path d="M201.61,131.24l.63-.45A.58.58,0,0,1,201.61,131.24Z" class="cls-167" transform="translate(-0.58 -0.62)"/><path d="M203.32,130.16a.82.82,0,0,1,.66-.51A.69.69,0,0,1,203.32,130.16Z" class="cls-167" transform="translate(-0.58 -0.62)"/><path d="M205,129l.63-.51A.68.68,0,0,1,205,129Z" class="cls-167" transform="translate(-0.58 -0.62)"/><path d="M205.65,128.49a.87.87,0,0,1,.57-.61q0,.26-.07.51A1.06,1.06,0,0,1,205.65,128.49Z" class="cls-167" transform="translate(-0.58 -0.62)"/><path d="M203.4,128.48q.07-.25.16-.5l.9-.19A1,1,0,0,1,203.4,128.48Z" class="cls-167" transform="translate(-0.58 -0.62)"/><path d="M205.07,127.32a.84.84,0,0,1-.65.51A.71.71,0,0,1,205.07,127.32Z" class="cls-167" transform="translate(-0.58 -0.62)"/><path d="M197.61,129c0,.27,0,.53,0,.8,0,.81.17,1,.9,1,.26,0,.53,0,.8,0-.06.07-.12.16-.2.2-.79.4-1.45.4-1.78,0a1.68,1.68,0,0,1-.27-.76A1.14,1.14,0,0,1,197.61,129Z" class="cls-167" transform="translate(-0.58 -0.62)"/><path d="M201.59,129.6a1.31,1.31,0,0,1,1.12-.65A1,1,0,0,1,201.59,129.6Z" class="cls-167" transform="translate(-0.58 -0.62)"/><path d="M200.5,130.2a1.24,1.24,0,0,1,1.1-.61A1.13,1.13,0,0,1,200.5,130.2Z" class="cls-167" transform="translate(-0.58 -0.62)"/><path d="M199.67,130.68a.9.9,0,0,1,.79-.46A.89.89,0,0,1,199.67,130.68Z" class="cls-167" transform="translate(-0.58 -0.62)"/><path d="M202.68,129a.69.69,0,0,1,.67-.47A.8.8,0,0,1,202.68,129Z" class="cls-167" transform="translate(-0.58 -0.62)"/></svg>