<svg id="Ebene_1" data-name="Ebene 1" xmlns="http://www.w3.org/2000/svg" viewBox="0 0 840.34 594.11"><defs><style>.cls-1{fill:#fff;}.cls-2{fill:#b89e25;}.cls-3{fill:#010101;}.cls-4{fill:#010102;}.cls-5{fill:#010305;}.cls-6{fill:#0b4c96;}.cls-7{fill:#15478f;}.cls-8{fill:#104d97;}.cls-9{fill:#124693;}.cls-10{fill:#16448a;}.cls-11{fill:#0e4a97;}.cls-12{fill:#144490;}</style></defs><title>start</title><path class="cls-1" d="M420.61,594.5q-209,0-418,0c-1.8,0-2.2-.4-2.2-2.2Q.51,297.49.43,2.63c0-1.8.4-2.2,2.2-2.2q418,.07,835.94,0c1.8,0,2.2.4,2.2,2.2q-.07,294.86,0,589.71c0,1.79-.4,2.2-2.2,2.2Q629.59,594.47,420.61,594.5Z" transform="translate(-0.43 -0.43)"/><path class="cls-2" d="M487.29,28.69a66.6,66.6,0,1,1-66.67,66.42A66.47,66.47,0,0,1,487.29,28.69Z" transform="translate(-0.43 -0.43)"/><path class="cls-2" d="M518.68,437.63A66.61,66.61,0,1,1,585,504.39,66.44,66.44,0,0,1,518.68,437.63Z" transform="translate(-0.43 -0.43)"/><path class="cls-2" d="M321.59,192.82c-28.45-.58-50.19-23-49.58-51.19A49.86,49.86,0,0,1,323.18,93c27.49.54,49.14,23.64,48.54,51.79C371.16,171.18,348,193.37,321.59,192.82Z" transform="translate(-0.43 -0.43)"/><path class="cls-2" d="M773.94,319.45a49.81,49.81,0,0,1-47.7,51.62c-26.94,1.27-50.35-19.14-52.11-47.47-1.6-25.74,19.42-49.82,44.73-52.11C747.08,269,772.73,290,773.94,319.45Z" transform="translate(-0.43 -0.43)"/><path class="cls-2" d="M284.46,487.69a49.87,49.87,0,1,1,50,49.83A49.72,49.72,0,0,1,284.46,487.69Z" transform="translate(-0.43 -0.43)"/><path class="cls-2" d="M701.72,142.87a49.88,49.88,0,1,1,49.92-49.64A49.72,49.72,0,0,1,701.72,142.87Z" transform="translate(-0.43 -0.43)"/><path class="cls-2" d="M169.83,384.48a49.9,49.9,0,1,1-49.73,50.06A49.87,49.87,0,0,1,169.83,384.48Z" transform="translate(-0.43 -0.43)"/><path class="cls-2" d="M556.92,225c-1.18-15.63,12-30.78,27.74-32,18.26-1.36,32.93,11,34.05,29.2a30.93,30.93,0,1,1-61.8,2.75Z" transform="translate(-0.43 -0.43)"/><path class="cls-2" d="M151.29,192.82c-16.63.41-30.75-13.23-31.18-30.12A30.94,30.94,0,1,1,182,161.16C182.33,178.42,168.79,192.39,151.29,192.82Z" transform="translate(-0.43 -0.43)"/><path class="cls-2" d="M113.07,534.21a30.92,30.92,0,1,1-30.81-31.05A31,31,0,0,1,113.07,534.21Z" transform="translate(-0.43 -0.43)"/><path class="cls-2" d="M444.76,395.21a24.1,24.1,0,1,1-24.23-24A24.15,24.15,0,0,1,444.76,395.21Z" transform="translate(-0.43 -0.43)"/><path class="cls-2" d="M243.95,52.93a24.1,24.1,0,1,1-23.79-24.24A24.14,24.14,0,0,1,243.95,52.93Z" transform="translate(-0.43 -0.43)"/><path class="cls-2" d="M137.21,297.06A24.11,24.11,0,1,1,113,273,24.18,24.18,0,0,1,137.21,297.06Z" transform="translate(-0.43 -0.43)"/><path class="cls-2" d="M724.08,551.45a24.15,24.15,0,1,1,0-48.3,24.15,24.15,0,0,1,0,48.3Z" transform="translate(-0.43 -0.43)"/><path class="cls-2" d="M808.34,199.67a24.1,24.1,0,1,1-24.11-24.25A24,24,0,0,1,808.34,199.67Z" transform="translate(-0.43 -0.43)"/><path class="cls-2" d="M75.27,67.21A24.1,24.1,0,1,1,99.54,43.14,24,24,0,0,1,75.27,67.21Z" transform="translate(-0.43 -0.43)"/><path class="cls-3" d="M399,299.14c4.86-9.2,14-10.26,20.47-8.37a10,10,0,0,1,6.95,8.75c.9,9.69.23,19.4.4,29.09.07,3.94,1.07,6.87,5.57,7,.83,0,1.33.25,1.25,1.26-.1,1.27-1,.79-1.58.75a112.2,112.2,0,0,0-17.7,0c-.59.05-1.47.52-1.56-.76-.07-1,.48-1.11,1.24-1.31,3.77-1,4.59-2.09,4.6-6,0-9.18,0-18.35,0-27.53,0-3.33-.3-6.8-3.9-8.31s-7.2-.58-10.25,1.91c-3.76,3.07-5.32,7.28-5.42,11.94-.17,7.58-.08,15.16,0,22.74,0,3.25,1.1,4.46,4.35,5.25.76.18,1.6.13,1.45,1.35-.17,1.44-1.21.76-1.81.72a112,112,0,0,0-17.22,0c-.65,0-1.65.64-1.85-.73s1-1.18,1.7-1.33c3.89-.82,5.13-2.19,5.13-6.16q0-25.85,0-51.71c0-4.15-1.43-7.33-5.89-7.46-.71,0-1-.27-.94-1s.17-1,.94-1c4.46.17,8.9.4,13.29-.85,1.4-.4.79,1.08.8,1.67.05,7.18,0,14.36,0,21.54Q399,294.87,399,299.14Z" transform="translate(-0.43 -0.43)"/><path class="cls-4" d="M307.51,331.14c.34,2.62,2,3.85,4.47,4.18a10,10,0,0,1,2.11.36c.79.29,2.42-.66,2.18,1.24-.21,1.64-1.56.71-2.29.68a187.52,187.52,0,0,0-20.57,0c-.65,0-1.67.65-1.86-.71-.22-1.54,1-1.09,1.73-1.23,4.61-.87,5.57-2,5.58-6.7q0-23.22,0-46.43c0-4.8-1.2-6.1-5.89-6.58-.7-.07-1.42.12-1.44-1s.82-.94,1.46-.94c14,.11,27.92.29,41.88,0,1.26,0,1.74.29,1.51,1.58a16.19,16.19,0,0,0-.11,2.15c-.51,1.44.09,3-.36,4.42q0,4.66.06,9.31c0,.66.34,1.45-.88,1.48-1,0-1.13-.42-1.25-1.26a76.61,76.61,0,0,0-1.42-8.21c-1.15-4.42-3.92-6.56-8.51-7a59,59,0,0,0-12.38-.05c-2.59.27-3.85,1.61-4,4.14a87.38,87.38,0,0,0-.18,11c0,4.69-.25,9.38.16,14.07,2.22,0,4.44.12,6.65.05,4-.12,6.22-2.2,7.21-6.82a14.41,14.41,0,0,0,.47-3.28c0-1.68.72-2.08,2.18-1.74a49.12,49.12,0,0,1-.11,7.68l0,2.37c.49,3.22-.19,6.49.36,9.71.05,1.58.11,3.17.15,4.75,0,.56.05,1.13-.81,1.11-.68,0-1.23,0-1.34-.91-.21-1.73-.42-3.46-.8-5.16a6.85,6.85,0,0,0-7.11-5.73c-2.3,0-4.6,0-6.9,0C307.23,315.45,307.14,323.29,307.51,331.14Z" transform="translate(-0.43 -0.43)"/><path class="cls-3" d="M487,309.95H474.57c-.77,0-1.64-.21-1.69,1.06-.25,6.08-.18,12,3.23,17.51,5.86,9.4,16.91,7.68,21.74.42a4.75,4.75,0,0,1,.53-.79c.71-.7.62-2.82,2.4-1.66,1.43.93,0,1.85-.42,2.68-3.08,6.33-8.26,9.51-15.2,9.72-7.42.22-13.63-2.29-17.63-8.88s-4.19-14-3-21.5a22.92,22.92,0,0,1,7.1-14c5.82-5.29,16.81-6.09,22.9-1.67,3.89,2.82,5.55,6.83,6.18,11.4,0,.31-.07.65,0,1,.29,1.52,1.19,3.55.08,4.43s-3,.29-4.62.3C493.08,310,490,309.95,487,309.95Z" transform="translate(-0.43 -0.43)"/><path class="cls-3" d="M364,309.95c-4.15,0-8.3,0-12.45,0-.73,0-1.7-.32-1.75,1-.26,6.08-.26,12.06,3.19,17.52,5.44,8.6,16.43,8.71,22.05.2.59-.9.59-3.32,2.57-2.16s-.13,2.35-.6,3.24a16.07,16.07,0,0,1-13.19,9c-12.47,1.23-21.54-6.29-22.73-18.76-.7-7.26-.16-14.32,3.6-20.8,5.38-9.28,18.85-12.29,27-6.09,3.68,2.79,5.23,6.69,5.86,11.08.2,1.39.24,2.8.42,4.2.16,1.24-.28,1.63-1.55,1.6C372.28,309.9,368.13,309.95,364,309.95Z" transform="translate(-0.43 -0.43)"/><path class="cls-5" d="M451.8,299.4q0,13.89,0,27.77c0,.64,0,1.28,0,1.92.13,4.38,1.1,5.57,5.33,6.48.78.17,1.6.1,1.47,1.34s-1,.79-1.59.74a119.36,119.36,0,0,0-18.65,0c-.62,0-1.47.43-1.55-.82-.07-1,.54-1.06,1.29-1.22,4.72-1,5.53-1.86,5.54-6.72q.07-26-.06-51.95c0-4.46-1.38-6-5.74-6.71-.84-.15-1-.4-1-1.17s.45-.86,1.07-.85c4.38.08,8.75.37,13.06-.87,1.27-.36.83.86.84,1.43,0,4.31,0,8.62,0,12.93Z" transform="translate(-0.43 -0.43)"/><path class="cls-4" d="M522.72,329.07c1,4.44,2.36,5.71,6.68,6.3a18.75,18.75,0,0,0,1.89.28c.81,0,1.09.35,1.08,1.16,0,1-.64.9-1.28.88-3.51-.13-7-.29-10.52-.38a104.36,104.36,0,0,0-11,.33c-.68.05-1.65.49-1.72-.91-.05-1.16.74-1,1.4-1.12,4.45-1,5.36-1.63,5.43-6.36.16-10.12.44-20.26-.18-30.38-.2-3.24-1.62-4.64-4.72-5.46-.74-.2-2.2.28-1.89-1.39.27-1.42,1.4-.73,2.09-.66a35.94,35.94,0,0,0,12.75-1v9.76c1.56-1.87,2.67-3.91,4.23-5.65,3.65-4.06,8.6-5.48,12.88-3.65a6.81,6.81,0,0,1,4.06,8c-.52,2.2-1.69,3.76-4.08,4-2.22.26-4.22-.2-5.23-2.4a5.16,5.16,0,0,1,1-6,11.22,11.22,0,0,1,1.68-1.19,5.67,5.67,0,0,0-6.09.45c-5,3.19-7.21,8.07-8.1,13.71-.46,4.6-.07,9.21-.21,13.82A76.15,76.15,0,0,1,522.72,329.07Z" transform="translate(-0.43 -0.43)"/><path class="cls-6" d="M307.49,305.52c-.61-.24-.44-.78-.44-1.22q0-11,0-22c0-.61-.15-1.3.45-1.78Q307.5,293,307.49,305.52Z" transform="translate(-0.43 -0.43)"/><path class="cls-7" d="M307.51,331.14c-.51-.41-.45-1-.45-1.54q0-10.51,0-21c0-.38-.08-.81.43-1Q307.48,319.37,307.51,331.14Z" transform="translate(-0.43 -0.43)"/><path class="cls-8" d="M522.72,329.07q0-10.2-.07-20.39c0-.47,0-1,.43-1.28q0,10.55,0,21.11C523,328.69,522.83,328.88,522.72,329.07Z" transform="translate(-0.43 -0.43)"/><path class="cls-9" d="M324.27,313.49c-.88-3.21-.35-6.47-.36-9.71A72.75,72.75,0,0,1,324.27,313.49Z" transform="translate(-0.43 -0.43)"/><path class="cls-10" d="M323.89,301.41a40.78,40.78,0,0,1,.11-7.68C324.6,296.29,324.17,298.85,323.89,301.41Z" transform="translate(-0.43 -0.43)"/><path class="cls-11" d="M335.89,282.12c0-1.49-.45-3,.36-4.42A13.16,13.16,0,0,1,335.89,282.12Z" transform="translate(-0.43 -0.43)"/><path class="cls-1" d="M531.59,75.12c-.5.55-.9,1-1.34,1.48-5.75,5.76-11.48,11.55-17.3,17.25-1.15,1.12-1.07,1.71,0,2.78,5.81,5.7,11.51,11.53,17.33,17.22,1.2,1.17,1.18,1.79,0,2.95q-10.84,10.67-21.5,21.51c-1.24,1.26-1.87,1-3-.09-5.59-5.7-11.3-11.28-16.88-17-1.26-1.29-2-1.47-3.31-.06-5.61,5.79-11.39,11.41-17,17.16-1.08,1.1-1.68,1.18-2.81,0Q455,127.44,444.09,116.68c-1-1-1.08-1.59,0-2.64,5.81-5.7,11.5-11.54,17.33-17.21,1.32-1.28,1.23-1.91,0-3.14-5.72-5.57-11.29-11.29-17-16.88-1.19-1.17-1.49-1.82-.11-3.16,7.25-7.09,14.4-14.28,21.52-21.5,1.07-1.09,1.65-1.17,2.77,0,5.69,5.82,11.52,11.51,17.22,17.33,1.14,1.17,1.76,1.26,3,0C494.44,63.65,500.27,58,506,52.15c1.1-1.13,1.7-1.11,2.8,0,7.17,7.28,14.43,14.48,21.65,21.71C530.8,74.25,531.16,74.65,531.59,75.12Z" transform="translate(-0.43 -0.43)"/><path class="cls-1" d="M585.45,462.36c-.82.08-1.12.7-1.55,1.13-5.71,5.69-11.46,11.34-17.07,17.13-1.35,1.39-2.05,1.25-3.33,0-6.94-7.06-13.91-14.09-21-21-1.61-1.56-1.29-2.27.11-3.63,5.61-5.45,11.06-11.07,16.65-16.53,1.29-1.26,1.47-2,.07-3.35-5.78-5.61-11.41-11.39-17.16-17-1.08-1.06-1.2-1.64,0-2.77q10.92-10.75,21.67-21.67c1.14-1.16,1.72-1,2.77.05,5.71,5.81,11.53,11.5,17.22,17.32,1.17,1.2,1.79,1.18,2.95,0,5.69-5.82,11.51-11.52,17.22-17.32,1-1.06,1.61-1.22,2.75-.06q10.75,10.92,21.67,21.68c1.1,1.09,1.16,1.68,0,2.8-5.82,5.7-11.51,11.52-17.33,17.21-1.21,1.18-1.19,1.8,0,3,5.82,5.69,11.51,11.52,17.33,17.21,1.14,1.12,1.07,1.72,0,2.8Q617.44,470,606.67,480.93c-1,1-1.59,1.07-2.64,0-5.7-5.81-11.49-11.54-17.25-17.3C586.34,463.19,585.87,462.76,585.45,462.36Z" transform="translate(-0.43 -0.43)"/><path class="cls-1" d="M336.93,176.11c-.54-.48-1-.89-1.46-1.33-3.9-3.89-7.89-7.68-11.63-11.72-1.65-1.78-2.51-1.53-4,.09C316,167.2,311.91,171,308,175c-.94,1-1.45,1-2.41,0-5.2-5.3-10.43-10.56-15.75-15.73-1.22-1.19-.93-1.8.11-2.81,4.05-4,8-8.06,12.07-12,1.42-1.35,1.23-2.09-.07-3.34-4.08-3.93-8-8-12.07-12-1.18-1.13-1.05-1.75,0-2.81q7.86-7.71,15.57-15.57c1-1,1.51-1.14,2.58,0,4.1,4.25,8.36,8.34,12.47,12.58,1,1.08,1.59,1,2.62,0,4.06-4.18,8.27-8.21,12.3-12.41,1.2-1.25,1.8-1.11,2.94.05q7.6,7.8,15.4,15.4c1.1,1.08,1.18,1.68,0,2.79-4.19,4-8.22,8.25-12.41,12.3-1.14,1.1-1.08,1.69,0,2.76,4.13,4,8.11,8.13,12.23,12.13,1.12,1.08,1.43,1.7.12,3-5.27,5.11-10.41,10.35-15.61,15.53C337.8,175.32,337.39,175.68,336.93,176.11Z" transform="translate(-0.43 -0.43)"/><path class="cls-1" d="M739.22,354.29c-.78-.1-1.09-.73-1.51-1.15-4.08-4-8.18-8.07-12.17-12.21-1.12-1.16-1.73-1.33-2.94-.06-4,4.21-8.25,8.23-12.3,12.42-1.05,1.09-1.61,1-2.63,0-5.14-5.24-10.31-10.46-15.58-15.56-1.3-1.26-1-1.89.13-3,4.12-4,8.11-8.15,12.24-12.14,1.14-1.1,1.08-1.7,0-2.76-4.18-4.05-8.23-8.25-12.41-12.31-1-1-1.15-1.54-.05-2.61q7.88-7.7,15.57-15.58c1.24-1.28,1.91-1,3,.1,3.89,4,7.93,7.88,11.8,11.9,1.24,1.29,2,1.5,3.31.07,3.9-4.11,8-8,11.95-12.09,1.2-1.25,1.82-1.12,3,0q7.52,7.71,15.24,15.24c1.22,1.19,1.45,1.83.07,3.14-4.11,3.89-8,8-12.09,11.94-1.36,1.29-1.19,2,.06,3.15,4,3.87,7.89,7.91,11.9,11.8,1.19,1.16,1.52,1.84.13,3.18-5.22,5-10.31,10.23-15.44,15.37C740,353.57,739.61,353.93,739.22,354.29Z" transform="translate(-0.43 -0.43)"/><path class="cls-1" d="M349.39,520.82c-.51-.45-1-.85-1.45-1.29-4.13-4.11-8.28-8.2-12.34-12.38-1-1.06-1.58-1.07-2.62,0-4.11,4.24-8.36,8.35-12.48,12.58-.92.94-1.45,1-2.43,0-5.2-5.3-10.43-10.57-15.76-15.74-1.24-1.2-.89-1.81.13-2.81,4.11-4,8.11-8.15,12.24-12.15,1.12-1.09,1.17-1.71,0-2.82-4.19-4.05-8.23-8.25-12.41-12.31-1-1-1.1-1.59,0-2.64q8-7.79,15.75-15.75c1.13-1.15,1.7-.83,2.64.13,4,4.05,8,8,12,12.07,1.25,1.3,2,1.5,3.35.07,3.9-4.11,8-8,12-12.09,1.08-1.11,1.69-1.17,2.81,0q7.7,7.88,15.59,15.57c1.23,1.19.89,1.78-.12,2.76-4.05,4-8,8.07-12.08,12-1.44,1.36-1.21,2.08.07,3.32,4.08,3.93,8,8,12.08,12,1.11,1.08,1.15,1.68,0,2.79-5.26,5.13-10.41,10.36-15.61,15.55C350.29,520,349.87,520.37,349.39,520.82Z" transform="translate(-0.43 -0.43)"/><path class="cls-1" d="M734.93,108c-.4.45-.75.88-1.14,1.27-5.24,5.25-10.52,10.46-15.71,15.77-1.08,1.11-1.66.94-2.64-.07-4-4.11-8.16-8.08-12.13-12.24-1.3-1.36-2-1.17-3.17.07-4,4.14-8.13,8.11-12.13,12.24-1.05,1.08-1.63,1-2.64,0q-7.71-7.86-15.57-15.56c-1.12-1.09-1.15-1.71,0-2.81,4.13-4,8.11-8.14,12.24-12.13,1.17-1.14,1.29-1.8,0-3-4.14-4-8.12-8.13-12.24-12.13-1.1-1.07-1.2-1.68,0-2.81q7.88-7.69,15.57-15.57c1.15-1.18,1.73-1,2.76.07,4.06,4.17,8.25,8.22,12.3,12.4,1,1.06,1.58,1.09,2.61,0,4.05-4.18,8.26-8.21,12.29-12.41,1.21-1.26,1.83-1.1,3,.06q7.6,7.8,15.4,15.4c1.08,1.06,1.22,1.66.05,2.79-4.19,4-8.22,8.25-12.41,12.29-1.16,1.12-1.06,1.72,0,2.78,4.18,4.05,8.26,8.21,12.38,12.33C734.13,107.15,734.5,107.57,734.93,108Z" transform="translate(-0.43 -0.43)"/><path class="cls-1" d="M169.91,452.71c-.47.45-.88.82-1.27,1.21-4.18,4.17-8.39,8.32-12.51,12.55-.94,1-1.45,1-2.41,0-5.2-5.3-10.43-10.57-15.76-15.74-1.27-1.23-.85-1.84.15-2.82,4.1-4,8.1-8.15,12.24-12.15,1.14-1.1,1.14-1.72,0-2.82-4.18-4.06-8.23-8.25-12.41-12.31-1-1-1.11-1.59,0-2.65q8-7.79,15.74-15.75c1.09-1.11,1.62-.93,2.6.07,4.06,4.17,8.25,8.23,12.31,12.41,1.08,1.11,1.7,1.17,2.81,0,4-4.19,8.25-8.23,12.31-12.41,1-1,1.6-1.09,2.65,0q7.79,8,15.74,15.75c1,.94,1,1.47,0,2.44-4.18,4.06-8.2,8.29-12.42,12.3-1.37,1.3-1.15,1.94.07,3.11,4.14,4,8.13,8.13,12.24,12.14,1,1,1.18,1.53.06,2.62q-8,7.78-15.75,15.75c-1.06,1.09-1.61,1-2.61,0-4.06-4.18-8.21-8.27-12.34-12.38C170.9,453.56,170.41,453.16,169.91,452.71Z" transform="translate(-0.43 -0.43)"/><path class="cls-1" d="M578.5,203.24c.44.4.86.76,1.26,1.15,2.32,2.31,4.67,4.59,6.93,7,.86.91,1.4.94,2.28,0,2.36-2.49,4.86-4.85,7.24-7.32.7-.73,1.13-.8,1.88,0,3.12,3.2,6.26,6.39,9.49,9.47,1,1,.44,1.41-.21,2.05-2.38,2.36-4.71,4.78-7.13,7.09-.91.87-.93,1.4,0,2.27,2.49,2.36,4.85,4.86,7.32,7.24.73.71.8,1.13,0,1.88q-4.8,4.68-9.48,9.48c-.74.76-1.16.73-1.88,0-2.38-2.47-4.87-4.83-7.24-7.32-.86-.9-1.39-.94-2.27,0-2.31,2.43-4.75,4.73-7.07,7.15-.82.86-1.33,1-2.23,0q-4.48-4.66-9.14-9.15c-.89-.86-.89-1.37,0-2.22,2.43-2.31,4.72-4.76,7.15-7.07.91-.86.94-1.4,0-2.28-2.43-2.31-4.77-4.71-7.12-7.1-.49-.5-1.4-.88-.4-1.85,3.32-3.23,6.56-6.53,9.84-9.8C578,203.66,578.22,203.47,578.5,203.24Z" transform="translate(-0.43 -0.43)"/><path class="cls-1" d="M141.64,141.35c.44.39.87.74,1.26,1.13,2,2,4.18,4,6.06,6.12,1.45,1.67,2.43,2,4,.09,1.83-2.19,4.1-4,6-6.16,1.11-1.23,1.74-1,2.76.06q4.21,4.41,8.63,8.63c1,1,1.23,1.53.06,2.59-2.13,1.92-4,4.2-6.16,6-2,1.64-1.63,2.67.09,4.17,2.16,1.88,4,4.08,6.14,6,1,1,.89,1.51-.05,2.41-3,2.87-6,5.78-8.79,8.81-1.14,1.22-1.76,1-2.76-.09-2.12-2.27-4.45-4.35-6.54-6.65-1.12-1.23-1.78-1-2.8.07-2.18,2.33-4.54,4.48-6.72,6.81-1,1-1.49.92-2.41,0q-4.3-4.49-8.8-8.8c-1-1-1.23-1.54-.07-2.58,2.13-1.92,4-4.15,6.15-6,1.68-1.46,2-2.44.09-4-2.3-2-4.31-4.26-6.48-6.37-.68-.66-.9-1.11-.1-1.89,3.26-3.17,6.45-6.41,9.66-9.62C141.1,141.81,141.34,141.61,141.64,141.35Z" transform="translate(-0.43 -0.43)"/><path class="cls-1" d="M102.66,543.5c-.32.37-.56.69-.83,1-3.1,3.11-6.23,6.18-9.29,9.33-.8.83-1.29.84-2.1,0-2.37-2.48-4.87-4.84-7.24-7.31-.79-.82-1.27-.85-2.07,0-2.37,2.48-4.86,4.84-7.24,7.31-.79.82-1.28.86-2.1,0q-4.59-4.72-9.31-9.31c-.88-.85-.68-1.37.09-2.11,2.4-2.33,4.72-4.76,7.14-7.08.9-.86.93-1.43,0-2.3-2.37-2.26-4.61-4.64-7-6.9-.91-.87-1.17-1.45-.11-2.46,3.11-3,6.14-6,9.15-9.13.8-.82,1.29-.85,2.1,0,2.37,2.48,4.87,4.84,7.24,7.31.79.82,1.27.85,2.08,0,2.37-2.48,4.87-4.84,7.24-7.31.8-.83,1.29-.84,2.1,0q4.59,4.72,9.31,9.31c.89.86.67,1.37-.1,2.11-2.4,2.34-4.72,4.76-7.14,7.08-.91.87-.91,1.44,0,2.31,2.37,2.26,4.65,4.6,7,6.93C101.94,542.61,102.26,543,102.66,543.5Z" transform="translate(-0.43 -0.43)"/><path class="cls-1" d="M413.39,411.22c-.37-.3-.68-.52-1-.79-2.32-2.31-4.61-4.65-7-6.92-.75-.73-.75-1.22,0-1.93,1.68-1.59,3.23-3.32,4.94-4.87,1.11-1,1.34-1.71.06-2.81-1.63-1.4-3-3.11-4.62-4.51-1.28-1.1-1-1.79.07-2.8a78.42,78.42,0,0,0,5.91-5.94c1.27-1.46,2-1.16,3.15.1,1.42,1.61,3.07,3,4.53,4.61.88,1,1.45.85,2.29,0,1.63-1.75,3.4-3.37,5-5.11.78-.82,1.29-.87,2.1,0q3.3,3.46,6.77,6.77c.85.82.78,1.35,0,2.12-1.74,1.64-3.36,3.42-5.11,5-.91.85-1,1.41,0,2.28,1.7,1.56,3.22,3.33,4.95,4.87,1.16,1,1,1.67,0,2.64q-3.15,2.93-6.09,6.09c-1,1.1-1.72,1.32-2.82.06-1.52-1.74-3.29-3.26-4.86-4.95-.8-.86-1.32-.82-2.1,0-1.64,1.74-3.37,3.4-5.07,5.09C414.19,410.54,413.83,410.83,413.39,411.22Z" transform="translate(-0.43 -0.43)"/><path class="cls-1" d="M235.66,45.72c-.25.27-.55.63-.88,1-1.63,1.64-3.21,3.33-4.92,4.88-1,.94-.95,1.56,0,2.46,1.7,1.56,3.25,3.29,4.94,4.87.88.82,1,1.38.06,2.28-2.26,2.13-4.45,4.34-6.59,6.59-.86.9-1.44,1-2.3,0-1.51-1.64-3.23-3.09-4.68-4.78-1.15-1.34-1.9-1.14-3,.07-1.42,1.61-3.1,3-4.51,4.61-1,1.18-1.65,1-2.61-.07-1.95-2.1-4-4.16-6.09-6.08-1.32-1.18-1.12-1.92.08-3,1.61-1.43,3-3.07,4.6-4.52,1-.89,1.1-1.5.05-2.45-1.71-1.55-3.25-3.28-4.94-4.87-.84-.79-1.12-1.35-.12-2.29q3.48-3.28,6.76-6.76c.85-.9,1.35-.71,2.09.07,1.65,1.73,3.41,3.35,5,5.1.86.92,1.44.93,2.29,0,1.57-1.69,3.3-3.24,4.87-4.94.87-.95,1.46-1.13,2.44-.08,2.12,2.27,4.38,4.41,6.56,6.62C235.2,44.77,235.67,45,235.66,45.72Z" transform="translate(-0.43 -0.43)"/><path class="cls-1" d="M120.53,313c-.64-.07-.94-.57-1.33-1-1.7-1.68-3.43-3.34-5.06-5.08-.79-.84-1.31-.86-2.1,0-1.63,1.74-3.43,3.34-5,5.11-1,1.07-1.59.84-2.47-.09q-3.13-3.29-6.42-6.42c-.88-.83-1-1.4,0-2.28,1.7-1.56,3.22-3.33,4.94-4.86,1.15-1,1-1.67,0-2.64-1.71-1.55-3.25-3.28-4.94-4.87-.83-.77-.88-1.3,0-2.11q3.45-3.3,6.76-6.76c.79-.82,1.3-.88,2.1,0,1.46,1.58,3.15,3,4.51,4.61s2.25,1.4,3.51-.08c1.39-1.63,3-3,4.52-4.6.72-.76,1.19-.74,1.92,0q3.4,3.53,6.93,6.93c.76.74.7,1.24,0,1.94-1.73,1.65-3.35,3.42-5.1,5-1,.9-1.08,1.5,0,2.45,1.77,1.6,3.41,3.35,5.09,5.05.49.5,1.14,1,.34,1.75-2.49,2.47-5,5-7.44,7.44A6.63,6.63,0,0,1,120.53,313Z" transform="translate(-0.43 -0.43)"/><path class="cls-1" d="M716.88,511.44c.4.36.77.67,1.11,1,1.58,1.57,3.25,3.08,4.71,4.76,1.09,1.25,1.77,1,2.77-.07,1.49-1.66,3.18-3.14,4.7-4.77.8-.85,1.33-1.06,2.25-.09,2.19,2.32,4.45,4.57,6.76,6.76.86.82.79,1.29,0,2.06-1.8,1.69-3.47,3.53-5.28,5.2-.87.81-.81,1.3,0,2.08,1.8,1.69,3.47,3.52,5.27,5.21.84.79.85,1.3,0,2.1q-3.46,3.3-6.76,6.76c-.79.82-1.3.86-2.09,0-1.69-1.81-3.51-3.48-5.2-5.28-.78-.83-1.29-.86-2.09,0-1.69,1.8-3.52,3.48-5.2,5.28-.78.84-1.29.86-2.1,0q-3.31-3.45-6.76-6.76c-.82-.79-.88-1.29,0-2.1,1.75-1.63,3.35-3.42,5.11-5,1-.9,1.08-1.48,0-2.43-1.78-1.6-3.42-3.35-5.09-5.05-.45-.46-1.25-.83-.37-1.69,2.52-2.44,5-4.95,7.46-7.42A4.82,4.82,0,0,1,716.88,511.44Z" transform="translate(-0.43 -0.43)"/><path class="cls-1" d="M791.46,215.6c-.41-.38-.77-.69-1.1-1-1.7-1.69-3.43-3.35-5.06-5.09-.8-.85-1.35-.8-2.13,0-1.65,1.74-3.41,3.36-5,5.11-.83.89-1.37,1-2.27,0-2.13-2.27-4.34-4.46-6.6-6.6-.9-.86-1-1.42,0-2.28,1.59-1.45,3-3.11,4.61-4.52,1.3-1.13,1.54-1.93.08-3.16-1.7-1.43-3.15-3.16-4.78-4.69-.83-.78-.85-1.31,0-2.11,2.3-2.21,4.57-4.46,6.76-6.77.83-.88,1.34-.78,2.1,0,1.64,1.74,3.43,3.34,5,5.11,1,1,1.55.93,2.44,0,1.62-1.76,3.4-3.37,5-5.11.8-.85,1.3-.78,2.08,0,2.14,2.25,4.33,4.47,6.6,6.6,1,1,.9,1.58-.06,2.47-1.64,1.51-3.12,3.2-4.78,4.7-1.05,1-1.23,1.59-.06,2.63,1.73,1.53,3.29,3.25,4.93,4.88.58.58,1.21,1,.3,1.93-2.46,2.39-4.86,4.84-7.29,7.26A8.54,8.54,0,0,1,791.46,215.6Z" transform="translate(-0.43 -0.43)"/><path class="cls-1" d="M91.31,35.83c-.37.42-.67.78-1,1.12-1.57,1.59-3.07,3.26-4.76,4.71-1.35,1.16-1.13,1.9.08,3,1.61,1.42,3,3.07,4.61,4.53.93.86,1.18,1.43.1,2.43-2.23,2.05-4.38,4.2-6.43,6.43-1.08,1.18-1.71.89-2.64-.11C79.7,56.21,78,54.66,76.39,53c-.78-.84-1.32-.86-2.11,0-1.64,1.74-3.41,3.36-5,5.11-.82.87-1.37,1-2.29.08-2.13-2.26-4.34-4.46-6.6-6.6-.88-.84-1-1.39,0-2.27,1.65-1.51,3.1-3.23,4.78-4.69,1.33-1.16,1.13-1.93-.07-3-1.66-1.49-3.14-3.18-4.78-4.7-.85-.79-.83-1.29,0-2.1Q63.72,31.49,67,28c.82-.85,1.34-.78,2.11,0,1.64,1.74,3.41,3.36,5,5.11.84.9,1.41,1,2.28,0,1.62-1.76,3.36-3.4,5.06-5.1.56-.56,1-1.23,1.93-.31,2.39,2.46,4.84,4.86,7.26,7.29A8.91,8.91,0,0,1,91.31,35.83Z" transform="translate(-0.43 -0.43)"/><path class="cls-1" d="M473.25,305.48a20.4,20.4,0,0,1,3.63-9.71c4.15-5.79,10.78-5.11,13.72,1.39a24.43,24.43,0,0,1,1.82,9.3c0,1.3-.4,1.61-1.63,1.59-5.9-.08-11.79-.07-17.69-.1A6.54,6.54,0,0,1,473.25,305.48Z" transform="translate(-0.43 -0.43)"/><path class="cls-12" d="M473.25,305.48,473.1,308A2,2,0,0,1,473.25,305.48Z" transform="translate(-0.43 -0.43)"/><path class="cls-1" d="M350.13,305.48a20.4,20.4,0,0,1,3.63-9.71c4.15-5.79,10.78-5.11,13.72,1.39a24.42,24.42,0,0,1,1.82,9.3c0,1.3-.4,1.61-1.63,1.59-5.9-.08-11.79-.07-17.69-.1A6.54,6.54,0,0,1,350.13,305.48Z" transform="translate(-0.43 -0.43)"/><path class="cls-12" d="M350.13,305.48,350,308A2,2,0,0,1,350.13,305.48Z" transform="translate(-0.43 -0.43)"/></svg>